<!-- Generated by IcoMoon.io -->
<svg version="1.1" xmlns="http://www.w3.org/2000/svg" width="22" height="28" viewBox="0 0 22 28">
<title>500px</title>
<path d="M21.891 24.172l-0.094 0.094c-1.172 1.172-2.531 2.094-4.047 2.734-1.578 0.656-3.234 1-4.953 1s-3.391-0.344-4.953-1c-1.516-0.641-2.891-1.563-4.047-2.734-1.172-1.156-2.094-2.516-2.734-4.031-0.391-0.953-0.703-1.937-0.844-2.953v0c-0.063-0.438 0.547-0.531 0.75-0.562 0.484-0.078 0.812-0.047 0.875 0.313 0.016 0.016 0.016 0.031 0.016 0.063 0.063 0.313 0.219 1.25 0.719 2.484 0.516 1.281 1.313 2.469 2.375 3.531 1.016 1.016 2.203 1.813 3.531 2.375 1.359 0.578 2.812 0.875 4.312 0.875 1.484 0 2.938-0.297 4.312-0.875 1.313-0.562 2.5-1.359 3.516-2.375l0.094-0.094c0.109-0.109 0.234-0.141 0.391-0.094 0.141 0.031 0.313 0.156 0.516 0.344v0c0.5 0.516 0.391 0.766 0.266 0.906zM14.516 14.562l-1.031 1.031 0.984 0.984c0.109 0.109 0.313 0.344-0.109 0.766-0.172 0.172-0.344 0.266-0.5 0.266-0.109 0-0.203-0.047-0.297-0.156l-0.969-0.953-1.031 1.031c-0.031 0.031-0.109 0.078-0.234 0.078-0.141 0-0.313-0.078-0.484-0.25l-0.031-0.031c-0.109-0.094-0.281-0.266-0.281-0.453 0-0.094 0.047-0.172 0.125-0.266l1.031-1.016-1.031-1.031c-0.172-0.172-0.094-0.391 0.219-0.703 0.187-0.187 0.344-0.281 0.484-0.281 0.078 0 0.141 0.031 0.203 0.078l1.016 1.031 1.016-1.016c0.172-0.172 0.453-0.094 0.75 0.203 0.187 0.187 0.391 0.453 0.172 0.688zM21.875 15.453c0 1.234-0.25 2.438-0.719 3.563-0.469 1.094-1.125 2.063-1.969 2.906s-1.828 1.5-2.922 1.969c-1.125 0.484-2.328 0.719-3.563 0.719s-2.438-0.234-3.563-0.719c-1.094-0.469-2.078-1.125-2.922-1.969s-1.5-1.813-1.953-2.906c-0.094-0.203-0.234-0.594-0.234-0.625h-0.016c-0.141-0.438 0.484-0.625 0.672-0.688 0.453-0.141 0.797-0.203 0.938 0.187 0.375 1 0.953 1.969 1.516 2.609h0.016v-5.328c0.031-1.313 0.578-2.641 1.594-3.625 1.047-1.031 2.453-1.609 3.953-1.609 3.063 0 5.547 2.469 5.547 5.5 0 3.063-2.5 5.547-5.547 5.547-0.609 0-1.062-0.047-1.75-0.25-0.078-0.031-0.438-0.187-0.203-0.953 0.063-0.203 0.25-0.797 0.688-0.672 0.031 0 0.797 0.187 1.203 0.187 2.172 0 3.875-1.687 3.875-3.844 0-1.016-0.406-1.969-1.125-2.672-0.719-0.719-1.687-1.109-2.734-1.109-1.078 0-2.063 0.438-2.781 1.25-0.625 0.703-1 1.641-1 2.5v6.453c1.125 0.688 2.422 1.047 3.781 1.047 2 0 3.937-0.797 5.328-2.188 1.406-1.406 2.188-3.297 2.188-5.281 0-2-0.781-3.875-2.203-5.297-1.406-1.406-3.281-2.188-5.297-2.188s-3.906 0.781-5.313 2.188c-0.016 0.016-0.906 0.938-1.203 1.359l-0.031 0.031c-0.187 0.266-0.359 0.516-1.141 0.344-0.391-0.094-0.812-0.328-0.812-0.672v-10.625c0-0.281 0.219-0.594 0.594-0.594h13.703c0.469 0 0.469 0.656 0.469 0.859 0 0.219 0 0.859-0.469 0.859h-12.672v7.547h0.016c0.875-0.922 2.391-1.891 3.281-2.266 1.109-0.469 2.359-0.719 3.609-0.719 1.234 0 2.438 0.234 3.563 0.719 1.094 0.469 2.078 1.125 2.922 1.969s1.5 1.813 1.969 2.906c0.469 1.141 0.719 2.328 0.719 3.578zM21.391 6.375c0.297 0.266 0.094 0.547-0.203 0.891-0.187 0.187-0.391 0.406-0.609 0.406-0.094 0-0.172-0.031-0.25-0.109-1.125-0.969-2.141-1.625-3.234-2.078-1.359-0.594-2.812-0.875-4.312-0.875-1.328 0-2.781 0.266-4.094 0.766-0.406 0.156-0.625-0.375-0.703-0.578-0.094-0.25-0.141-0.453-0.125-0.594 0.031-0.156 0.109-0.266 0.25-0.313 1.281-0.562 3.031-0.891 4.672-0.891 1.703 0 3.375 0.344 4.937 1 1.437 0.609 2.609 1.359 3.672 2.375z"></path>
</svg>
