<!-- Generated by IcoMoon.io -->
<svg version="1.1" xmlns="http://www.w3.org/2000/svg" width="26" height="28" viewBox="0 0 26 28">
<title>address-book-o</title>
<path d="M16.063 10.063c0 2.234-1.828 4.047-4.062 4.047s-4.062-1.813-4.062-4.047c0-2.25 1.828-4.062 4.062-4.062s4.062 1.813 4.062 4.062zM15.313 13.5c2.984 0 3.453 3.547 3.453 5.844 0 1.313-0.828 2.656-2.266 2.656h-9c-1.437 0-2.266-1.344-2.266-2.656 0-2.203 0.469-5.844 3.375-5.844h0.078c1.031 0.609 2.078 1.359 3.313 1.359s2.281-0.75 3.313-1.359zM26 9.5c0 0.266-0.234 0.5-0.5 0.5h-1.5v2h1.5c0.266 0 0.5 0.234 0.5 0.5v3c0 0.266-0.234 0.5-0.5 0.5h-1.5v2h1.5c0.266 0 0.5 0.234 0.5 0.5v3c0 0.266-0.234 0.5-0.5 0.5h-1.5v3.5c0 1.375-1.125 2.5-2.5 2.5h-19c-1.375 0-2.5-1.125-2.5-2.5v-23c0-1.375 1.125-2.5 2.5-2.5h19c1.375 0 2.5 1.125 2.5 2.5v3.5h1.5c0.266 0 0.5 0.234 0.5 0.5v3zM22 25.5v-23c0-0.266-0.234-0.5-0.5-0.5h-19c-0.266 0-0.5 0.234-0.5 0.5v23c0 0.266 0.234 0.5 0.5 0.5h19c0.266 0 0.5-0.234 0.5-0.5z"></path>
</svg>
