<!-- Generated by IcoMoon.io -->
<svg version="1.1" xmlns="http://www.w3.org/2000/svg" width="26" height="28" viewBox="0 0 26 28">
<title>address-book</title>
<path d="M18.766 19.344c0-2.766-0.672-5.844-3.453-5.844-0.859 0.5-2.031 1.359-3.313 1.359s-2.453-0.859-3.313-1.359c-2.781 0-3.453 3.078-3.453 5.844 0 1.547 1.016 2.656 2.266 2.656h9c1.25 0 2.266-1.109 2.266-2.656zM16.063 10.063c0-2.25-1.828-4.062-4.062-4.062s-4.062 1.813-4.062 4.062c0 2.234 1.828 4.047 4.062 4.047s4.062-1.813 4.062-4.047zM26 18.5v3c0 0.281-0.219 0.5-0.5 0.5h-1.5v3.5c0 1.375-1.125 2.5-2.5 2.5h-19c-1.375 0-2.5-1.125-2.5-2.5v-23c0-1.375 1.125-2.5 2.5-2.5h19c1.375 0 2.5 1.125 2.5 2.5v3.5h1.5c0.281 0 0.5 0.219 0.5 0.5v3c0 0.281-0.219 0.5-0.5 0.5h-1.5v2h1.5c0.281 0 0.5 0.219 0.5 0.5v3c0 0.281-0.219 0.5-0.5 0.5h-1.5v2h1.5c0.281 0 0.5 0.219 0.5 0.5z"></path>
</svg>
