<!-- Generated by IcoMoon.io -->
<svg version="1.1" xmlns="http://www.w3.org/2000/svg" width="28" height="28" viewBox="0 0 28 28">
<title>align-left</title>
<path d="M28 21v2c0 0.547-0.453 1-1 1h-26c-0.547 0-1-0.453-1-1v-2c0-0.547 0.453-1 1-1h26c0.547 0 1 0.453 1 1zM22 15v2c0 0.547-0.453 1-1 1h-20c-0.547 0-1-0.453-1-1v-2c0-0.547 0.453-1 1-1h20c0.547 0 1 0.453 1 1zM26 9v2c0 0.547-0.453 1-1 1h-24c-0.547 0-1-0.453-1-1v-2c0-0.547 0.453-1 1-1h24c0.547 0 1 0.453 1 1zM20 3v2c0 0.547-0.453 1-1 1h-18c-0.547 0-1-0.453-1-1v-2c0-0.547 0.453-1 1-1h18c0.547 0 1 0.453 1 1z"></path>
</svg>
