<!-- Generated by IcoMoon.io -->
<svg version="1.1" xmlns="http://www.w3.org/2000/svg" width="31" height="28" viewBox="0 0 31 28">
<title>ambulance</title>
<path d="M10 22c0-1.109-0.891-2-2-2s-2 0.891-2 2 0.891 2 2 2 2-0.891 2-2zM4 14h6v-4h-2.469c-0.094 0.016-0.266 0.078-0.344 0.141l-3.047 3.047c-0.047 0.078-0.125 0.25-0.141 0.344v0.469zM24 22c0-1.109-0.891-2-2-2s-2 0.891-2 2 0.891 2 2 2 2-0.891 2-2zM26 11.5v-3c0-0.281-0.219-0.5-0.5-0.5h-3.5v-3.5c0-0.281-0.219-0.5-0.5-0.5h-3c-0.281 0-0.5 0.219-0.5 0.5v3.5h-3.5c-0.281 0-0.5 0.219-0.5 0.5v3c0 0.281 0.219 0.5 0.5 0.5h3.5v3.5c0 0.281 0.219 0.5 0.5 0.5h3c0.281 0 0.5-0.219 0.5-0.5v-3.5h3.5c0.281 0 0.5-0.219 0.5-0.5zM30 3v18c0 0.547-0.453 1-1 1h-3c0 2.203-1.781 4-4 4-2.203 0-4-1.797-4-4h-6c0 2.203-1.781 4-4 4s-4-1.797-4-4h-2c-0.547 0-1-0.453-1-1s0.453-1 1-1v-6.5c0-0.547 0.313-1.313 0.703-1.703l3.094-3.094c0.391-0.391 1.156-0.703 1.703-0.703h2.5v-5c0-0.547 0.453-1 1-1h18c0.547 0 1 0.453 1 1z"></path>
</svg>
