<!-- Generated by IcoMoon.io -->
<svg version="1.1" xmlns="http://www.w3.org/2000/svg" width="36" height="28" viewBox="0 0 36 28">
<title>american-sign-language-interpreting</title>
<path d="M16.125 15c-0.547-0.016-1.062-0.328-1.313-0.859-0.344-0.703-1.031-1.141-1.813-1.141-1.109 0-2 0.891-2 2 0 0.531 0.187 1.047 0.562 1.391l0.156 0.125c0.344 0.313 0.797 0.484 1.281 0.484 0.781 0 1.469-0.438 1.813-1.141 0.25-0.531 0.766-0.844 1.313-0.859zM25 13c0-0.531-0.187-1.047-0.562-1.391l-0.156-0.125c-0.344-0.313-0.797-0.484-1.281-0.484-0.781 0-1.469 0.438-1.813 1.141-0.25 0.531-0.766 0.844-1.313 0.859 0.547 0.016 1.062 0.328 1.313 0.859 0.344 0.703 1.031 1.141 1.813 1.141 1.109 0 2-0.891 2-2zM18.344 9.547c-0.359 0.734-1.266 1.047-2 0.688-0.656-0.328-1.359-0.484-2.094-0.484-0.547 0-1.062 0.094-1.547 0.266 0.094 0 0.203-0.016 0.297-0.016 1.922 0 3.687 1.125 4.516 2.859 0.359 0.75 0.031 1.641-0.719 2-0.187 0.094-0.391 0.141-0.609 0.141 0.219 0 0.422 0.047 0.609 0.141 0.75 0.359 1.078 1.25 0.719 2-0.828 1.734-2.594 2.859-4.516 2.859v0h-0.094c-0.234-0.031-0.453-0.047-0.688-0.063l-4.531-0.422-3.734 1.875c-0.156 0.078-0.297 0.109-0.453 0.109-0.359 0-0.719-0.203-0.891-0.547l-2.5-5c-0.234-0.484-0.063-1.062 0.391-1.328l3.266-1.859 2.312-4.172c0.359-3.219 1.953-6.172 4.484-8.25 0.641-0.531 1.594-0.438 2.109 0.203 0.531 0.641 0.438 1.578-0.203 2.109-0.703 0.594-1.328 1.266-1.828 2 1.219-0.828 2.625-1.391 4.172-1.578 0.828-0.109 1.578 0.469 1.672 1.297 0.109 0.828-0.469 1.578-1.297 1.672-0.906 0.109-1.75 0.422-2.484 0.859 0.5-0.109 1.016-0.156 1.547-0.156 1.188 0 2.344 0.266 3.406 0.781 0.75 0.375 1.062 1.266 0.688 2.016zM33.391 7.047l2.5 5c0.234 0.484 0.063 1.062-0.391 1.328l-3.266 1.859-2.312 4.172c-0.359 3.219-1.953 6.172-4.484 8.25-0.281 0.234-0.625 0.344-0.953 0.344-0.438 0-0.859-0.187-1.156-0.547-0.531-0.641-0.438-1.578 0.203-2.109 0.703-0.594 1.328-1.266 1.828-2-1.219 0.828-2.625 1.391-4.172 1.578-0.063 0.016-0.125 0.016-0.187 0.016-0.75 0-1.391-0.562-1.484-1.313-0.109-0.828 0.469-1.578 1.297-1.672 0.906-0.109 1.75-0.422 2.484-0.859-0.5 0.109-1.016 0.156-1.547 0.156-1.188 0-2.344-0.266-3.406-0.781-0.75-0.375-1.062-1.266-0.688-2.016 0.359-0.734 1.266-1.047 2-0.688 0.656 0.328 1.359 0.484 2.094 0.484 0.547 0 1.062-0.094 1.547-0.266-0.094 0-0.203 0.016-0.297 0.016-1.922 0-3.687-1.125-4.516-2.859-0.359-0.75-0.031-1.641 0.719-2 0.187-0.094 0.391-0.141 0.609-0.141-0.219 0-0.422-0.047-0.609-0.141-0.75-0.359-1.078-1.25-0.719-2 0.828-1.734 2.594-2.859 4.516-2.859v0h0.109c0.219 0.031 0.438 0.047 0.656 0.063l4.547 0.422 3.734-1.875c0.156-0.078 0.297-0.109 0.453-0.109 0.359 0 0.719 0.203 0.891 0.547z"></path>
</svg>
