<!-- Generated by IcoMoon.io -->
<svg version="1.1" xmlns="http://www.w3.org/2000/svg" width="28" height="28" viewBox="0 0 28 28">
<title>arrows-h</title>
<path d="M28 14c0 0.266-0.109 0.516-0.297 0.703l-4 4c-0.187 0.187-0.438 0.297-0.703 0.297-0.547 0-1-0.453-1-1v-2h-16v2c0 0.547-0.453 1-1 1-0.266 0-0.516-0.109-0.703-0.297l-4-4c-0.187-0.187-0.297-0.438-0.297-0.703s0.109-0.516 0.297-0.703l4-4c0.187-0.187 0.438-0.297 0.703-0.297 0.547 0 1 0.453 1 1v2h16v-2c0-0.547 0.453-1 1-1 0.266 0 0.516 0.109 0.703 0.297l4 4c0.187 0.187 0.297 0.438 0.297 0.703z"></path>
</svg>
