<!-- Generated by IcoMoon.io -->
<svg version="1.1" xmlns="http://www.w3.org/2000/svg" width="24" height="28" viewBox="0 0 24 28">
<title>arrow-circle-o-down</title>
<path d="M17.5 14.5c0 0.141-0.063 0.266-0.156 0.375l-4.984 4.984c-0.109 0.094-0.234 0.141-0.359 0.141s-0.25-0.047-0.359-0.141l-5-5c-0.141-0.156-0.187-0.359-0.109-0.547s0.266-0.313 0.469-0.313h3v-5.5c0-0.281 0.219-0.5 0.5-0.5h3c0.281 0 0.5 0.219 0.5 0.5v5.5h3c0.281 0 0.5 0.219 0.5 0.5zM12 5.5c-4.688 0-8.5 3.813-8.5 8.5s3.813 8.5 8.5 8.5 8.5-3.813 8.5-8.5-3.813-8.5-8.5-8.5zM24 14c0 6.625-5.375 12-12 12s-12-5.375-12-12 5.375-12 12-12v0c6.625 0 12 5.375 12 12z"></path>
</svg>
