<!-- Generated by IcoMoon.io -->
<svg version="1.1" xmlns="http://www.w3.org/2000/svg" width="28" height="28" viewBox="0 0 28 28">
<title>assistive-listening-systems</title>
<path d="M2 27c0 0.547-0.453 1-1 1s-1-0.453-1-1 0.453-1 1-1 1 0.453 1 1zM5 24c0 0.547-0.453 1-1 1s-1-0.453-1-1 0.453-1 1-1 1 0.453 1 1zM5.703 18.297l4 4-1.406 1.406-4-4zM11 18c0 0.547-0.453 1-1 1s-1-0.453-1-1 0.453-1 1-1 1 0.453 1 1zM22.047 13c0 2.594-1.219 3.984-2.281 5.219-0.984 1.125-1.766 2.016-1.766 3.781 0 3.313-2.688 6-6 6-0.547 0-1-0.453-1-1s0.453-1 1-1c2.203 0 4-1.797 4-4 0-2.516 1.203-3.891 2.25-5.094 0.969-1.109 1.797-2.063 1.797-3.906 0-3.859-3.141-7-7-7s-7 3.141-7 7c0 0.547-0.453 1-1 1s-1-0.453-1-1c0-4.969 4.031-9 9-9s9 4.031 9 9zM14 15c0 0.547-0.453 1-1 1s-1-0.453-1-1 0.453-1 1-1 1 0.453 1 1zM18.5 13c0 0.547-0.453 1-1 1s-1-0.453-1-1c0-1.937-1.563-3.5-3.5-3.5-1.922 0-3.5 1.563-3.5 3.5 0 0.547-0.453 1-1 1s-1-0.453-1-1c0-3.031 2.469-5.5 5.5-5.5s5.5 2.469 5.5 5.5zM24.656 8.484c0.203 0.516-0.063 1.094-0.578 1.297-0.109 0.047-0.234 0.063-0.359 0.063-0.391 0-0.781-0.234-0.922-0.641-0.703-1.828-1.922-3.422-3.5-4.609-0.438-0.328-0.531-0.953-0.203-1.391 0.344-0.438 0.969-0.531 1.406-0.203 1.875 1.406 3.313 3.313 4.156 5.484zM27.937 7.219c0.187 0.516-0.063 1.094-0.578 1.297-0.125 0.047-0.234 0.063-0.359 0.063-0.406 0-0.781-0.234-0.938-0.641-0.938-2.438-2.547-4.562-4.641-6.141-0.453-0.328-0.531-0.953-0.203-1.391 0.328-0.453 0.953-0.531 1.391-0.203 2.406 1.797 4.25 4.234 5.328 7.016z"></path>
</svg>
