<!-- Generated by IcoMoon.io -->
<svg version="1.1" xmlns="http://www.w3.org/2000/svg" width="24" height="28" viewBox="0 0 24 28">
<title>at</title>
<path d="M15.188 12.109c0-2.25-1.172-3.594-3.141-3.594-2.594 0-5.375 2.578-5.375 6.75 0 2.328 1.156 3.656 3.187 3.656 3.141 0 5.328-3.594 5.328-6.813zM24 14c0 4.859-3.469 6.687-6.438 6.781-0.203 0-0.281 0.016-0.5 0.016-0.969 0-1.734-0.281-2.219-0.828-0.297-0.344-0.469-0.781-0.516-1.297-0.969 1.219-2.656 2.406-4.766 2.406-3.359 0-5.281-2.078-5.281-5.703 0-4.984 3.453-9.031 7.672-9.031 1.828 0 3.297 0.781 4.078 2.109l0.031-0.297 0.172-0.875c0.016-0.125 0.125-0.281 0.234-0.281h1.844c0.078 0 0.156 0.109 0.203 0.172 0.047 0.047 0.063 0.172 0.047 0.25l-1.875 9.594c-0.063 0.297-0.078 0.531-0.078 0.75 0 0.844 0.25 1.016 0.891 1.016 1.062-0.031 4.5-0.469 4.5-4.781 0-6.078-3.922-10-10-10-5.516 0-10 4.484-10 10s4.484 10 10 10c2.297 0 4.547-0.797 6.328-2.25 0.219-0.187 0.531-0.156 0.703 0.063l0.641 0.766c0.078 0.109 0.125 0.234 0.109 0.375-0.016 0.125-0.078 0.25-0.187 0.344-2.125 1.734-4.828 2.703-7.594 2.703-6.609 0-12-5.391-12-12s5.391-12 12-12c7.172 0 12 4.828 12 12z"></path>
</svg>
