<!-- Generated by IcoMoon.io -->
<svg version="1.1" xmlns="http://www.w3.org/2000/svg" width="28" height="28" viewBox="0 0 28 28">
<title>bath</title>
<path d="M26 17v3c0 1.781-0.781 3.359-2 4.469v3.031c0 0.281-0.219 0.5-0.5 0.5h-1c-0.281 0-0.5-0.219-0.5-0.5v-1.844c-0.625 0.219-1.297 0.344-2 0.344h-12c-0.703 0-1.375-0.125-2-0.344v1.719c0 0.344-0.219 0.625-0.5 0.625h-1c-0.281 0-0.5-0.281-0.5-0.625v-2.906c-1.219-1.109-2-2.688-2-4.469v-3h24zM11 10.5c0 0.281-0.219 0.5-0.5 0.5s-0.5-0.219-0.5-0.5 0.219-0.5 0.5-0.5 0.5 0.219 0.5 0.5zM12 9.5c0 0.281-0.219 0.5-0.5 0.5s-0.5-0.219-0.5-0.5 0.219-0.5 0.5-0.5 0.5 0.219 0.5 0.5zM11 8.5c0 0.281-0.219 0.5-0.5 0.5s-0.5-0.219-0.5-0.5 0.219-0.5 0.5-0.5 0.5 0.219 0.5 0.5zM13 8.5c0 0.281-0.219 0.5-0.5 0.5s-0.5-0.219-0.5-0.5 0.219-0.5 0.5-0.5 0.5 0.219 0.5 0.5zM12 7.5c0 0.281-0.219 0.5-0.5 0.5s-0.5-0.219-0.5-0.5 0.219-0.5 0.5-0.5 0.5 0.219 0.5 0.5zM11 6.5c0 0.281-0.219 0.5-0.5 0.5s-0.5-0.219-0.5-0.5 0.219-0.5 0.5-0.5 0.5 0.219 0.5 0.5zM28 14.5v1c0 0.281-0.219 0.5-0.5 0.5h-27c-0.281 0-0.5-0.219-0.5-0.5v-1c0-0.281 0.219-0.5 0.5-0.5h1.5v-10c0-2.203 1.797-4 4-4 1.125 0 2.141 0.469 2.875 1.219 0.969-0.391 2.125-0.25 2.984 0.422l0.344-0.344c0.094-0.094 0.25-0.094 0.344 0l0.656 0.656c0.094 0.094 0.094 0.25 0 0.344l-4.906 4.906c-0.094 0.094-0.25 0.094-0.344 0l-0.656-0.656c-0.094-0.094-0.094-0.25 0-0.344l0.344-0.344c-0.75-0.953-0.844-2.266-0.266-3.313-0.359-0.344-0.844-0.547-1.375-0.547-1.109 0-2 0.891-2 2v10h23.5c0.281 0 0.5 0.219 0.5 0.5zM14 7.5c0 0.281-0.219 0.5-0.5 0.5s-0.5-0.219-0.5-0.5 0.219-0.5 0.5-0.5 0.5 0.219 0.5 0.5zM13 6.5c0 0.281-0.219 0.5-0.5 0.5s-0.5-0.219-0.5-0.5 0.219-0.5 0.5-0.5 0.5 0.219 0.5 0.5zM12 5.5c0 0.281-0.219 0.5-0.5 0.5s-0.5-0.219-0.5-0.5 0.219-0.5 0.5-0.5 0.5 0.219 0.5 0.5zM15 6.5c0 0.281-0.219 0.5-0.5 0.5s-0.5-0.219-0.5-0.5 0.219-0.5 0.5-0.5 0.5 0.219 0.5 0.5zM14 5.5c0 0.281-0.219 0.5-0.5 0.5s-0.5-0.219-0.5-0.5 0.219-0.5 0.5-0.5 0.5 0.219 0.5 0.5zM13 4.5c0 0.281-0.219 0.5-0.5 0.5s-0.5-0.219-0.5-0.5 0.219-0.5 0.5-0.5 0.5 0.219 0.5 0.5zM16 5.5c0 0.281-0.219 0.5-0.5 0.5s-0.5-0.219-0.5-0.5 0.219-0.5 0.5-0.5 0.5 0.219 0.5 0.5zM15 4.5c0 0.281-0.219 0.5-0.5 0.5s-0.5-0.219-0.5-0.5 0.219-0.5 0.5-0.5 0.5 0.219 0.5 0.5zM17 4.5c0 0.281-0.219 0.5-0.5 0.5s-0.5-0.219-0.5-0.5 0.219-0.5 0.5-0.5 0.5 0.219 0.5 0.5z"></path>
</svg>
