<!-- Generated by IcoMoon.io -->
<svg version="1.1" xmlns="http://www.w3.org/2000/svg" width="28" height="28" viewBox="0 0 28 28">
<title>birthday-cake</title>
<path d="M28 22v6h-28v-6c1.531 0 2.344-0.688 2.984-1.234 0.531-0.469 0.891-0.766 1.687-0.766s1.141 0.297 1.687 0.766c0.641 0.547 1.437 1.234 2.984 1.234 1.531 0 2.328-0.688 2.984-1.234 0.531-0.469 0.875-0.766 1.672-0.766s1.156 0.297 1.687 0.766c0.641 0.547 1.453 1.234 2.984 1.234s2.344-0.688 2.984-1.234c0.531-0.469 0.891-0.766 1.687-0.766 0.781 0 1.141 0.297 1.672 0.766 0.641 0.547 1.453 1.234 2.984 1.234zM28 17v3c-0.797 0-1.141-0.297-1.687-0.766-0.641-0.547-1.437-1.234-2.969-1.234-1.547 0-2.344 0.688-2.984 1.234-0.547 0.469-0.891 0.766-1.687 0.766s-1.156-0.297-1.687-0.766c-0.641-0.547-1.437-1.234-2.984-1.234-1.531 0-2.328 0.688-2.984 1.234-0.531 0.469-0.875 0.766-1.672 0.766s-1.156-0.297-1.687-0.766c-0.641-0.547-1.453-1.234-2.984-1.234-1.547 0-2.344 0.688-2.984 1.234-0.531 0.469-0.891 0.766-1.687 0.766v-3c0-1.656 1.344-3 3-3h1v-7h4v7h4v-7h4v7h4v-7h4v7h1c1.656 0 3 1.344 3 3zM8 3.5c0 1.656-0.891 2.5-2 2.5s-2-0.891-2-2c0-1.937 2-1.437 2-4 0.75 0 2 1.844 2 3.5zM16 3.5c0 1.656-0.891 2.5-2 2.5s-2-0.891-2-2c0-1.937 2-1.437 2-4 0.75 0 2 1.844 2 3.5zM24 3.5c0 1.656-0.891 2.5-2 2.5s-2-0.891-2-2c0-1.937 2-1.437 2-4 0.75 0 2 1.844 2 3.5z"></path>
</svg>
