<!-- Generated by IcoMoon.io -->
<svg version="1.1" xmlns="http://www.w3.org/2000/svg" width="24" height="28" viewBox="0 0 24 28">
<title>bitbucket-square</title>
<path d="M13.25 13.594c0-0.891-1.094-1.5-1.844-1.047-0.891 0.422-0.891 1.859 0.016 2.234 0.812 0.484 1.953-0.25 1.828-1.188zM14.5 13.344c0.172 1.375-0.906 2.719-2.281 2.844s-2.672-1-2.734-2.391c-0.047-1.031 0.594-2.031 1.531-2.453 1.469-0.656 3.281 0.406 3.484 2zM17.187 7.234c-0.688 0.703-1.734 0.797-2.656 0.906-1.672 0.219-3.375 0.203-5.063 0-0.922-0.125-1.937-0.234-2.656-0.906 0.438-0.625 1.219-0.75 1.922-0.859 2.109-0.375 4.266-0.359 6.375-0.016 0.75 0.109 1.594 0.234 2.078 0.875zM17.844 18.891c0-0.375 0.391-1.016-0.141-1.172-3.359 2.219-8.047 2.219-11.422 0l-0.187 0.094-0.078 0.187c0.187 1.094 0.359 2.203 0.641 3.281 0.641 1.109 2.016 1.484 3.187 1.687 2.219 0.406 4.672 0.281 6.687-0.828 1.172-0.656 0.984-2.141 1.313-3.25zM19.875 8.062c0.063-0.375 0.141-0.828-0.125-1.172-0.594-0.75-1.531-1.109-2.422-1.375-2.469-0.719-5.078-0.812-7.609-0.562-1.203 0.109-2.406 0.313-3.531 0.719-0.844 0.328-1.984 0.766-2.125 1.766 0.281 2.344 0.734 4.641 1.125 6.969 0.125 0.656 0.125 1.437 0.719 1.906 1.266 0.969 2.875 1.391 4.438 1.563 2.312 0.25 4.766 0.078 6.875-0.984 0.594-0.313 1.281-0.719 1.406-1.437 0.438-2.453 0.859-4.906 1.25-7.391zM24 6.5v15c0 2.484-2.016 4.5-4.5 4.5h-15c-2.484 0-4.5-2.016-4.5-4.5v-15c0-2.484 2.016-4.5 4.5-4.5h15c2.484 0 4.5 2.016 4.5 4.5z"></path>
</svg>
