<!-- Generated by IcoMoon.io -->
<svg version="1.1" xmlns="http://www.w3.org/2000/svg" width="22" height="28" viewBox="0 0 22 28">
<title>blind</title>
<path d="M5.719 4.859c-1.344 0-2.438-1.094-2.438-2.438 0-1.328 1.094-2.422 2.438-2.422s2.422 1.094 2.422 2.422c0 1.344-1.078 2.438-2.422 2.438zM14.328 14.891c0 1.687-1.797 1.313-2.203 0.625l-5.734-6.844c-0.25-0.406-0.438-0.219-0.438-0.219s-0.109 0.125 0.063 0.328l1.906 2.172 0.016 5.531c-1.344 3.906-2.516 7.141-2.516 7.141-0.734 2.094-1.344 3.906-1.875 4.156-0.641 0.328-1.109 0.25-1.609 0.016-0.656-0.297-0.844-1.094-0.797-1.563 0 0 0.031-0.25 3.078-9.656l0.078-6.5-1.328 2.562 0.547 3.469c0.203 1.313-0.906 1.484-0.906 1.484-1.062 0.172-1.281-1.062-1.281-1.094l-0.719-4.672c3.281-5.922 3.297-5.953 3.297-5.953v0c0.25-0.375 0.812-0.531 1.766-0.531 0.844 0 1.375 0.25 1.672 0.625v0l6.625 8.141c0.094 0.063 0.156 0.156 0.219 0.266l0.047 0.047-0.016 0.016c0.078 0.141 0.109 0.297 0.109 0.453zM8.031 17.234c1.5 3.984 2.844 7 2.844 7 0.453 1.156 1.234 2.812 0.094 3.469-1.125 0.656-2.031-0.109-2.281-0.641v0h-0.016c-0.047-0.125-0.094-0.25-0.125-0.391l-1.937-5.484zM20.906 26.484c0.328 0.516 0.609 0.891 0.438 1-0.297 0.187-0.391-0.359-0.719-0.891 0 0-1.766-2.672-6.609-10.328 0.094 0.031 0.266-0.109 0.266-0.109s0.172-0.141 0.172-0.266c4.813 7.859 6.453 10.594 6.453 10.594z"></path>
</svg>
