<!-- Generated by IcoMoon.io -->
<svg version="1.1" xmlns="http://www.w3.org/2000/svg" width="34" height="28" viewBox="0 0 34 28">
<title>braille</title>
<path d="M3 18.5c-1.375 0-2.5 1.125-2.5 2.5s1.125 2.5 2.5 2.5 2.5-1.125 2.5-2.5-1.125-2.5-2.5-2.5zM11 18.5c-1.375 0-2.5 1.125-2.5 2.5s1.125 2.5 2.5 2.5 2.5-1.125 2.5-2.5-1.125-2.5-2.5-2.5zM11 10.5c-1.375 0-2.5 1.125-2.5 2.5s1.125 2.5 2.5 2.5 2.5-1.125 2.5-2.5-1.125-2.5-2.5-2.5zM23 18.5c-1.375 0-2.5 1.125-2.5 2.5s1.125 2.5 2.5 2.5 2.5-1.125 2.5-2.5-1.125-2.5-2.5-2.5zM31 18.5c-1.375 0-2.5 1.125-2.5 2.5s1.125 2.5 2.5 2.5 2.5-1.125 2.5-2.5-1.125-2.5-2.5-2.5zM23 10.5c-1.375 0-2.5 1.125-2.5 2.5s1.125 2.5 2.5 2.5 2.5-1.125 2.5-2.5-1.125-2.5-2.5-2.5zM31 10.5c-1.375 0-2.5 1.125-2.5 2.5s1.125 2.5 2.5 2.5 2.5-1.125 2.5-2.5-1.125-2.5-2.5-2.5zM31 2.5c-1.375 0-2.5 1.125-2.5 2.5s1.125 2.5 2.5 2.5 2.5-1.125 2.5-2.5-1.125-2.5-2.5-2.5zM6 21c0 1.656-1.344 3-3 3s-3-1.344-3-3 1.344-3 3-3v0c1.656 0 3 1.344 3 3zM14 21c0 1.656-1.344 3-3 3s-3-1.344-3-3 1.344-3 3-3v0c1.656 0 3 1.344 3 3zM6 13c0 1.656-1.344 3-3 3s-3-1.344-3-3 1.344-3 3-3 3 1.344 3 3zM14 13c0 1.656-1.344 3-3 3s-3-1.344-3-3 1.344-3 3-3v0c1.656 0 3 1.344 3 3zM6 5c0 1.656-1.344 3-3 3s-3-1.344-3-3 1.344-3 3-3 3 1.344 3 3zM26 21c0 1.656-1.344 3-3 3s-3-1.344-3-3 1.344-3 3-3v0c1.656 0 3 1.344 3 3zM14 5c0 1.656-1.344 3-3 3s-3-1.344-3-3 1.344-3 3-3 3 1.344 3 3zM34 21c0 1.656-1.344 3-3 3s-3-1.344-3-3 1.344-3 3-3v0c1.656 0 3 1.344 3 3zM26 13c0 1.656-1.344 3-3 3s-3-1.344-3-3 1.344-3 3-3v0c1.656 0 3 1.344 3 3zM34 13c0 1.656-1.344 3-3 3s-3-1.344-3-3 1.344-3 3-3v0c1.656 0 3 1.344 3 3zM26 5c0 1.656-1.344 3-3 3s-3-1.344-3-3 1.344-3 3-3 3 1.344 3 3zM34 5c0 1.656-1.344 3-3 3s-3-1.344-3-3 1.344-3 3-3v0c1.656 0 3 1.344 3 3z"></path>
</svg>
