<!-- Generated by IcoMoon.io -->
<svg version="1.1" xmlns="http://www.w3.org/2000/svg" width="24" height="28" viewBox="0 0 24 28">
<title>caret-square-o-left</title>
<path d="M16 9v10c0 0.547-0.453 1-1 1-0.203 0-0.406-0.063-0.578-0.187l-7-5c-0.266-0.187-0.422-0.484-0.422-0.812 0-0.313 0.156-0.625 0.422-0.812l7-5c0.172-0.125 0.375-0.187 0.578-0.187 0.547 0 1 0.453 1 1zM20 21.5v-15c0-0.266-0.234-0.5-0.5-0.5h-15c-0.266 0-0.5 0.234-0.5 0.5v15c0 0.266 0.234 0.5 0.5 0.5h15c0.266 0 0.5-0.234 0.5-0.5zM24 6.5v15c0 2.484-2.016 4.5-4.5 4.5h-15c-2.484 0-4.5-2.016-4.5-4.5v-15c0-2.484 2.016-4.5 4.5-4.5h15c2.484 0 4.5 2.016 4.5 4.5z"></path>
</svg>
