<!-- Generated by IcoMoon.io -->
<svg version="1.1" xmlns="http://www.w3.org/2000/svg" width="36" height="28" viewBox="0 0 36 28">
<title>cc-jcb</title>
<path d="M30.484 15.594c0 0.562-0.375 0.969-0.844 1.062-0.063 0.016-0.203 0.031-0.281 0.031h-2.391v-2.188h2.391c0.078 0 0.219 0.016 0.281 0.031 0.469 0.094 0.844 0.516 0.844 1.062zM30.203 12.266c0 0.547-0.375 0.906-0.828 0.984-0.047 0.016-0.156 0.016-0.234 0.016h-2.172v-2.016h2.172c0.078 0 0.187 0.016 0.234 0.016 0.453 0.078 0.828 0.453 0.828 1zM11.375 14.828v-4.813h-3.563v4.813c0 1.172-0.797 2.047-2.234 2.047-1.219 0-2.422-0.359-3.578-0.922v1.75c1.875 0.516 4.25 0.516 4.25 0.516 3.969 0 5.125-1.516 5.125-3.391zM22.531 17.703v-1.766c-0.812 0.422-1.844 0.828-3.125 0.922-2.25 0.172-3.594-0.922-3.594-2.859s1.344-3.031 3.594-2.859c1.281 0.094 2.297 0.484 3.125 0.906v-1.75c-1.672-0.422-3.25-0.484-3.25-0.484-5.5-0.25-7.063 1.922-7.063 4.188s1.563 4.438 7.063 4.188c0 0 1.578-0.063 3.25-0.484zM34 15.906c0-1.156-1.031-1.906-2.375-2v-0.047c1.219-0.172 1.891-0.969 1.891-1.891 0-1.188-0.984-1.875-2.312-1.937-0.094 0-0.266-0.016-0.406-0.016h-7.109v7.969h7.672c1.516 0 2.641-0.812 2.641-2.078zM36 4v20c0 1.094-0.906 2-2 2h-32c-1.094 0-2-0.906-2-2v-20c0-1.094 0.906-2 2-2h32c1.094 0 2 0.906 2 2z"></path>
</svg>
