<!-- Generated by IcoMoon.io -->
<svg version="1.1" xmlns="http://www.w3.org/2000/svg" width="24" height="28" viewBox="0 0 24 28">
<title>certificate</title>
<path d="M21.5 14l2.156 2.109c0.297 0.281 0.406 0.703 0.313 1.094-0.109 0.391-0.422 0.703-0.812 0.797l-2.938 0.75 0.828 2.906c0.109 0.391 0 0.812-0.297 1.094-0.281 0.297-0.703 0.406-1.094 0.297l-2.906-0.828-0.75 2.938c-0.094 0.391-0.406 0.703-0.797 0.812-0.094 0.016-0.203 0.031-0.297 0.031-0.297 0-0.594-0.125-0.797-0.344l-2.109-2.156-2.109 2.156c-0.281 0.297-0.703 0.406-1.094 0.313-0.406-0.109-0.703-0.422-0.797-0.812l-0.75-2.938-2.906 0.828c-0.391 0.109-0.812 0-1.094-0.297-0.297-0.281-0.406-0.703-0.297-1.094l0.828-2.906-2.938-0.75c-0.391-0.094-0.703-0.406-0.812-0.797-0.094-0.391 0.016-0.812 0.313-1.094l2.156-2.109-2.156-2.109c-0.297-0.281-0.406-0.703-0.313-1.094 0.109-0.391 0.422-0.703 0.812-0.797l2.938-0.75-0.828-2.906c-0.109-0.391 0-0.812 0.297-1.094 0.281-0.297 0.703-0.406 1.094-0.297l2.906 0.828 0.75-2.938c0.094-0.391 0.406-0.703 0.797-0.797 0.391-0.109 0.812 0 1.094 0.297l2.109 2.172 2.109-2.172c0.281-0.297 0.688-0.406 1.094-0.297 0.391 0.094 0.703 0.406 0.797 0.797l0.75 2.938 2.906-0.828c0.391-0.109 0.812 0 1.094 0.297 0.297 0.281 0.406 0.703 0.297 1.094l-0.828 2.906 2.938 0.75c0.391 0.094 0.703 0.406 0.812 0.797 0.094 0.391-0.016 0.812-0.313 1.094z"></path>
</svg>
