<!-- Generated by IcoMoon.io -->
<svg version="1.1" xmlns="http://www.w3.org/2000/svg" width="20" height="28" viewBox="0 0 20 28">
<title>child</title>
<path d="M18.562 8.563l-4.562 4.562v12.875c0 0.969-0.781 1.75-1.75 1.75s-1.75-0.781-1.75-1.75v-6h-1v6c0 0.969-0.781 1.75-1.75 1.75s-1.75-0.781-1.75-1.75v-12.875l-4.562-4.562c-0.578-0.594-0.578-1.531 0-2.125 0.594-0.578 1.531-0.578 2.125 0l3.563 3.563h5.75l3.563-3.563c0.594-0.578 1.531-0.578 2.125 0 0.578 0.594 0.578 1.531 0 2.125zM13.5 6c0 1.937-1.563 3.5-3.5 3.5s-3.5-1.563-3.5-3.5 1.563-3.5 3.5-3.5 3.5 1.563 3.5 3.5z"></path>
</svg>
