<!-- Generated by IcoMoon.io -->
<svg version="1.1" xmlns="http://www.w3.org/2000/svg" width="30" height="28" viewBox="0 0 30 28">
<title>chrome</title>
<path d="M13.953 0c2.391-0.016 4.828 0.594 7.047 1.875 2.453 1.422 4.312 3.469 5.5 5.812l-11.594-0.609c-3.281-0.187-6.406 1.656-7.484 4.75l-4.312-6.625c2.688-3.344 6.719-5.187 10.844-5.203zM2.281 6.328l5.266 10.359c1.484 2.922 4.625 4.703 7.875 4.094l-3.594 7.047c-6.703-1.031-11.828-6.828-11.828-13.828 0-2.828 0.844-5.469 2.281-7.672zM27.062 8.969c2.453 6.312 0 13.656-6.062 17.156-2.453 1.422-5.156 2-7.781 1.859l6.328-9.734c1.797-2.766 1.766-6.375-0.375-8.875zM14 9.281c2.609 0 4.719 2.109 4.719 4.719s-2.109 4.719-4.719 4.719-4.719-2.109-4.719-4.719 2.109-4.719 4.719-4.719z"></path>
</svg>
