<!-- Generated by IcoMoon.io -->
<svg version="1.1" xmlns="http://www.w3.org/2000/svg" width="16" height="28" viewBox="0 0 16 28">
<title>cny</title>
<path d="M9.422 24h-2.688c-0.281 0-0.5-0.219-0.5-0.5v-5.156h-4.5c-0.281 0-0.5-0.219-0.5-0.5v-1.609c0-0.281 0.219-0.5 0.5-0.5h4.5v-1.328h-4.5c-0.281 0-0.5-0.219-0.5-0.5v-1.625c0-0.266 0.219-0.5 0.5-0.5h3.344l-5.016-9.031c-0.078-0.156-0.078-0.344 0-0.5 0.094-0.156 0.266-0.25 0.438-0.25h3.031c0.187 0 0.359 0.109 0.453 0.281l3.359 6.641c0.375 0.734 0.625 1.359 0.875 1.953 0.266-0.672 0.609-1.328 0.906-2.016l2.984-6.562c0.078-0.187 0.266-0.297 0.453-0.297h2.984c0.172 0 0.328 0.094 0.422 0.25 0.094 0.141 0.094 0.328 0.016 0.484l-4.891 9.047h3.359c0.281 0 0.5 0.234 0.5 0.5v1.625c0 0.281-0.219 0.5-0.5 0.5h-4.531v1.328h4.531c0.281 0 0.5 0.219 0.5 0.5v1.609c0 0.281-0.219 0.5-0.5 0.5h-4.531v5.156c0 0.281-0.234 0.5-0.5 0.5z"></path>
</svg>
