<!-- Generated by IcoMoon.io -->
<svg version="1.1" xmlns="http://www.w3.org/2000/svg" width="27" height="28" viewBox="0 0 27 28">
<title>codiepie</title>
<path d="M24.75 20.156l-3.406-1.734c-1.531 2.5-4.25 4.031-7.187 4.031-4.656 0-8.422-3.766-8.422-8.406 0-4.656 3.766-8.422 8.422-8.422 2.734 0 5.297 1.328 6.875 3.578l3.359-1.953c-2.297-3.531-6.188-5.641-10.391-5.641-6.844 0-12.391 5.547-12.391 12.391s5.547 12.391 12.391 12.391c4.438 0 8.547-2.375 10.75-6.234zM16.094 13.953l10.828 5.5c-2.375 5.187-7.141 8.547-12.922 8.547-7.734 0-14-6.266-14-14s6.266-14 14-14c5.5 0 10.031 3.031 12.594 7.812zM24.109 14h-0.609v2.5h-1.5v-5.5h2.125c1.734 0 1.891 3-0.016 3z"></path>
</svg>
