<!-- Generated by IcoMoon.io -->
<svg version="1.1" xmlns="http://www.w3.org/2000/svg" width="28" height="28" viewBox="0 0 28 28">
<title>contao</title>
<path d="M2.156 2h3.078c-0.734 0.672-1.391 1.453-1.969 2.328-2.422 3.734-1.437 7.828-0.5 12.234 0.766 3.578 1.406 6.984 3.641 9.438h-4.25c-1 0-1.813-0.812-1.813-1.813v-20.375c0-1 0.812-1.813 1.813-1.813zM21.031 2h4.813c1 0 1.813 0.812 1.813 1.813v20.375c0 1-0.812 1.813-1.813 1.813h-2.781c2.063-2.047 3.234-5.016 3.063-8.828l-7.328 1.578c-0.094 1.734-0.688 3.406-3.063 3.906-1.328 0.281-2.422-0.031-3.109-0.625-0.844-0.719-1.516-1.656-2.641-7-1.141-5.359-0.906-6.484-0.438-7.484 0.391-0.812 1.266-1.563 2.578-1.844 2.391-0.5 3.609 0.797 4.406 2.344l7.313-1.563c-0.719-1.844-1.672-3.344-2.812-4.484z"></path>
</svg>
