<!-- Generated by IcoMoon.io -->
<svg version="1.1" xmlns="http://www.w3.org/2000/svg" width="28" height="28" viewBox="0 0 28 28">
<title>creative-commons</title>
<path d="M9.453 19.266c2.562 0 3.953-1.563 4.016-1.625 0.125-0.156 0.156-0.391 0.047-0.562l-0.703-1.281c-0.063-0.141-0.219-0.234-0.375-0.266-0.156-0.016-0.313 0.047-0.422 0.172-0.016 0-1 1.047-2.438 1.047-1.578 0-2.719-1.156-2.719-2.766 0-1.594 1.109-2.734 2.656-2.734 1.297 0 2.156 0.875 2.156 0.875 0.109 0.109 0.25 0.172 0.406 0.156s0.297-0.094 0.375-0.219l0.828-1.219c0.125-0.187 0.109-0.438-0.031-0.609-0.047-0.063-1.313-1.5-3.797-1.5-3.078 0-5.375 2.266-5.375 5.266 0 3.047 2.25 5.266 5.375 5.266zM19.297 19.266c2.578 0 3.953-1.563 4.016-1.625 0.125-0.156 0.156-0.391 0.063-0.562l-0.703-1.281c-0.078-0.141-0.219-0.234-0.391-0.266-0.156-0.016-0.313 0.047-0.422 0.172-0.016 0-1 1.047-2.438 1.047-1.578 0-2.719-1.156-2.719-2.766 0-1.594 1.109-2.734 2.656-2.734 1.313 0 2.156 0.875 2.156 0.875 0.109 0.109 0.25 0.172 0.406 0.156s0.297-0.094 0.375-0.219l0.828-1.219c0.125-0.187 0.109-0.438-0.031-0.609-0.047-0.063-1.313-1.5-3.797-1.5-3.063 0-5.375 2.266-5.375 5.266 0 3.047 2.25 5.266 5.375 5.266zM14 2.5c-6.344 0-11.5 5.156-11.5 11.5s5.156 11.5 11.5 11.5 11.5-5.156 11.5-11.5-5.156-11.5-11.5-11.5zM14 0c7.734 0 14 6.266 14 14s-6.266 14-14 14-14-6.266-14-14 6.266-14 14-14z"></path>
</svg>
