<!-- Generated by IcoMoon.io -->
<svg version="1.1" xmlns="http://www.w3.org/2000/svg" width="28" height="28" viewBox="0 0 28 28">
<title>cut</title>
<path d="M15 14c0.547 0 1 0.453 1 1s-0.453 1-1 1-1-0.453-1-1 0.453-1 1-1zM19.688 15l7.922 6.219c0.281 0.203 0.422 0.547 0.391 0.875-0.047 0.344-0.25 0.641-0.547 0.797l-2 1c-0.141 0.078-0.297 0.109-0.453 0.109-0.172 0-0.344-0.047-0.484-0.125l-10.781-6.047-1.719 1.031c-0.063 0.031-0.125 0.063-0.187 0.078 0.141 0.484 0.203 1 0.156 1.516-0.141 1.609-1.219 3.141-2.938 4.234-1.328 0.844-2.859 1.313-4.328 1.313-1.406 0-2.594-0.422-3.469-1.219-0.891-0.828-1.344-2.016-1.234-3.234 0.141-1.594 1.219-3.141 2.922-4.234 1.328-0.844 2.875-1.313 4.344-1.313 0.875 0 1.672 0.172 2.359 0.484 0.094-0.141 0.203-0.25 0.344-0.344l1.906-1.141-1.906-1.141c-0.141-0.094-0.25-0.203-0.344-0.344-0.688 0.313-1.484 0.484-2.359 0.484-1.469 0-3.016-0.469-4.344-1.313-1.703-1.094-2.781-2.641-2.922-4.234-0.109-1.219 0.344-2.406 1.234-3.219 0.875-0.812 2.063-1.234 3.469-1.234 1.469 0 3 0.469 4.328 1.313 1.719 1.078 2.797 2.625 2.938 4.234 0.047 0.516-0.016 1.031-0.156 1.516 0.063 0.016 0.125 0.047 0.187 0.078l1.719 1.031 10.781-6.047c0.141-0.078 0.313-0.125 0.484-0.125 0.156 0 0.313 0.031 0.453 0.109l2 1c0.297 0.156 0.5 0.453 0.547 0.797 0.031 0.328-0.109 0.672-0.391 0.875zM9.047 10.938c0.953-0.875 0.359-2.453-1.328-3.516-0.953-0.609-2.063-0.922-3-0.922-0.719 0-1.359 0.187-1.766 0.562-0.953 0.875-0.359 2.453 1.328 3.516 0.953 0.609 2.047 0.922 3 0.922 0.719 0 1.359-0.187 1.766-0.562zM7.719 22.578c1.687-1.062 2.281-2.641 1.328-3.516-0.406-0.375-1.047-0.562-1.766-0.562-0.953 0-2.047 0.313-3 0.922-1.687 1.062-2.281 2.641-1.328 3.516 0.406 0.375 1.047 0.562 1.766 0.562 0.938 0 2.047-0.313 3-0.922zM10.5 13l1.5 0.906v-0.172c0-0.359 0.203-0.688 0.516-0.875l0.219-0.125-1.234-0.734-0.406 0.406c-0.125 0.125-0.219 0.25-0.344 0.359-0.047 0.047-0.078 0.063-0.109 0.094zM14 16.5l1.5 0.5 11.5-9-2-1-12 6.734v1.766l-2.5 1.5 0.141 0.125c0.031 0.047 0.063 0.063 0.109 0.094 0.125 0.125 0.219 0.25 0.344 0.375l0.406 0.406zM25 23l2-1-8.125-6.375-2.766 2.156c-0.047 0.063-0.125 0.078-0.203 0.109z"></path>
</svg>
