<!-- Generated by IcoMoon.io -->
<svg version="1.1" xmlns="http://www.w3.org/2000/svg" width="28" height="28" viewBox="0 0 28 28">
<title>deaf</title>
<path d="M16.5 13c0 0.547 0.453 1 1 1s1-0.453 1-1c0-3.031-2.469-5.5-5.5-5.5s-5.5 2.469-5.5 5.5c0 0.547 0.453 1 1 1s1-0.453 1-1c0-1.937 1.578-3.5 3.5-3.5s3.5 1.563 3.5 3.5zM13.047 4c-4.969 0-9 4.031-9 9 0 0.547 0.453 1 1 1s1-0.453 1-1c0-3.859 3.141-7 7-7s7 3.141 7 7c0 1.844-0.828 2.797-1.797 3.906-1.047 1.203-2.25 2.578-2.25 5.094 0 2.203-1.797 4-4 4-0.547 0-1 0.453-1 1s0.453 1 1 1c3.313 0 6-2.688 6-6 0-1.766 0.781-2.656 1.766-3.781 1.062-1.234 2.281-2.625 2.281-5.219 0-4.969-4.031-9-9-9zM9.234 15.234l3.531 3.531-9.047 9.047c-0.25 0.25-0.656 0.25-0.906 0l-2.625-2.625c-0.25-0.25-0.25-0.656 0-0.906zM25.188 0.187l2.625 2.625c0.25 0.25 0.25 0.656 0 0.922l-3.641 3.641-0.406 0.391-1.109 1.109c-0.672-1.563-1.703-2.938-3.047-4.031l4.656-4.656c0.266-0.25 0.672-0.25 0.922 0z"></path>
</svg>
