<!-- Generated by IcoMoon.io -->
<svg version="1.1" xmlns="http://www.w3.org/2000/svg" width="24" height="28" viewBox="0 0 24 28">
<title>drupal</title>
<path d="M18.234 24.781c-0.031-0.109-0.125-0.266-0.375-0.078-0.531 0.391-1.719 0.875-3.406 0.875s-2.484-0.359-3.016-0.766c-0.078-0.063-0.047-0.063-0.203-0.063-0.172 0-0.266 0.078-0.406 0.187-0.125 0.109-0.187 0.375 0 0.562 1.156 1.062 3.094 0.969 4.516 0.844 1.437-0.141 2.656-0.984 2.781-1.109 0.187-0.187 0.141-0.344 0.109-0.453zM17.625 22.984c-0.109-0.266-0.297-0.734-0.609-0.953-0.313-0.203-0.766-0.234-1.188-0.234s-0.656-0.031-1.109 0.156-0.922 0.609-1.219 0.875-0.344 0.469-0.187 0.688c0.156 0.203 0.328 0.078 0.766-0.297 0.453-0.359 0.75-0.688 1.672-0.688s1.078 0.344 1.266 0.688 0.203 0.391 0.391 0.297c0.219-0.109 0.328-0.266 0.219-0.531zM23.172 18.594c0-0.812-0.359-2.188-1.687-2.188-1.25 0-3.781 2.594-5.109 2.609-1.547 0.031-3.687-3.063-6.781-3.031-2.438 0.016-4.359 1.953-4.391 4.016-0.016 1.156 0.359 2.016 1.156 2.562 0.531 0.359 1.016 0.578 2.594 0.578 2.625 0 5.953-3.25 7.484-3.203 1.219 0.047 3.109 3.031 4.062 3.094 0.75 0.063 1.141-0.281 1.781-1.203 0.625-0.938 0.891-2.406 0.891-3.234zM24 16.094c0 7-5.531 11.625-11.891 11.625-6.375 0-12.109-5.016-12.109-11.844 0-6.813 5.313-9.969 6.297-10.484 1.172-0.625 2.016-0.953 3.344-2.016 0.656-0.516 1.203-1.266 1.375-3.094 0.953 1.141 2.094 2.469 2.906 3.016 1.328 0.875 2.656 1.219 4.047 2.094 0.844 0.516 6.031 3.687 6.031 10.703z"></path>
</svg>
