<!-- Generated by IcoMoon.io -->
<svg version="1.1" xmlns="http://www.w3.org/2000/svg" width="27" height="28" viewBox="0 0 27 28">
<title>eercast</title>
<path d="M20.953 12.25c0.547-0.844-0.094-2.984-2-4.25-1.891-1.266-4.312-1.172-4.875-0.328-0.547 0.828 0.625 0.297 2.766 1.094 3.531 1.313 3.563 4.328 4.109 3.484zM26.625 21.219c-4.422 10.875-24.344 8.125-23.922-5.984 0.047-1.797 0.547-3 1.062-4.719-3.297 13.5 15.094 21.359 22.641 10.703 0.281-0.391 0.359-0.359 0.219 0zM22.891 14.203c0 4.422-3.563 8.016-7.953 8.016s-7.953-3.594-7.953-8.016 3.563-8.016 7.953-8.016 7.953 3.594 7.953 8.016zM27.375 9.703c-5.563-12.625-28.531-7.969-25.984 9.203-5.281-17.203 16.484-25.094 24.531-12.844 0.656 1 1.406 2.75 1.453 3.641zM26.406 15.047c0.266-5.281-3.391-8.891-8.328-10.25-0.078 0-0.422-0.141 0.219-0.203 12.063 0.406 12.5 19.688-0.641 19.906 4.281-1.188 8.484-4.156 8.75-9.453z"></path>
</svg>
