<!-- Generated by IcoMoon.io -->
<svg version="1.1" xmlns="http://www.w3.org/2000/svg" width="28" height="28" viewBox="0 0 28 28">
<title>empire</title>
<path d="M13.656 25.594v1.031c-4.406-0.125-8.266-2.5-10.437-6.016l0.906-0.531c0.328 0.547 0.719 1.062 1.141 1.547l1.016-0.891c1.469 1.672 3.469 2.859 5.75 3.313l-0.266 1.344c0.609 0.109 1.25 0.187 1.891 0.203zM4.312 17.313l-1.297 0.438c0.219 0.609 0.469 1.188 0.766 1.75l-0.891 0.516c-0.969-1.781-1.531-3.844-1.531-6.016s0.562-4.234 1.531-6.016l0.891 0.516c-0.297 0.547-0.562 1.141-0.766 1.75l1.281 0.438c-0.359 1.031-0.547 2.156-0.547 3.313s0.203 2.281 0.562 3.313zM23.875 20.078l0.906 0.531c-2.172 3.516-6.031 5.891-10.437 6.016v-1.031c0.641-0.016 1.281-0.094 1.891-0.203l-0.266-1.344c2.281-0.453 4.281-1.641 5.75-3.313l1.016 0.891c0.422-0.484 0.812-1 1.141-1.547zM21.516 11.422l-3.641 1.25c0.141 0.422 0.219 0.859 0.219 1.328s-0.078 0.906-0.219 1.328l3.625 1.25c-0.328 0.984-0.859 1.875-1.531 2.641l-2.891-2.531c-0.578 0.672-1.375 1.141-2.297 1.328l0.75 3.766c-0.484 0.094-1 0.156-1.531 0.156s-1.047-0.063-1.531-0.156l0.75-3.766c-0.922-0.187-1.719-0.656-2.297-1.328l-2.891 2.531c-0.672-0.766-1.203-1.656-1.531-2.641l3.625-1.25c-0.141-0.422-0.219-0.859-0.219-1.328s0.078-0.906 0.219-1.328l-3.641-1.25c0.344-0.984 0.875-1.875 1.547-2.641l2.891 2.531c0.578-0.672 1.375-1.156 2.297-1.344l-0.75-3.75c0.484-0.109 1-0.156 1.531-0.156s1.047 0.047 1.531 0.156l-0.75 3.75c0.922 0.187 1.719 0.672 2.297 1.344l2.891-2.531c0.672 0.766 1.203 1.656 1.547 2.641zM13.656 1.375v1.031c-0.641 0.016-1.281 0.078-1.891 0.203l0.266 1.344c-2.281 0.437-4.281 1.625-5.75 3.297l-1.016-0.875c-0.422 0.469-0.797 0.984-1.141 1.531l-0.891-0.516c2.172-3.531 6.016-5.891 10.422-6.016v0zM26.641 14c0 2.172-0.562 4.234-1.531 6.016l-0.891-0.516c0.297-0.562 0.547-1.141 0.766-1.75l-1.297-0.438c0.359-1.031 0.562-2.156 0.562-3.313s-0.187-2.281-0.547-3.313l1.281-0.438c-0.203-0.609-0.469-1.203-0.766-1.75l0.891-0.516c0.969 1.781 1.531 3.844 1.531 6.016zM24.766 7.391l-0.891 0.516c-0.344-0.547-0.719-1.062-1.141-1.531l-1.016 0.875c-1.469-1.672-3.469-2.859-5.75-3.297l0.266-1.344c-0.609-0.125-1.25-0.187-1.891-0.203v-1.031c4.406 0.125 8.25 2.484 10.422 6.016zM27.312 14c0-7.344-5.969-13.312-13.312-13.312v0c-7.344 0-13.312 5.969-13.312 13.312s5.969 13.312 13.312 13.312 13.312-5.969 13.312-13.312zM28 14c0 7.734-6.266 14-14 14s-14-6.266-14-14 6.266-14 14-14v0c7.734 0 14 6.266 14 14z"></path>
</svg>
