<!-- Generated by IcoMoon.io -->
<svg version="1.1" xmlns="http://www.w3.org/2000/svg" width="30" height="28" viewBox="0 0 30 28">
<title>envira</title>
<path d="M14 12.75c-1.984-3.75-3.813-7.406-9.016-9.875-3.109-1.469-0.328 0.578-0.328 0.578 2.828 1.953 4.125 4.594 5.641 7.484 1.969 3.766 4.937 8.734 9.016 10.484 4.062 1.75 2.141 0.781 0.375-0.531-1.766-1.328-4.266-5.437-5.688-8.141zM8.578 21.234c-5.641-4.469-5.328-9.812-8.578-21.234 29.859 0 22.922 19.828 22.953 22.891l5.047 5.109h-1.625l-4.391-4.453c-2.438 0.266-7.781 2.156-13.406-2.312z"></path>
</svg>
