<!-- Generated by IcoMoon.io -->
<svg version="1.1" xmlns="http://www.w3.org/2000/svg" width="24" height="28" viewBox="0 0 24 28">
<title>etsy</title>
<path d="M8.094 2.859v10.234c3.625 0.031 5.531-0.156 5.531-0.156 1.469-0.047 1.687-0.422 2.031-1.859l0.516-2.219h1.609l-0.219 5.031 0.109 4.984h-1.609l-0.453-1.984c-0.328-1.484-0.969-1.844-2.016-1.859 0 0-1.344-0.125-5.5-0.125v8.687c0 1.625 0.891 2.391 2.766 2.391h5.578c1.875 0 3.563-0.187 4.719-2.859l1.453-3.375h1.391c-0.109 0.672-0.859 6.875-0.969 8.25-5.141-0.187-7.344-0.187-7.344-0.187h-9.812l-5.875 0.187v-1.594l1.984-0.391c1.391-0.266 1.813-0.672 1.828-1.813 0.094-3.781 0.125-10.047 0.125-10.047s0.047-6.281-0.125-10.078c-0.047-1.297-0.438-1.609-1.828-1.875l-1.984-0.375v-1.594l5.875 0.187h10.969s2.172 0 5.844-0.422c-0.219 2.391-0.484 7.906-0.484 7.906h-1.453l-0.5-1.937c-0.609-2.422-1.422-3.719-2.922-3.719h-8.563c-0.641 0-0.672 0.219-0.672 0.609z"></path>
</svg>
