<!-- Generated by IcoMoon.io -->
<svg version="1.1" xmlns="http://www.w3.org/2000/svg" width="28" height="28" viewBox="0 0 28 28">
<title>expeditedssl</title>
<path d="M14 1c-7.172 0-13 5.828-13 13s5.828 13 13 13 13-5.828 13-13-5.828-13-13-13zM14 0c7.734 0 14 6.266 14 14s-6.266 14-14 14-14-6.266-14-14 6.266-14 14-14zM7.75 13c0.141 0 0.25 0.109 0.25 0.25v7.5c0 0.141-0.109 0.25-0.25 0.25h-0.5c-0.141 0-0.25-0.109-0.25-0.25v-7.5c0-0.141 0.109-0.25 0.25-0.25h0.5zM14 14c1.109 0 2 0.891 2 2 0 0.734-0.406 1.375-1 1.719v1.781c0 0.281-0.219 0.5-0.5 0.5h-1c-0.281 0-0.5-0.219-0.5-0.5v-1.781c-0.594-0.344-1-0.984-1-1.719 0-1.109 0.891-2 2-2zM14 2c6.625 0 12 5.375 12 12s-5.375 12-12 12-12-5.375-12-12 5.375-12 12-12zM8.5 9.5v1.5c0 0.281 0.219 0.5 0.5 0.5h1c0.281 0 0.5-0.219 0.5-0.5v-1.5c0-1.937 1.563-3.5 3.5-3.5s3.5 1.563 3.5 3.5v1.5c0 0.281 0.219 0.5 0.5 0.5h1c0.281 0 0.5-0.219 0.5-0.5v-1.5c0-3.031-2.469-5.5-5.5-5.5s-5.5 2.469-5.5 5.5zM22 21v-8c0-0.547-0.453-1-1-1h-14c-0.547 0-1 0.453-1 1v8c0 0.547 0.453 1 1 1h14c0.547 0 1-0.453 1-1z"></path>
</svg>
