<!-- Generated by IcoMoon.io -->
<svg version="1.1" xmlns="http://www.w3.org/2000/svg" width="24" height="28" viewBox="0 0 24 28">
<title>external-link-square</title>
<path d="M20 14.5v-7.5c0-0.547-0.453-1-1-1h-7.5c-0.406 0-0.766 0.25-0.922 0.609-0.156 0.375-0.078 0.812 0.219 1.094l2.25 2.25-8.344 8.344c-0.391 0.391-0.391 1.016 0 1.406l1.594 1.594c0.391 0.391 1.016 0.391 1.406 0l8.344-8.344 2.25 2.25c0.187 0.203 0.438 0.297 0.703 0.297 0.125 0 0.266-0.031 0.391-0.078 0.359-0.156 0.609-0.516 0.609-0.922zM24 6.5v15c0 2.484-2.016 4.5-4.5 4.5h-15c-2.484 0-4.5-2.016-4.5-4.5v-15c0-2.484 2.016-4.5 4.5-4.5h15c2.484 0 4.5 2.016 4.5 4.5z"></path>
</svg>
