<!-- Generated by IcoMoon.io -->
<svg version="1.1" xmlns="http://www.w3.org/2000/svg" width="29" height="28" viewBox="0 0 29 28">
<title>eyedropper</title>
<path d="M26.531 1.469c1.953 1.953 1.969 5.125 0 7.063l-3.516 3.484 1.625 1.625c0.203 0.203 0.203 0.516 0 0.719l-3.281 3.281c-0.203 0.203-0.516 0.203-0.719 0l-1.641-1.641-9.422 9.422c-0.375 0.375-0.875 0.578-1.406 0.578h-3.172l-4 2-1-1 2-4v-3.172c0-0.531 0.203-1.031 0.578-1.406l9.422-9.422-1.641-1.641c-0.203-0.203-0.203-0.516 0-0.719l3.281-3.281c0.203-0.203 0.516-0.203 0.719 0l1.625 1.625 3.484-3.516c1.937-1.969 5.109-1.953 7.063 0zM8 23l9-9-3-3-9 9v3h3z"></path>
</svg>
