<!-- Generated by IcoMoon.io -->
<svg version="1.1" xmlns="http://www.w3.org/2000/svg" width="25" height="28" viewBox="0 0 25 28">
<title>fa</title>
<path d="M24 8v13.109c0 0.484-0.313 0.844-0.766 0.969-1.672 0.5-3.547 0.812-5.281 0.812-2.344 0-4.328-0.922-6.922-0.922-1.922 0-3.906 0.313-5.781 0.75v5.281h-2.5v-21.375c-1.313-0.516-2.172-1.797-2.172-3.203 0-1.891 1.531-3.422 3.422-3.422s3.422 1.531 3.422 3.422c0 1.406-0.859 2.688-2.172 3.203v1.062c1.75-0.406 3.563-0.688 5.359-0.688 1.031 0 2.063 0.078 3.094 0.234 1.344 0.203 2.703 0.672 4.078 0.672 0.859 0 1.734-0.109 2.578-0.281 0.641-0.125 2.109-0.625 2.641-0.625 0.547 0 1 0.453 1 1z"></path>
</svg>
