<!-- Generated by IcoMoon.io -->
<svg version="1.1" xmlns="http://www.w3.org/2000/svg" width="20" height="28" viewBox="0 0 20 28">
<title>female</title>
<path d="M20 16.5c0 0.828-0.672 1.5-1.5 1.5-0.5 0-0.969-0.25-1.25-0.672l-3.547-5.328h-0.703v2.063l3.859 6.422c0.094 0.156 0.141 0.328 0.141 0.516 0 0.547-0.453 1-1 1h-3v4.25c0 0.969-0.781 1.75-1.75 1.75h-2.5c-0.953 0-1.75-0.781-1.75-1.75v-4.25h-3c-0.547 0-1-0.453-1-1 0-0.187 0.047-0.359 0.141-0.516l3.859-6.422v-2.063h-0.703l-3.547 5.328c-0.281 0.422-0.75 0.672-1.25 0.672-0.828 0-1.5-0.672-1.5-1.5 0-0.297 0.094-0.594 0.25-0.828l4-6c0.625-0.922 1.594-1.672 2.75-1.672h6c1.156 0 2.125 0.75 2.75 1.672l4 6c0.156 0.234 0.25 0.531 0.25 0.828zM13.5 4c0 1.937-1.563 3.5-3.5 3.5s-3.5-1.563-3.5-3.5 1.563-3.5 3.5-3.5 3.5 1.563 3.5 3.5z"></path>
</svg>
