<!-- Generated by IcoMoon.io -->
<svg version="1.1" xmlns="http://www.w3.org/2000/svg" width="30" height="28" viewBox="0 0 30 28">
<title>fighter-jet</title>
<path d="M30 15c0 0 0 0.5-4.5 1.5l-5.5 0.5-3.5 1h-1l-4.578 5.5h1.078c0.547 0 1 0.109 1 0.25s-0.453 0.25-1 0.25h-5v-0.5h1v-6.5h-2.5l-3 3.5h-1.5l-0.5-0.5v-3h0.5v-0.5h2v-0.125l-3-0.375v-2l3-0.375v-0.125h-2v-0.5h-0.5v-3l0.5-0.5h1.5l3 3.5h2.5v-6.5h-1v-0.5h5c0.547 0 1 0.109 1 0.25s-0.453 0.25-1 0.25h-1.078l4.578 5.5h1l3.5 1 5.5 0.5c4.5 1 4.5 1.5 4.5 1.5z"></path>
</svg>
