<!-- Generated by IcoMoon.io -->
<svg version="1.1" xmlns="http://www.w3.org/2000/svg" width="24" height="28" viewBox="0 0 24 28">
<title>file-movie-o</title>
<path d="M22.937 5.938c0.578 0.578 1.062 1.734 1.062 2.562v18c0 0.828-0.672 1.5-1.5 1.5h-21c-0.828 0-1.5-0.672-1.5-1.5v-25c0-0.828 0.672-1.5 1.5-1.5h14c0.828 0 1.984 0.484 2.562 1.062zM16 2.125v5.875h5.875c-0.094-0.266-0.234-0.531-0.344-0.641l-4.891-4.891c-0.109-0.109-0.375-0.25-0.641-0.344zM22 26v-16h-6.5c-0.828 0-1.5-0.672-1.5-1.5v-6.5h-12v24h20zM12 12c1.094 0 2 0.906 2 2v6c0 1.094-0.906 2-2 2h-6c-1.094 0-2-0.906-2-2v-6c0-1.094 0.906-2 2-2h6zM19.688 12.031c0.187 0.078 0.313 0.266 0.313 0.469v9c0 0.203-0.125 0.391-0.313 0.469-0.063 0.016-0.125 0.031-0.187 0.031-0.125 0-0.266-0.047-0.359-0.141l-4.141-4.156v-1.406l4.141-4.156c0.094-0.094 0.234-0.141 0.359-0.141 0.063 0 0.125 0.016 0.187 0.031z"></path>
</svg>
