<!-- Generated by IcoMoon.io -->
<svg version="1.1" xmlns="http://www.w3.org/2000/svg" width="24" height="28" viewBox="0 0 24 28">
<title>file-audio-o</title>
<path d="M22.937 5.938c0.578 0.578 1.062 1.734 1.062 2.562v18c0 0.828-0.672 1.5-1.5 1.5h-21c-0.828 0-1.5-0.672-1.5-1.5v-25c0-0.828 0.672-1.5 1.5-1.5h14c0.828 0 1.984 0.484 2.562 1.062zM16 2.125v5.875h5.875c-0.094-0.266-0.234-0.531-0.344-0.641l-4.891-4.891c-0.109-0.109-0.375-0.25-0.641-0.344zM22 26v-16h-6.5c-0.828 0-1.5-0.672-1.5-1.5v-6.5h-12v24h20zM9.688 13.281c0.187 0.078 0.313 0.266 0.313 0.469v8.5c0 0.203-0.125 0.391-0.313 0.469-0.063 0.016-0.125 0.031-0.187 0.031-0.125 0-0.25-0.047-0.359-0.141l-2.594-2.609h-2.047c-0.281 0-0.5-0.219-0.5-0.5v-3c0-0.281 0.219-0.5 0.5-0.5h2.047l2.594-2.609c0.156-0.141 0.359-0.187 0.547-0.109zM16.203 24.047c0.297 0 0.578-0.125 0.781-0.375 1.297-1.594 2.016-3.609 2.016-5.672s-0.719-4.078-2.016-5.672c-0.344-0.438-0.984-0.5-1.406-0.156-0.438 0.359-0.5 0.984-0.141 1.422 1.016 1.25 1.563 2.781 1.563 4.406s-0.547 3.156-1.563 4.406c-0.359 0.438-0.297 1.062 0.141 1.406 0.187 0.156 0.406 0.234 0.625 0.234zM12.906 21.734c0.266 0 0.531-0.109 0.734-0.313 0.875-0.938 1.359-2.141 1.359-3.422s-0.484-2.484-1.359-3.422c-0.375-0.406-1.016-0.422-1.422-0.047-0.391 0.375-0.422 1.016-0.031 1.422 0.516 0.562 0.812 1.281 0.812 2.047s-0.297 1.484-0.812 2.047c-0.391 0.406-0.359 1.047 0.031 1.422 0.203 0.172 0.453 0.266 0.688 0.266z"></path>
</svg>
