<!-- Generated by IcoMoon.io -->
<svg version="1.1" xmlns="http://www.w3.org/2000/svg" width="24" height="28" viewBox="0 0 24 28">
<title>file-word-o</title>
<path d="M22.937 5.938c0.578 0.578 1.062 1.734 1.062 2.562v18c0 0.828-0.672 1.5-1.5 1.5h-21c-0.828 0-1.5-0.672-1.5-1.5v-25c0-0.828 0.672-1.5 1.5-1.5h14c0.828 0 1.984 0.484 2.562 1.062zM16 2.125v5.875h5.875c-0.094-0.266-0.234-0.531-0.344-0.641l-4.891-4.891c-0.109-0.109-0.375-0.25-0.641-0.344zM22 26v-16h-6.5c-0.828 0-1.5-0.672-1.5-1.5v-6.5h-12v24h20zM3.641 12v1.672h1.094l2.562 10.328h2.484l2-7.578c0.078-0.234 0.125-0.469 0.156-0.719 0.016-0.125 0.031-0.25 0.031-0.375h0.063l0.047 0.375c0.047 0.219 0.063 0.469 0.141 0.719l2 7.578h2.484l2.562-10.328h1.094v-1.672h-4.688v1.672h1.406l-1.547 6.844c-0.063 0.25-0.094 0.516-0.109 0.719l-0.031 0.328h-0.063c0-0.094-0.031-0.219-0.047-0.328-0.047-0.203-0.078-0.469-0.141-0.719l-2.25-8.516h-1.781l-2.25 8.516c-0.063 0.25-0.078 0.516-0.125 0.719l-0.063 0.328h-0.063l-0.031-0.328c-0.016-0.203-0.047-0.469-0.109-0.719l-1.547-6.844h1.406v-1.672h-4.688z"></path>
</svg>
