<!-- Generated by IcoMoon.io -->
<svg version="1.1" xmlns="http://www.w3.org/2000/svg" width="27" height="28" viewBox="0 0 27 28">
<title>firefox</title>
<path d="M14.109 28c-6.031 0-10.828-3.531-13.031-8.578-2.469-5.609-0.5-14.594 3.891-18.562l-0.172 4.391c0.219-0.281 1.891-0.359 2.156 0 0.906-1.734 3.828-3.031 6.172-3.078-0.891 0.75-2.953 3.484-2.781 4.875 1.141 0.359 2.891 0.375 3.813 0.438 0.281 0.156 0.234 1.109-0.328 1.891 0 0-0.734 1.016-2.719 1.375l0.234 2.953-2.172-1.047c-0.703 1.781 0.984 3.359 2.734 3.063 1.937-0.328 2.625-1.594 3.984-1.516 1.344 0.078 1.875 0.828 1.703 1.531 0 0-0.219 0.844-1.672 0.703-1.234 1.953-2.875 2.812-5.531 2.578 4.031 3.344 9.469 0.313 10.844-2.422 1.375-2.719 0.172-6.766-1.203-7.906 1.625 0.703 2.75 1.422 3.344 3 0.313-3.5-1.297-7.469-4.172-9.797 5.406 1.578 8.703 5.766 8.797 12.453s-5.922 13.656-13.891 13.656z"></path>
</svg>
