<!-- Generated by IcoMoon.io -->
<svg version="1.1" xmlns="http://www.w3.org/2000/svg" width="22" height="28" viewBox="0 0 22 28">
<title>fire</title>
<path d="M22 26.5v1c0 0.266-0.234 0.5-0.5 0.5h-21c-0.266 0-0.5-0.234-0.5-0.5v-1c0-0.266 0.234-0.5 0.5-0.5h21c0.266 0 0.5 0.234 0.5 0.5zM18 10c0 5.984-7 6.516-7 10.5 0 1.094 0.547 2.547 1.047 3.5l-0.063-0.016 0.016 0.016c-4.312-1.984-8-4.719-8-10 0-5.984 7-6.516 7-10.5 0-1.094-0.547-2.547-1.031-3.5l0.047 0.016-0.016-0.016c4.312 1.984 8 4.719 8 10z"></path>
</svg>
