<!-- Generated by IcoMoon.io -->
<svg version="1.1" xmlns="http://www.w3.org/2000/svg" width="22" height="28" viewBox="0 0 22 28">
<title>fire-extinguisher</title>
<path d="M8 3c0-0.547-0.453-1-1-1s-1 0.453-1 1 0.453 1 1 1 1-0.453 1-1zM22 2.5v5c0 0.156-0.063 0.297-0.187 0.391-0.094 0.078-0.203 0.109-0.313 0.109-0.031 0-0.063 0-0.109-0.016l-7-1.5c-0.219-0.047-0.391-0.25-0.391-0.484h-4v1.594c2.281 0.469 4 2.484 4 4.906v12.5c0 0.547-0.453 1-1 1h-8c-0.547 0-1-0.453-1-1v-12.5c0-2.234 1.469-4.141 3.5-4.766v-1.734h-0.5c-3.313 0-5.094 3.422-5.109 3.453-0.172 0.344-0.531 0.547-0.891 0.547-0.156 0-0.313-0.031-0.453-0.109-0.484-0.25-0.688-0.844-0.438-1.344 0.078-0.156 1.641-3.187 4.781-4.203-0.234-0.391-0.391-0.844-0.391-1.344 0-1.375 1.125-2.5 2.5-2.5s2.5 1.125 2.5 2.5c0 0.359-0.078 0.688-0.219 1h4.719c0-0.234 0.172-0.438 0.391-0.484l7-1.5c0.047-0.016 0.078-0.016 0.109-0.016 0.109 0 0.219 0.031 0.313 0.109 0.125 0.094 0.187 0.234 0.187 0.391z"></path>
</svg>
