<!-- Generated by IcoMoon.io -->
<svg version="1.1" xmlns="http://www.w3.org/2000/svg" width="24" height="28" viewBox="0 0 24 28">
<title>first-order</title>
<path d="M20.656 14c0 0.406-0.016 0.797-0.078 1.188l-3.687-0.219 3.5 1.219c-0.203 0.797-0.516 1.531-0.906 2.203l-3.344-1.609 2.766 2.469c-0.469 0.641-1.031 1.203-1.672 1.687l-2.453-2.781 1.609 3.359c-0.672 0.406-1.406 0.703-2.188 0.922l-1.234-3.563 0.219 3.75c-0.391 0.063-0.781 0.094-1.188 0.094-0.391 0-0.797-0.031-1.188-0.094l0.219-3.719-1.219 3.531c-0.781-0.203-1.516-0.516-2.188-0.922l1.609-3.359-2.453 2.781c-0.641-0.469-1.203-1.047-1.687-1.687l2.781-2.469-3.344 1.625c-0.391-0.688-0.703-1.422-0.906-2.203l3.5-1.234-3.703 0.219c-0.047-0.391-0.078-0.781-0.078-1.188s0.031-0.812 0.078-1.203l3.719 0.219-3.516-1.234c0.203-0.781 0.516-1.516 0.906-2.188l3.344 1.625-2.766-2.484c0.484-0.641 1.047-1.203 1.672-1.687l2.469 2.781-1.609-3.359c0.672-0.391 1.406-0.703 2.188-0.906l1.203 3.5-0.203-3.687c0.375-0.063 0.781-0.094 1.172-0.094 0.406 0 0.797 0.031 1.188 0.094l-0.219 3.703 1.219-3.516c0.781 0.203 1.516 0.516 2.188 0.922l-1.609 3.344 2.469-2.781c0.625 0.484 1.188 1.047 1.672 1.687l-2.766 2.484 3.328-1.625c0.406 0.672 0.703 1.422 0.906 2.203l-3.5 1.219 3.703-0.219c0.063 0.391 0.078 0.797 0.078 1.203zM21.125 14c0-5.078-4.094-9.188-9.125-9.188-5.047 0-9.125 4.109-9.125 9.188 0 5.063 4.078 9.172 9.125 9.172 5.031 0 9.125-4.109 9.125-9.172zM22.266 8.016v11.969l-10.266 5.984-10.266-5.984v-11.969l10.266-5.984zM12 26.859l11.062-6.438v-12.859l-11.062-6.422-11.062 6.422v12.859zM24 7v14l-12 7-12-7v-14l12-7z"></path>
</svg>
