<!-- Generated by IcoMoon.io -->
<svg version="1.1" xmlns="http://www.w3.org/2000/svg" width="24" height="28" viewBox="0 0 24 28">
<title>fonticons</title>
<path d="M0 2h24v24h-24v-24zM14.187 7l-0.187 0.516 1.172 1.297-0.484 1.781 0.391 0.391 1.672-0.891 1.672 0.891 0.391-0.391-0.484-1.781 1.172-1.297-0.187-0.516h-1.484l-0.828-1.5h-0.5l-0.828 1.5h-1.484zM10.016 9.547c0.641 0 0.891 0.234 0.875 1.234l2.719-0.328c0-2.391-1.641-2.828-3.469-2.828-2.719 0-4.141 1.094-4.141 3.75v1.125h-1.5v2h1.188c0.156 0 0.313 0 0.313 0.125v5.969c0 0.297-0.078 0.391-0.359 0.422l-1.141 0.109v1.375h7v-1.344l-2.328-0.219c-0.281-0.031-0.172-0.078-0.172-0.391v-6.047h2.984l0.594-2h-3.609c-0.156 0 0.031-0.109 0.031-0.234v-1.25c0-0.938 0.031-1.469 1.016-1.469zM19.5 22.5v-1.344l-0.844-0.141c-0.297-0.047-0.156-0.078-0.156-0.391v-8.125h-4.297l-0.359 1.578 1.297 0.344c0.203 0.063 0.359 0.203 0.359 0.422v5.781c0 0.297-0.125 0.359-0.406 0.391l-1.094 0.141v1.344h5.5z"></path>
</svg>
