<!-- Generated by IcoMoon.io -->
<svg version="1.1" xmlns="http://www.w3.org/2000/svg" width="26" height="28" viewBox="0 0 26 28">
<title>fort-awesome</title>
<path d="M10 15.75v-3.5c0-0.141-0.109-0.25-0.25-0.25h-1.5c-0.141 0-0.25 0.109-0.25 0.25v3.5c0 0.141 0.109 0.25 0.25 0.25h1.5c0.141 0 0.25-0.109 0.25-0.25zM18 15.75v-3.5c0-0.141-0.109-0.25-0.25-0.25h-1.5c-0.141 0-0.25 0.109-0.25 0.25v3.5c0 0.141 0.109 0.25 0.25 0.25h1.5c0.141 0 0.25-0.109 0.25-0.25zM26 16.25v11.75h-10v-5c0-1.656-1.344-3-3-3s-3 1.344-3 3v5h-10v-11.75c0-0.141 0.109-0.25 0.25-0.25h1.5c0.141 0 0.25 0.109 0.25 0.25v1.75h2v-9.75c0-0.141 0.109-0.25 0.25-0.25h1.5c0.141 0 0.25 0.109 0.25 0.25v1.75h2v-1.75c0-0.141 0.109-0.25 0.25-0.25h1.5c0.141 0 0.25 0.109 0.25 0.25v1.75h2v-1.75c0-0.328 0.438-0.25 0.641-0.25v-6.109c-0.297-0.141-0.5-0.453-0.5-0.781 0-0.469 0.391-0.859 0.859-0.859s0.859 0.391 0.859 0.859c0 0.328-0.203 0.641-0.5 0.781v0.266c0.422-0.094 0.859-0.156 1.297-0.156 0.641 0 1.25 0.234 1.781 0.234 0.484 0 1.031-0.234 1.313-0.234 0.141 0 0.25 0.109 0.25 0.25v3.281c0 0.375-1.266 0.438-1.516 0.438-0.578 0-1.125-0.234-1.719-0.234-0.469 0-0.953 0.078-1.406 0.187v2.078c0.203 0 0.641-0.078 0.641 0.25v1.75h2v-1.75c0-0.141 0.109-0.25 0.25-0.25h1.5c0.141 0 0.25 0.109 0.25 0.25v1.75h2v-1.75c0-0.141 0.109-0.25 0.25-0.25h1.5c0.141 0 0.25 0.109 0.25 0.25v9.75h2v-1.75c0-0.141 0.109-0.25 0.25-0.25h1.5c0.141 0 0.25 0.109 0.25 0.25z"></path>
</svg>
