<!-- Generated by IcoMoon.io -->
<svg version="1.1" xmlns="http://www.w3.org/2000/svg" width="24" height="28" viewBox="0 0 24 28">
<title>forumbee</title>
<path d="M14.594 2.344c-6.609 2.516-11.813 7.797-14.281 14.422-0.203-0.906-0.313-1.828-0.313-2.75 0-6.609 5.344-11.969 11.953-11.969 0.891 0 1.781 0.109 2.641 0.297zM18.797 4.203c0.969 0.672 1.828 1.484 2.562 2.422-8.094 2.359-14.422 8.719-16.734 16.828-0.922-0.719-1.75-1.563-2.422-2.531 2.328-8.031 8.578-14.344 16.594-16.719zM7.344 25.047c2.406-7.422 8.219-13.266 15.609-15.719 0.422 0.969 0.703 2 0.844 3.047-6.094 2.5-10.938 7.375-13.422 13.484-1.047-0.141-2.063-0.406-3.031-0.812zM24 25.953c-1.937-0.5-3.859-1.094-5.734-1.797-1.375 0.859-2.922 1.437-4.531 1.672 2.281-4.266 5.797-7.797 10.047-10.094-0.219 1.563-0.766 3.094-1.578 4.438 0.703 1.891 1.297 3.828 1.797 5.781z"></path>
</svg>
