<!-- Generated by IcoMoon.io -->
<svg version="1.1" xmlns="http://www.w3.org/2000/svg" width="28" height="28" viewBox="0 0 28 28">
<title>gavel</title>
<path d="M27.672 24c0 0.531-0.219 1.047-0.578 1.406l-1.672 1.687c-0.375 0.359-0.891 0.578-1.422 0.578s-1.047-0.219-1.406-0.578l-5.672-5.688c-0.375-0.359-0.594-0.875-0.594-1.406 0-0.594 0.25-1.078 0.672-1.5l-4-4-1.969 1.969c-0.141 0.141-0.328 0.219-0.531 0.219s-0.391-0.078-0.531-0.219c0.469 0.469 0.906 0.812 0.906 1.531 0 0.406-0.156 0.766-0.438 1.062-0.531 0.562-1.094 1.313-1.937 1.313-0.391 0-0.781-0.156-1.062-0.438l-6.375-6.375c-0.281-0.281-0.438-0.672-0.438-1.062 0-0.844 0.75-1.406 1.313-1.937 0.297-0.281 0.656-0.438 1.062-0.438 0.719 0 1.062 0.438 1.531 0.906-0.141-0.141-0.219-0.328-0.219-0.531s0.078-0.391 0.219-0.531l5.437-5.437c0.141-0.141 0.328-0.219 0.531-0.219s0.391 0.078 0.531 0.219c-0.469-0.469-0.906-0.812-0.906-1.531 0-0.406 0.156-0.766 0.438-1.062 0.531-0.562 1.094-1.313 1.937-1.313 0.391 0 0.781 0.156 1.062 0.438l6.375 6.375c0.281 0.281 0.438 0.672 0.438 1.062 0 0.844-0.75 1.406-1.313 1.937-0.297 0.281-0.656 0.438-1.062 0.438-0.719 0-1.062-0.438-1.531-0.906 0.141 0.141 0.219 0.328 0.219 0.531s-0.078 0.391-0.219 0.531l-1.969 1.969 4 4c0.422-0.422 0.906-0.672 1.5-0.672 0.531 0 1.047 0.219 1.422 0.578l5.672 5.672c0.359 0.375 0.578 0.891 0.578 1.422z"></path>
</svg>
