<!-- Generated by IcoMoon.io -->
<svg version="1.1" xmlns="http://www.w3.org/2000/svg" width="16" height="28" viewBox="0 0 16 28">
<title>gbp</title>
<path d="M15.937 17.766v5.734c0 0.281-0.219 0.5-0.5 0.5h-14.938c-0.281 0-0.5-0.219-0.5-0.5v-2.344c0-0.266 0.219-0.5 0.5-0.5h1.516v-5.984h-1.484c-0.281 0-0.5-0.219-0.5-0.5v-2.047c0-0.281 0.219-0.5 0.5-0.5h1.484v-3.484c0-3.563 2.875-6.141 6.844-6.141 3.125 0 5.141 1.875 5.234 1.953 0.187 0.172 0.203 0.469 0.047 0.672l-1.609 1.984c-0.094 0.109-0.203 0.172-0.344 0.187-0.125 0.016-0.266-0.031-0.359-0.109-0.016-0.016-1.359-1.078-2.938-1.078-1.766 0-2.953 1.062-2.953 2.656v3.359h4.766c0.281 0 0.5 0.219 0.5 0.5v2.047c0 0.281-0.219 0.5-0.5 0.5h-4.766v5.922h6.469v-2.828c0-0.281 0.219-0.5 0.5-0.5h2.531c0.281 0 0.5 0.219 0.5 0.5z"></path>
</svg>
