<!-- Generated by IcoMoon.io -->
<svg version="1.1" xmlns="http://www.w3.org/2000/svg" width="24" height="28" viewBox="0 0 24 28">
<title>glide-g</title>
<path d="M11.625 4.766c0-0.828-0.078-1.547-1.078-1.547-0.422 0-0.844 0.141-1.219 0.359-2.359 1.297-3.328 4.656-3.328 7.187 0 1.687 0.578 3.938 2.641 3.938 0.469 0 1.062 0.125 1.188-0.422 0.5-2.406 1-4.828 1.5-7.234 0.156-0.75 0.297-1.516 0.297-2.281zM23.406 15.016c0 0.156-0.203 0.313-0.359 0.313l-0.094-0.016c-1.062-0.156-2-0.438-3.078-0.438-1.953 0-3.75 0.578-5.484 1.453-0.219 0.109-0.266 0.203-0.328 0.422-0.281 1.062-0.469 2.156-0.734 3.219-0.938 3.641-3.984 8.031-8.156 8.031-2.844 0-4.594-1.937-4.594-4.734 0-1.516 0.984-4.469 2.812-4.469 0.641 0 3.156 0.828 3.172 1.484-0.031 0.125-2.453 1.375-2.453 3.484 0 0.641 0.313 1.141 1.016 1.141 2.484 0 3.625-4.531 3.875-6.438v-0.141c0-0.125-0.5-0.063-0.594-0.063-4.703 0-7.453-2.625-7.453-7.359 0-4.469 2.906-9.922 7.672-10.75 0.547-0.094 1.094-0.141 1.656-0.141 3.781 0 5.844 1.766 5.844 5.625 0 2.609-0.891 5.016-1.266 7.562l0.047 0.047c1.687-0.953 3.469-1.859 5.469-1.859 0.203 0 0.641 0.125 0.828 0.203 0.406 0.156 2.203 2.984 2.203 3.422z"></path>
</svg>
