<!-- Generated by IcoMoon.io -->
<svg version="1.1" xmlns="http://www.w3.org/2000/svg" width="24" height="28" viewBox="0 0 24 28">
<title>glide</title>
<path d="M13.531 8.047c0 0.5-0.109 0.984-0.203 1.469-0.328 1.563-0.641 3.125-0.969 4.688-0.047 0.219-0.047 0.219-0.281 0.234-0.156 0.016-0.328 0.031-0.484 0.031-1.344 0-1.719-1.453-1.719-2.547 0-1.625 0.641-3.797 2.156-4.656 0.25-0.125 0.516-0.219 0.797-0.219 0.641 0 0.703 0.469 0.703 1zM21.125 14.672c0-0.281-1.156-2.109-1.422-2.219-0.125-0.047-0.391-0.125-0.531-0.125-1.281 0-2.438 0.578-3.531 1.203l-0.031-0.031c0.25-1.672 0.812-3.156 0.812-4.891 0-2.484-1.328-3.641-3.781-3.641-0.359 0-0.719 0.047-1.062 0.094-3.078 0.547-4.953 4.062-4.953 6.953 0 3.063 1.766 4.75 4.813 4.75 0.063 0 0.391-0.031 0.391 0.047 0 0.031 0 0.047-0.016 0.078-0.063 0.594-0.25 1.25-0.406 1.828-0.234 0.859-1.047 2.344-2.094 2.344-0.453 0-0.656-0.313-0.656-0.734 0-1.359 1.563-2.172 1.594-2.25 0-0.063-0.078-0.125-0.109-0.156-0.484-0.438-1.281-0.797-1.937-0.797-1.188 0-1.828 1.906-1.828 2.875 0 1.813 1.141 3.063 2.969 3.063 2.703 0 4.672-2.844 5.281-5.187 0.172-0.688 0.297-1.391 0.469-2.078 0.031-0.141 0.078-0.203 0.219-0.281 1.109-0.562 2.281-0.938 3.547-0.938 0.688 0 1.297 0.125 1.984 0.281 0.016 0.016 0.047 0.016 0.063 0.016 0.094 0 0.219-0.109 0.219-0.203zM24 6.5v15c0 2.484-2.016 4.5-4.5 4.5h-15c-2.484 0-4.5-2.016-4.5-4.5v-15c0-2.484 2.016-4.5 4.5-4.5h15c2.484 0 4.5 2.016 4.5 4.5z"></path>
</svg>
