<!-- Generated by IcoMoon.io -->
<svg version="1.1" xmlns="http://www.w3.org/2000/svg" width="28" height="28" viewBox="0 0 28 28">
<title>google-wallet</title>
<path d="M6.891 10.5c0.313 0 0.625 0.156 0.812 0.406 2.734 3.734 4.641 7.734 5.656 12.094h-6.969c-1.25-4.344-3.094-8.313-5.734-11.703-0.25-0.328 0-0.797 0.406-0.797h5.828zM15.625 16.078c-0.516 2.109-1.172 4.156-1.953 6.141-0.828-3.266-2.156-6.328-4-9.281 0.406-2.266 0.641-4.594 0.688-7.016 2.203 3.547 3.953 6.922 5.266 10.156zM17.172 5c4.672 6.438 8.141 14.375 8.891 23h-7.047c-0.516-8.344-4.359-16.25-8.641-23h6.797zM28 14c0 4.344-0.594 8.906-1.578 12.688-0.688-5.781-2.594-11.531-5.609-16.922-0.266-3.156-0.828-6.219-1.656-9.125-0.078-0.328 0.156-0.641 0.484-0.641h5.609c0.438 0 0.844 0.297 0.953 0.719 1.188 4.219 1.797 8.687 1.797 13.281z"></path>
</svg>
