<!-- Generated by IcoMoon.io -->
<svg version="1.1" xmlns="http://www.w3.org/2000/svg" width="26" height="28" viewBox="0 0 26 28">
<title>hand-pointer-o</title>
<path d="M10 2c-1.109 0-2 0.891-2 2v14l-2.359-3.156c-0.391-0.516-1.016-0.844-1.672-0.844-1.094 0-1.969 0.922-1.969 2 0 0.438 0.141 0.859 0.406 1.203l6 8c0.375 0.5 0.969 0.797 1.594 0.797h11.219c0.453 0 0.859-0.313 0.969-0.75l1.437-5.75c0.25-1 0.375-2.016 0.375-3.031v-3.391c0-0.828-0.641-1.578-1.5-1.578-0.828 0-1.5 0.672-1.5 1.5h-0.5v-0.953c0-0.984-0.75-1.797-1.75-1.797-0.969 0-1.75 0.781-1.75 1.75v1h-0.5v-1.406c0-1.125-0.859-2.094-2-2.094-1.109 0-2 0.891-2 2v1.5h-0.5v-8.906c0-1.125-0.859-2.094-2-2.094zM10 0c2.234 0 4 1.875 4 4.094v3.437c0.172-0.016 0.328-0.031 0.5-0.031 1.016 0 1.969 0.391 2.703 1.078 0.484-0.219 1.016-0.328 1.547-0.328 1.125 0 2.172 0.5 2.875 1.359 0.297-0.078 0.578-0.109 0.875-0.109 1.969 0 3.5 1.641 3.5 3.578v3.391c0 1.172-0.141 2.359-0.438 3.516l-1.437 5.75c-0.328 1.328-1.531 2.266-2.906 2.266h-11.219c-1.25 0-2.453-0.609-3.203-1.594l-6-8c-0.516-0.688-0.797-1.547-0.797-2.406 0-2.188 1.781-4 3.969-4 0.719 0 1.422 0.187 2.031 0.547v-8.547c0-2.203 1.797-4 4-4zM12 22v-6h-0.5v6h0.5zM16 22v-6h-0.5v6h0.5zM20 22v-6h-0.5v6h0.5z"></path>
</svg>
