<!-- Generated by IcoMoon.io -->
<svg version="1.1" xmlns="http://www.w3.org/2000/svg" width="30" height="28" viewBox="0 0 30 28">
<title>hand-spock-o</title>
<path d="M7.172 28c-1.609 0-3-1.094-3.391-2.656l-1.578-6.266c-0.125-0.547-0.203-1.125-0.203-1.687 0-0.359 0-0.703-0.078-1.047l-1.813-7.453c-0.078-0.297-0.109-0.594-0.109-0.891 0-1.937 1.469-3.531 3.391-3.734 0.344-1.766 1.859-3.016 3.672-3.016 1.734 0 3.234 1.188 3.641 2.875l1.297 5.437 1.609-6.687c0.406-1.687 1.906-2.875 3.641-2.875 1.859 0 3.391 1.344 3.687 3.156 1.922 0.219 3.313 1.844 3.313 3.766 0 0.297-0.047 0.609-0.109 0.922l-1.922 8c1.25-0.938 2.156-1.844 3.797-1.844 2.172 0 3.984 1.766 3.984 3.953 0 1.313-0.641 2.531-1.672 3.313l-7.922 5.938c-0.688 0.516-1.531 0.797-2.391 0.797h-10.844zM17.25 2c-0.797 0-1.5 0.562-1.687 1.344l-2.562 10.656h-1.984l-2.266-9.406c-0.187-0.781-0.891-1.344-1.687-1.344-1 0-1.75 0.797-1.75 1.766 0 0.156 0.016 0.297 0.047 0.438l2.063 8.547h-0.406l-1.547-6.375c-0.187-0.766-0.891-1.375-1.703-1.375-0.969 0-1.766 0.781-1.766 1.75 0 0.141 0.016 0.281 0.047 0.406l1.813 7.469c0.219 0.906 0.063 1.813 0.297 2.719l1.563 6.266c0.172 0.672 0.766 1.141 1.453 1.141h10.844c0.422 0 0.844-0.141 1.188-0.406l7.922-5.922c0.531-0.406 0.875-1.047 0.875-1.719 0-1.094-0.906-1.953-1.984-1.953-0.438 0-0.859 0.141-1.203 0.406l-4.797 3.594v-3.547c0-0.125 2.016-8.406 2.172-9.078 0.031-0.141 0.063-0.297 0.063-0.453 0-0.969-0.734-1.797-1.734-1.797-0.812 0-1.516 0.562-1.703 1.344l-1.813 7.531h-0.406l2.344-9.75c0.031-0.141 0.047-0.297 0.047-0.438 0-0.984-0.719-1.813-1.734-1.813z"></path>
</svg>
