<!-- Generated by IcoMoon.io -->
<svg version="1.1" xmlns="http://www.w3.org/2000/svg" width="28" height="28" viewBox="0 0 28 28">
<title>hand-scissors-o</title>
<path d="M16.766 26h-2.766c-1.625 0-2.859-0.703-3.531-2.203-0.234-0.5-0.359-1.047-0.359-1.594v-0.078c-1.281-0.625-2.109-1.937-2.109-3.375 0-0.172 0-0.594 0.078-0.75h-4.078c-2.203 0-4-1.797-4-4s1.797-4 4-4h1.766l-0.688-0.266c-1.547-0.578-2.578-2.078-2.578-3.734 0-2.203 1.797-4 4-4 0.484 0 0.969 0.094 1.422 0.266l9.812 3.734h6.266c2.203 0 4 1.797 4 4v10.437c0 1.844-1.25 3.437-3.031 3.875l-5.297 1.328c-0.938 0.234-1.922 0.359-2.906 0.359zM16 14.891l-2.422 1.109-2.547 1.156c-0.625 0.281-1.031 0.906-1.031 1.594 0 0.969 0.781 1.75 1.75 1.75 0.25 0 0.5-0.047 0.719-0.156l5.281-2.406c-1.016-0.219-1.75-1.141-1.75-2.188v-0.859zM21 19.75c0-0.969-0.781-1.75-1.75-1.75-0.25 0-0.5 0.047-0.719 0.156l-4.531 2.063c-0.938 0.422-1.891 0.797-1.891 1.984 0 1.031 0.719 1.781 1.766 1.781 0.187 0 0.438-0.063 0.594-0.141l5.5-2.5c0.625-0.281 1.031-0.906 1.031-1.594zM17.375 8l-10.156-3.875c-0.234-0.078-0.469-0.125-0.719-0.125-1.094 0-2 0.891-2 2 0 0.828 0.516 1.578 1.281 1.875l8.219 3.125v1h-10c-1.109 0-2 0.891-2 2s0.891 2 2 2h8.359l3.641-1.656v-3.094c0-0.625 0.266-1.234 0.719-1.656l1.734-1.594h-1.078zM16.766 24c0.812 0 1.641-0.094 2.422-0.297l5.297-1.328c0.891-0.219 1.516-1.016 1.516-1.937v-10.437c0-1.109-0.891-2-2-2h-4.813l-2.125 1.969c-0.359 0.328-0.562 0.797-0.562 1.281v4.625c0 0.969 0.797 1.687 1.75 1.687 0.969 0 1.75-0.859 1.75-1.813v-3.25h0.5v3.25c0 0.703-0.344 1.359-0.891 1.781 1.094 0.172 1.891 1.125 1.891 2.219 0 0.875-0.516 1.687-1.313 2.047l-4.844 2.203h1.422z"></path>
</svg>
