<!-- Generated by IcoMoon.io -->
<svg version="1.1" xmlns="http://www.w3.org/2000/svg" width="24" height="28" viewBox="0 0 24 28">
<title>hdd-o</title>
<path d="M16.25 19c0 0.688-0.562 1.25-1.25 1.25s-1.25-0.562-1.25-1.25 0.562-1.25 1.25-1.25 1.25 0.562 1.25 1.25zM20.25 19c0 0.688-0.562 1.25-1.25 1.25s-1.25-0.562-1.25-1.25 0.562-1.25 1.25-1.25 1.25 0.562 1.25 1.25zM22 21.5v-5c0-0.266-0.234-0.5-0.5-0.5h-19c-0.266 0-0.5 0.234-0.5 0.5v5c0 0.266 0.234 0.5 0.5 0.5h19c0.266 0 0.5-0.234 0.5-0.5zM2.781 14h18.438l-2.453-7.531c-0.078-0.266-0.375-0.469-0.656-0.469h-12.219c-0.281 0-0.578 0.203-0.656 0.469zM24 16.5v5c0 1.375-1.125 2.5-2.5 2.5h-19c-1.375 0-2.5-1.125-2.5-2.5v-5c0-0.422 0.125-0.781 0.25-1.172l3.078-9.469c0.359-1.094 1.406-1.859 2.562-1.859h12.219c1.156 0 2.203 0.766 2.562 1.859l3.078 9.469c0.125 0.391 0.25 0.75 0.25 1.172z"></path>
</svg>
