<!-- Generated by IcoMoon.io -->
<svg version="1.1" xmlns="http://www.w3.org/2000/svg" width="26" height="28" viewBox="0 0 26 28">
<title>headphones</title>
<path d="M26 13.844c0 1.703-0.313 3.359-0.938 4.906l-0.313 0.766-2.891 0.516c-0.453 1.703-2 2.969-3.859 2.969v0.5c0 0.281-0.219 0.5-0.5 0.5h-1c-0.281 0-0.5-0.219-0.5-0.5v-9c0-0.281 0.219-0.5 0.5-0.5h1c0.281 0 0.5 0.219 0.5 0.5v0.5c1.5 0 2.797 0.828 3.484 2.047l1.062-0.187c0.297-0.969 0.453-1.969 0.453-3.016 0-4.719-4.672-8.844-10-8.844s-10 4.125-10 8.844c0 1.047 0.156 2.047 0.453 3.016l1.062 0.187c0.688-1.219 1.984-2.047 3.484-2.047v-0.5c0-0.281 0.219-0.5 0.5-0.5h1c0.281 0 0.5 0.219 0.5 0.5v9c0 0.281-0.219 0.5-0.5 0.5h-1c-0.281 0-0.5-0.219-0.5-0.5v-0.5c-1.859 0-3.406-1.266-3.859-2.969l-2.891-0.516-0.313-0.766c-0.625-1.547-0.938-3.203-0.938-4.906 0-6.422 5.953-11.844 13-11.844s13 5.422 13 11.844z"></path>
</svg>
