<!-- Generated by IcoMoon.io -->
<svg version="1.1" xmlns="http://www.w3.org/2000/svg" width="22" height="28" viewBox="0 0 22 28">
<title>ils</title>
<path d="M15.5 9.75v7.75c0 0.281-0.219 0.5-0.5 0.5h-2.5c-0.281 0-0.5-0.219-0.5-0.5v-7.75c0-2.344-1.906-4.25-4.25-4.25h-4.25v18c0 0.281-0.219 0.5-0.5 0.5h-2.5c-0.281 0-0.5-0.219-0.5-0.5v-21c0-0.281 0.219-0.5 0.5-0.5h7.25c4.281 0 7.75 3.469 7.75 7.75zM21.5 2.5v13.75c0 4.281-3.469 7.75-7.75 7.75h-7.25c-0.281 0-0.5-0.219-0.5-0.5v-15c0-0.281 0.219-0.5 0.5-0.5h2.5c0.281 0 0.5 0.219 0.5 0.5v12h4.25c2.344 0 4.25-1.906 4.25-4.25v-13.75c0-0.281 0.219-0.5 0.5-0.5h2.5c0.281 0 0.5 0.219 0.5 0.5z"></path>
</svg>
