<!-- Generated by IcoMoon.io -->
<svg version="1.1" xmlns="http://www.w3.org/2000/svg" width="24" height="28" viewBox="0 0 24 28">
<title>imdb</title>
<path d="M14.406 12.453v2.844c0 0.562 0.109 1.078-0.594 1.062v-4.828c0.688 0 0.594 0.359 0.594 0.922zM19.344 13.953v1.891c0 0.313 0.094 0.828-0.359 0.828-0.094 0-0.172-0.047-0.219-0.141-0.125-0.297-0.063-2.547-0.063-2.578 0-0.219-0.063-0.734 0.281-0.734 0.422 0 0.359 0.422 0.359 0.734zM2.812 17.641h1.906v-7.375h-1.906v7.375zM9.594 17.641h1.656v-7.375h-2.484l-0.438 3.453c-0.156-1.156-0.313-2.312-0.5-3.453h-2.469v7.375h1.672v-4.875l0.703 4.875h1.188l0.672-4.984v4.984zM16.234 12.875c0-0.469 0.016-0.969-0.078-1.406-0.25-1.297-1.813-1.203-2.828-1.203h-1.422v7.375c4.969 0 4.328 0.344 4.328-4.766zM21.187 15.953v-2.078c0-1-0.047-1.734-1.281-1.734-0.516 0-0.859 0.156-1.203 0.531v-2.406h-1.828v7.375h1.719l0.109-0.469c0.328 0.391 0.688 0.562 1.203 0.562 1.141 0 1.281-0.875 1.281-1.781zM24 4.5v19c0 1.375-1.125 2.5-2.5 2.5h-19c-1.375 0-2.5-1.125-2.5-2.5v-19c0-1.375 1.125-2.5 2.5-2.5h19c1.375 0 2.5 1.125 2.5 2.5z"></path>
</svg>
