<!-- Generated by IcoMoon.io -->
<svg version="1.1" xmlns="http://www.w3.org/2000/svg" width="24" height="28" viewBox="0 0 24 28">
<title>inbox</title>
<path d="M15.984 15h4.937c-0.031-0.078-0.047-0.172-0.078-0.25l-3.313-7.75h-11.062l-3.313 7.75c-0.031 0.078-0.047 0.172-0.078 0.25h4.937l1.484 3h5zM24 15.469v7.531c0 0.547-0.453 1-1 1h-22c-0.547 0-1-0.453-1-1v-7.531c0-0.562 0.172-1.391 0.391-1.922l3.719-8.625c0.219-0.516 0.844-0.922 1.391-0.922h13c0.547 0 1.172 0.406 1.391 0.922l3.719 8.625c0.219 0.531 0.391 1.359 0.391 1.922z"></path>
</svg>
