<!-- Generated by IcoMoon.io -->
<svg version="1.1" xmlns="http://www.w3.org/2000/svg" width="28" height="28" viewBox="0 0 28 28">
<title>indent</title>
<path d="M5.5 13c0 0.125-0.047 0.266-0.141 0.359l-4.5 4.5c-0.094 0.094-0.234 0.141-0.359 0.141-0.266 0-0.5-0.234-0.5-0.5v-9c0-0.266 0.234-0.5 0.5-0.5 0.125 0 0.266 0.047 0.359 0.141l4.5 4.5c0.094 0.094 0.141 0.234 0.141 0.359zM28 20.5v3c0 0.266-0.234 0.5-0.5 0.5h-27c-0.266 0-0.5-0.234-0.5-0.5v-3c0-0.266 0.234-0.5 0.5-0.5h27c0.266 0 0.5 0.234 0.5 0.5zM28 14.5v3c0 0.266-0.234 0.5-0.5 0.5h-17c-0.266 0-0.5-0.234-0.5-0.5v-3c0-0.266 0.234-0.5 0.5-0.5h17c0.266 0 0.5 0.234 0.5 0.5zM28 8.5v3c0 0.266-0.234 0.5-0.5 0.5h-17c-0.266 0-0.5-0.234-0.5-0.5v-3c0-0.266 0.234-0.5 0.5-0.5h17c0.266 0 0.5 0.234 0.5 0.5zM28 2.5v3c0 0.266-0.234 0.5-0.5 0.5h-27c-0.266 0-0.5-0.234-0.5-0.5v-3c0-0.266 0.234-0.5 0.5-0.5h27c0.266 0 0.5 0.234 0.5 0.5z"></path>
</svg>
