<!-- Generated by IcoMoon.io -->
<svg version="1.1" xmlns="http://www.w3.org/2000/svg" width="24" height="28" viewBox="0 0 24 28">
<title>joomla</title>
<path d="M16.719 16.766l-2.5 2.5-2.359 2.375-0.469 0.469c-1.375 1.359-3.297 1.828-5.047 1.391-0.328 1.437-1.609 2.5-3.141 2.5-1.766 0-3.203-1.437-3.203-3.219 0-1.516 1.047-2.797 2.469-3.125-0.453-1.766 0.016-3.703 1.391-5.078l0.187-0.187 2.359 2.375-0.172 0.172c-0.781 0.766-0.766 2.016 0 2.797 0.766 0.766 2.016 0.766 2.781 0l0.469-0.469 2.359-2.375 2.516-2.5zM11.391 6.109l0.187 0.187-2.375 2.375-0.187-0.187c-0.766-0.766-2.016-0.766-2.781 0s-0.766 2.031 0 2.797l5.328 5.328-2.359 2.375-2.516-2.5-2.359-2.375-0.469-0.469c-1.437-1.422-1.875-3.469-1.328-5.297-1.437-0.313-2.5-1.594-2.5-3.125 0-1.781 1.437-3.219 3.203-3.219 1.609 0 2.922 1.172 3.172 2.688 1.734-0.406 3.625 0.078 4.984 1.422zM24 22.781c0 1.781-1.437 3.219-3.203 3.219-1.563 0-2.859-1.109-3.156-2.578v0c-1.813 0.562-3.891 0.125-5.328-1.313l-0.172-0.187 2.359-2.375 0.187 0.187c0.766 0.766 2.016 0.766 2.781 0s0.766-2.016 0-2.781l-5.344-5.344 2.375-2.375 4.875 4.875 0.453 0.469c1.359 1.359 1.844 3.281 1.406 5.031 1.563 0.219 2.766 1.547 2.766 3.172zM23.969 5.219c0 1.625-1.219 2.969-2.781 3.187 0.516 1.797 0.063 3.813-1.359 5.234l-0.187 0.187-2.359-2.375 0.187-0.187c0.766-0.766 0.766-2.016 0-2.781s-2.016-0.766-2.781 0l-5.344 5.344-2.375-2.375 2.516-2.5 2.375-2.375 0.453-0.469c1.422-1.422 3.453-1.875 5.266-1.344 0.219-1.563 1.563-2.766 3.187-2.766 1.766 0 3.203 1.437 3.203 3.219z"></path>
</svg>
