<!-- Generated by IcoMoon.io -->
<svg version="1.1" xmlns="http://www.w3.org/2000/svg" width="28" height="28" viewBox="0 0 28 28">
<title>krw</title>
<path d="M8.031 18.672l1.266-4.672h-2.484l1.172 4.688c0.016 0.031 0.016 0.063 0.031 0.094 0-0.031 0.016-0.078 0.016-0.109zM9.844 12l0.547-2h-4.562l0.5 2h3.516zM12.844 12h2.172l-0.547-2h-1.094zM19.859 18.688l1.219-4.688h-2.531l1.266 4.672c0.016 0.047 0.016 0.078 0.031 0.109 0-0.031 0.016-0.063 0.016-0.094zM21.594 12l0.516-2h-4.641l0.531 2h3.594zM28 12.5v1c0 0.281-0.219 0.5-0.5 0.5h-3.328l-2.562 9.625c-0.063 0.219-0.266 0.375-0.484 0.375h-2.484c-0.219 0-0.422-0.156-0.484-0.375l-2.594-9.625h-3.266l-2.609 9.625c-0.063 0.219-0.25 0.375-0.484 0.375h-2.484c-0.219 0-0.422-0.156-0.469-0.375l-2.5-9.625h-3.25c-0.281 0-0.5-0.219-0.5-0.5v-1c0-0.281 0.219-0.5 0.5-0.5h2.734l-0.516-2h-2.219c-0.281 0-0.5-0.219-0.5-0.5v-1c0-0.281 0.219-0.5 0.5-0.5h1.703l-1.391-5.375c-0.047-0.156-0.016-0.313 0.078-0.438 0.094-0.109 0.25-0.187 0.406-0.187h2.141c0.234 0 0.438 0.156 0.484 0.375l1.406 5.625h5.609l1.516-5.625c0.063-0.219 0.266-0.375 0.484-0.375h1.969c0.234 0 0.422 0.156 0.484 0.375l1.531 5.625h5.703l1.453-5.625c0.047-0.219 0.25-0.375 0.484-0.375h2.141c0.156 0 0.313 0.078 0.406 0.187 0.094 0.125 0.125 0.297 0.078 0.438l-1.422 5.375h1.734c0.281 0 0.5 0.219 0.5 0.5v1c0 0.281-0.219 0.5-0.5 0.5h-2.266l-0.531 2h2.797c0.281 0 0.5 0.219 0.5 0.5z"></path>
</svg>
