<!-- Generated by IcoMoon.io -->
<svg version="1.1" xmlns="http://www.w3.org/2000/svg" width="28" height="28" viewBox="0 0 28 28">
<title>lastfm</title>
<path d="M20.188 11c0 0.094 0.125 0.531 0.156 0.641 0.422 1.281 1.406 1.547 2.578 1.875 2.609 0.734 5.078 2.125 5.078 5.187 0 3.109-2.594 5.297-5.625 5.297-5.031 0-6.594-6.156-8.047-9.906-1.203-3.094-2.469-4.906-5.953-4.906-3.094 0-5.812 2.969-5.812 6.016 0 3.234 2.422 6.234 5.781 6.234 1.484 0 3.031-0.313 4.031-1.484v0c0.484-0.547 0.953-1.141 1.297-1.813l1.313 2.375c-0.172 0.391-0.422 0.766-0.688 1.094l0.016 0.016c-1.578 1.828-3.734 2.375-6.062 2.375-4.719 0-8.25-4.172-8.25-8.766 0-4.453 3.875-8.594 8.375-8.594 7.469 0 7.844 6.469 10.375 11.672 0.688 1.437 1.859 3.125 3.641 3.125 1.625 0 3.063-1.047 3.063-2.766 0-3.719-6.828-1.188-7.797-7.297-0.031-0.172-0.047-0.344-0.047-0.516 0-2.312 2.172-4.297 4.469-4.219 1.375 0.047 2.203 0.094 3.297 1.062h-0.016c0.422 0.391 0.734 0.922 1.062 1.375l-2.016 1.547c-0.234-0.438-0.453-0.797-0.844-1.094v-0.016c-0.375-0.344-1.047-0.328-1.516-0.328-1.016 0-1.859 0.766-1.859 1.813z"></path>
</svg>
