<!-- Generated by IcoMoon.io -->
<svg version="1.1" xmlns="http://www.w3.org/2000/svg" width="24" height="28" viewBox="0 0 24 28">
<title>lastfm-square</title>
<path d="M22.375 16.438c0-2.203-1.781-3.203-3.656-3.734-0.859-0.234-1.563-0.438-1.875-1.375-0.016-0.078-0.094-0.375-0.094-0.438 0-0.75 0.594-1.297 1.328-1.297 0.344 0 0.828-0.016 1.109 0.234h-0.016c0.297 0.219 0.438 0.469 0.609 0.797l1.453-1.109c-0.234-0.328-0.469-0.719-0.766-1v0c-0.734-0.656-1.422-0.766-2.391-0.766-1.641 0-3.187 1.344-3.187 3.047 0 0.125 0.016 0.234 0.031 0.359 0.344 2.125 1.422 2.781 3.328 3.328 0.938 0.266 2.266 0.688 2.281 1.844v0.078c0.016 1.25-1.031 2-2.203 2-1.281 0-2.109-1.219-2.609-2.25-1.813-3.734-2.094-8.406-7.469-8.406-3.234 0-6.141 2.984-6.031 6.188v0.016c0.109 3.344 2.406 6.297 5.938 6.297 1.672 0 3.234-0.391 4.359-1.719v0c0.187-0.25 0.359-0.516 0.484-0.797l-0.938-1.703c-0.875 1.656-1.953 2.375-3.828 2.375-2.469 0-4.172-2.188-4.172-4.547 0-2.172 2-4.266 4.188-4.266 2.5 0 3.406 1.297 4.281 3.531 1.047 2.688 2.172 7.125 5.797 7.125 2.172 0 4.047-1.578 4.047-3.813zM24 6.5v15c0 2.484-2.016 4.5-4.5 4.5h-15c-2.484 0-4.5-2.016-4.5-4.5v-15c0-2.484 2.016-4.5 4.5-4.5h15c2.484 0 4.5 2.016 4.5 4.5z"></path>
</svg>
