<!-- Generated by IcoMoon.io -->
<svg version="1.1" xmlns="http://www.w3.org/2000/svg" width="28" height="28" viewBox="0 0 28 28">
<title>leaf</title>
<path d="M20 11c0-0.547-0.453-1-1-1-5.531 0-9.094 2.312-12.703 6.297-0.187 0.203-0.297 0.422-0.297 0.703 0 0.547 0.453 1 1 1 0.281 0 0.5-0.109 0.703-0.297 0.766-0.688 1.453-1.437 2.203-2.141 2.828-2.547 5.25-3.563 9.094-3.563 0.547 0 1-0.453 1-1zM28 7.906c0 1-0.109 2.016-0.313 3.016-1 4.859-4.125 8.016-8.469 10.172-2.109 1.062-4.469 1.687-6.844 1.687-1.5 0-3.047-0.25-4.469-0.734-0.75-0.25-2.25-1.234-2.875-1.234-0.781 0-1.719 3.187-3.078 3.187-0.984 0-1.281-0.484-1.703-1.203-0.141-0.266-0.25-0.359-0.25-0.688 0-1.625 3.094-2.891 3.094-3.797 0-0.141-0.406-0.969-0.469-1.281-0.094-0.531-0.141-1.078-0.141-1.625 0-4.969 3.953-8.516 8.391-9.984 3.203-1.062 10.016 0.172 12.187-1.891 0.859-0.797 1.281-1.531 2.594-1.531 1.766 0 2.344 4.578 2.344 5.906z"></path>
</svg>
