<!-- Generated by IcoMoon.io -->
<svg version="1.1" xmlns="http://www.w3.org/2000/svg" width="32" height="28" viewBox="0 0 32 28">
<title>leanpub</title>
<path d="M29.578 6.125l2.422 19.875c-1.453 0-2.703-0.297-4.016-0.891-1.953-0.891-3.984-1.422-6.141-1.422-2.219 0-4.266 0.734-5.844 2.312-1.578-1.578-3.625-2.312-5.844-2.312-2.156 0-4.188 0.531-6.141 1.422-1.266 0.562-2.547 0.891-3.938 0.891h-0.078l2.422-19.875c2.234-1.266 4.953-1.984 7.531-1.984 2.109 0 4.281 0.438 6.047 1.656 1.766-1.219 3.938-1.656 6.047-1.656 2.578 0 5.297 0.719 7.531 1.984zM21.844 21.547c2.969 0 5 0.797 7.688 1.906l-1.937-15.953c-1.75-0.797-3.828-1.219-5.75-1.219-2.188 0-4.234 0.688-5.844 2.203-1.609-1.516-3.656-2.203-5.844-2.203-1.922 0-4 0.422-5.75 1.219l-1.937 15.953c2.688-1.109 4.719-1.906 7.688-1.906 2.141 0 4.031 0.547 5.844 1.687 1.813-1.141 3.703-1.687 5.844-1.687zM22.469 21.016l-0.859-14.172c-2.25 0.047-4.031 0.812-5.609 2.422-1.641-1.672-3.5-2.422-5.844-2.422-1.75 0-3.625 0.359-5.25 1.031l-1.781 14.703c2.359-0.969 4.438-1.578 7.031-1.578 2.063 0 4.078 0.5 5.844 1.594 1.766-1.094 3.781-1.641 5.844-1.594z"></path>
</svg>
