<!-- Generated by IcoMoon.io -->
<svg version="1.1" xmlns="http://www.w3.org/2000/svg" width="24" height="28" viewBox="0 0 24 28">
<title>lemon-o</title>
<path d="M21.984 12.906c0-0.734-0.141-2.656-0.391-3.281-0.297-0.75-0.469-1.172-0.469-2.016 0-0.719 0.156-1.422 0.156-2.125 0-0.297-0.016-0.609-0.156-0.859-0.063-0.016-0.141-0.016-0.203-0.016-0.609 0-1.219 0.141-1.828 0.141-1.859 0-3.625-0.75-5.484-0.75-1.453 0-2.859 0.547-4.203 1.078-1.062 0.422-2.234 0.922-3.156 1.609-3.156 2.391-4.25 6.766-4.25 10.531 0 1.266 0.391 2.5 0.391 3.766 0 0.719-0.344 1.375-0.344 2.063 0 0.438 0.25 0.797 0.719 0.797 0.766 0 1.5-0.344 2.281-0.344 1.781 0 3.516 0.484 5.297 0.484 1.391 0 3.141-0.109 4.438-0.562 4.109-1.453 7.203-6.203 7.203-10.516zM23.984 12.875c0 5.203-3.609 10.687-8.547 12.437-1.547 0.547-3.469 0.688-5.094 0.688-1.781 0-3.531-0.453-5.297-0.453-0.75 0-1.5 0.453-2.281 0.453-1.547 0-2.719-1.391-2.719-2.875 0-0.734 0.344-1.391 0.344-2.109 0-1.266-0.391-2.5-0.391-3.781 0-4.438 1.359-9.344 5.047-12.141 1.062-0.812 2.391-1.391 3.625-1.875 1.594-0.641 3.203-1.219 4.937-1.219 1.859 0 3.625 0.75 5.453 0.75 0.594 0 1.188-0.156 1.797-0.156 1.781 0 2.422 1.266 2.422 2.891 0 0.703-0.156 1.422-0.156 2.125 0 0.562 0.141 0.781 0.328 1.281 0.359 0.906 0.531 2.984 0.531 3.984z"></path>
</svg>
