<!-- Generated by IcoMoon.io -->
<svg version="1.1" xmlns="http://www.w3.org/2000/svg" width="16" height="28" viewBox="0 0 16 28">
<title>level-up</title>
<path d="M15.906 9.422c-0.172 0.359-0.516 0.578-0.906 0.578h-3v13.5c0 0.281-0.219 0.5-0.5 0.5h-11c-0.187 0-0.375-0.109-0.453-0.281-0.078-0.187-0.063-0.391 0.063-0.547l2.5-3c0.094-0.109 0.25-0.172 0.391-0.172h5v-10h-3c-0.391 0-0.734-0.219-0.906-0.578-0.156-0.344-0.109-0.766 0.141-1.062l5-6c0.375-0.453 1.156-0.453 1.531 0l5 6c0.25 0.297 0.313 0.719 0.141 1.062z"></path>
</svg>
