<!-- Generated by IcoMoon.io -->
<svg version="1.1" xmlns="http://www.w3.org/2000/svg" width="16" height="28" viewBox="0 0 16 28">
<title>level-down</title>
<path d="M0.5 4h11c0.281 0 0.5 0.234 0.5 0.516v13.484h3c0.391 0 0.734 0.234 0.906 0.578 0.172 0.359 0.109 0.781-0.141 1.078l-5 6c-0.375 0.453-1.156 0.453-1.531 0l-5-6c-0.25-0.297-0.297-0.719-0.141-1.078 0.172-0.344 0.516-0.578 0.906-0.578h3v-10h-5c-0.141 0-0.281-0.063-0.391-0.172l-2.5-3c-0.125-0.141-0.141-0.359-0.063-0.531s0.266-0.297 0.453-0.297z"></path>
</svg>
