<!-- Generated by IcoMoon.io -->
<svg version="1.1" xmlns="http://www.w3.org/2000/svg" width="28" height="28" viewBox="0 0 28 28">
<title>life-bouy</title>
<path d="M14 0c7.734 0 14 6.266 14 14s-6.266 14-14 14-14-6.266-14-14 6.266-14 14-14zM14 2c-2.031 0-3.953 0.516-5.641 1.406l3.031 3.031c0.828-0.281 1.703-0.438 2.609-0.438 0.922 0 1.781 0.156 2.609 0.438l3.031-3.031c-1.687-0.891-3.609-1.406-5.641-1.406zM3.406 19.641l3.031-3.031c-0.281-0.828-0.438-1.703-0.438-2.609 0-0.922 0.156-1.781 0.438-2.609l-3.031-3.031c-0.891 1.687-1.406 3.609-1.406 5.641s0.516 3.953 1.406 5.641zM14 26c2.031 0 3.953-0.516 5.641-1.406l-3.031-3.031c-0.828 0.281-1.687 0.438-2.609 0.438-0.906 0-1.781-0.156-2.609-0.438l-3.031 3.031c1.687 0.891 3.609 1.406 5.641 1.406zM14 20c3.313 0 6-2.688 6-6s-2.688-6-6-6-6 2.688-6 6 2.688 6 6 6zM21.562 16.609l3.031 3.031c0.891-1.687 1.406-3.609 1.406-5.641s-0.516-3.953-1.406-5.641l-3.031 3.031c0.281 0.828 0.438 1.703 0.438 2.609s-0.156 1.781-0.438 2.609z"></path>
</svg>
