<!-- Generated by IcoMoon.io -->
<svg version="1.1" xmlns="http://www.w3.org/2000/svg" width="24" height="28" viewBox="0 0 24 28">
<title>linode</title>
<path d="M5.156 23.984l3.156 3.344-0.531-3.687-3.375-3.328zM8.687 27.516l4.281-3.406-0.172-3.828-4.688 3.359zM3.828 17.547l3.547 3.328-0.75-5.109-3.828-3.187zM7.734 21.047l4.953-3.344-0.219-5.063-5.5 3.125zM13.172 21.219l1.484 1.25-0.031-3.734-1.609-1.234c0 0.125 0.063 0.344-0.063 0.438l-1.219 0.812 1.328 1.094c0.156 0.125 0.109 1.188 0.109 1.375zM2.156 9.469l4 3.125-1.062-7.266-4.359-2.703zM18.328 19.828l0.234-3.656-3.594 2.562 0.031 3.75zM6.516 12.719l5.828-3.031-0.297-6.891-6.609 2.547zM19.844 18.422l0.313-3.641-3.531-2.219-0.031 1.641 2.25 1.484c0.047 0.031 0.078 0.094 0.063 0.141l-0.109 1.859zM22.828 16.25l0.469-3.469-2.797 2-0.313 3.563zM19.891 18.859l-1.109-0.766-0.125 1.828c0 0.047-0.016 0.094-0.063 0.125l-3.656 2.922c-0.063 0.047-0.156 0.047-0.219 0l-1.531-1.297 0.109 2.516c0 0.047-0.016 0.094-0.063 0.125l-4.578 3.656c-0.031 0.016-0.063 0.031-0.094 0.031-0.047-0.016-0.094-0.016-0.125-0.047l-3.563-3.781c-0.078-0.078-0.844-3.938-0.922-4.328-0.016-0.063 0.031-0.141 0.078-0.172l0.953-0.578c-0.187-0.172-1.453-1.281-1.484-1.437l-1.125-5.484c-0.016-0.063 0.016-0.141 0.094-0.187l1.469-0.703c-0.25-0.187-2.063-1.5-2.109-1.687l-1.5-7.281c-0.016-0.094 0.031-0.172 0.109-0.203l6.766-2.109c0.031 0 0.078 0 0.125 0.016l4.953 2.391c0.047 0.031 0.094 0.094 0.094 0.141l0.313 7.234c0 0.063-0.031 0.125-0.094 0.156l-1.844 0.953 1.969 1.328c0.047 0.016 0.078 0.078 0.078 0.125l0.078 1.922 1.891-1.156c0.047-0.031 0.125-0.031 0.172 0l1.313 0.875 0.047-1.719c0-0.047 0.031-0.109 0.078-0.141l3.219-1.969c0.063-0.031 0.125-0.031 0.172 0l3.828 2.109c0.031 0.031 0.063 0.063 0.078 0.109 0.031 0.109-0.484 3.625-0.531 3.984 0 0.047-0.031 0.094-0.063 0.109l-2.984 2.391c-0.063 0.047-0.141 0.047-0.203 0z"></path>
</svg>
