<!-- Generated by IcoMoon.io -->
<svg version="1.1" xmlns="http://www.w3.org/2000/svg" width="12" height="28" viewBox="0 0 12 28">
<title>long-arrow-down</title>
<path d="M11.953 20.297c0.078 0.187 0.047 0.391-0.078 0.547l-5.469 6c-0.094 0.094-0.219 0.156-0.359 0.156v0c-0.141 0-0.281-0.063-0.375-0.156l-5.547-6c-0.125-0.156-0.156-0.359-0.078-0.547 0.078-0.172 0.25-0.297 0.453-0.297h3.5v-19.5c0-0.281 0.219-0.5 0.5-0.5h3c0.281 0 0.5 0.219 0.5 0.5v19.5h3.5c0.203 0 0.375 0.109 0.453 0.297z"></path>
</svg>
