<!-- Generated by IcoMoon.io -->
<svg version="1.1" xmlns="http://www.w3.org/2000/svg" width="28" height="28" viewBox="0 0 28 28">
<title>low-vision</title>
<path d="M5.234 21.187c-0.031 0-0.063-0.016-0.094-0.031-1.828-1.219-3.656-3.219-4.813-5.078-0.219-0.313-0.328-0.688-0.328-1.078 0-0.812 0.562-1.469 1.016-2.078 1.813-2.469 4.234-4.5 7.063-5.703-0.234-0.422-1.719-3.016-1.719-3.297 0-0.187 0.109-0.359 0.266-0.453 0.313-0.172 1.719-1 2-1 0.172 0 0.344 0.094 0.438 0.25l1.937 3.578c0.984-0.203 2-0.297 3-0.297 5.656 0 10.687 3.203 13.687 7.922 0.203 0.313 0.313 0.688 0.313 1.078s-0.109 0.766-0.313 1.078c-1.859 2.922-4.578 5.344-7.766 6.703 0.234 0.422 1.719 3.016 1.719 3.297 0 0.187-0.094 0.359-0.266 0.453-0.313 0.172-1.719 1-1.984 1-0.187 0-0.359-0.094-0.453-0.25l-1.937-3.578-1-1.859-6.937-12.812 0.109-0.109c-0.531 0.219-1.047 0.453-1.547 0.734 0.187 0.359 7.641 14.047 7.641 14.156 0 0.078-0.063 0.125-0.141 0.141-0.344 0.078-0.781 0.047-1.125 0.047-0.172 0-0.875 0.031-0.938-0.109l-7.125-13.141c-0.453 0.328-0.875 0.688-1.281 1.062 0.344 0.609 6.312 11.594 6.312 11.688 0 0.125-0.078 0.156-0.172 0.156-0.266 0-2.344-0.641-2.422-0.781l-1.656-3.078-3.5-6.453c-0.438 0.531-0.844 1.078-1.219 1.656 0.203 0.297 0.469 0.609 0.641 0.922 0.219 0.406 2.75 5.016 2.75 5.109 0 0.078-0.078 0.156-0.156 0.156zM18.203 19.594l0.766 1.422c2.922-1.188 5.328-3.375 7.031-6.016-1.734-2.672-4.203-4.891-7.172-6.078 1.391 1.328 2.172 3.156 2.172 5.078 0 2.203-1.031 4.281-2.797 5.594zM13.25 10c0 0.406 0.344 0.75 0.75 0.75 0.859 0 1.687 0.344 2.297 0.953s0.953 1.437 0.953 2.297c0 0.406 0.344 0.75 0.75 0.75s0.75-0.344 0.75-0.75c0-2.625-2.125-4.75-4.75-4.75-0.406 0-0.75 0.344-0.75 0.75zM18.969 8.984l-0.141-0.063 0.109 0.109z"></path>
</svg>
