<!-- Generated by IcoMoon.io -->
<svg version="1.1" xmlns="http://www.w3.org/2000/svg" width="24" height="28" viewBox="0 0 24 28">
<title>magnet</title>
<path d="M24 13v2c0 6.375-5.047 11-12 11s-12-4.625-12-11v-2c0-0.547 0.453-1 1-1h6c0.547 0 1 0.453 1 1v2c0 2.859 3.328 3 4 3s4-0.141 4-3v-2c0-0.547 0.453-1 1-1h6c0.547 0 1 0.453 1 1zM8 3v6c0 0.547-0.453 1-1 1h-6c-0.547 0-1-0.453-1-1v-6c0-0.547 0.453-1 1-1h6c0.547 0 1 0.453 1 1zM24 3v6c0 0.547-0.453 1-1 1h-6c-0.547 0-1-0.453-1-1v-6c0-0.547 0.453-1 1-1h6c0.547 0 1 0.453 1 1z"></path>
</svg>
