<!-- Generated by IcoMoon.io -->
<svg version="1.1" xmlns="http://www.w3.org/2000/svg" width="28" height="28" viewBox="0 0 28 28">
<title>mail-reply-all</title>
<path d="M10 16.906v1.094c0 0.406-0.25 0.766-0.609 0.922-0.125 0.047-0.266 0.078-0.391 0.078-0.266 0-0.516-0.094-0.703-0.297l-8-8c-0.391-0.391-0.391-1.016 0-1.406l8-8c0.281-0.297 0.719-0.375 1.094-0.219 0.359 0.156 0.609 0.516 0.609 0.922v1.078l-6.203 6.219c-0.391 0.391-0.391 1.016 0 1.406zM28 17.5c0 3.25-2.453 8.031-2.562 8.234-0.078 0.172-0.25 0.266-0.438 0.266-0.047 0-0.094 0-0.141-0.016-0.234-0.078-0.375-0.297-0.359-0.531 0.453-4.266-0.078-7.078-1.656-8.828-1.328-1.484-3.484-2.281-6.844-2.547v3.922c0 0.406-0.25 0.766-0.609 0.922-0.125 0.047-0.266 0.078-0.391 0.078-0.266 0-0.516-0.094-0.703-0.297l-8-8c-0.391-0.391-0.391-1.016 0-1.406l8-8c0.281-0.297 0.719-0.375 1.094-0.219 0.359 0.156 0.609 0.516 0.609 0.922v4.094c4.312 0.297 7.391 1.437 9.359 3.453 2.359 2.422 2.641 5.703 2.641 7.953z"></path>
</svg>
