<!-- Generated by IcoMoon.io -->
<svg version="1.1" xmlns="http://www.w3.org/2000/svg" width="28" height="28" viewBox="0 0 28 28">
<title>mail-reply</title>
<path d="M28 17.5c0 2.188-1.094 5.047-1.984 7.047-0.172 0.359-0.344 0.859-0.578 1.188-0.109 0.156-0.219 0.266-0.438 0.266-0.313 0-0.5-0.25-0.5-0.547 0-0.25 0.063-0.531 0.078-0.781 0.047-0.641 0.078-1.281 0.078-1.922 0-7.453-4.422-8.75-11.156-8.75h-3.5v4c0 0.547-0.453 1-1 1-0.266 0-0.516-0.109-0.703-0.297l-8-8c-0.187-0.187-0.297-0.438-0.297-0.703s0.109-0.516 0.297-0.703l8-8c0.187-0.187 0.438-0.297 0.703-0.297 0.547 0 1 0.453 1 1v4h3.5c5.125 0 11.5 0.906 13.672 6.297 0.656 1.656 0.828 3.453 0.828 5.203z"></path>
</svg>
