<!-- Generated by IcoMoon.io -->
<svg version="1.1" xmlns="http://www.w3.org/2000/svg" width="16" height="28" viewBox="0 0 16 28">
<title>map-pin</title>
<path d="M8 17c0.688 0 1.359-0.078 2-0.234v10.234c0 0.547-0.453 1-1 1h-2c-0.547 0-1-0.453-1-1v-10.234c0.641 0.156 1.312 0.234 2 0.234zM8 0c4.422 0 8 3.578 8 8s-3.578 8-8 8-8-3.578-8-8 3.578-8 8-8zM8 3.5c0.281 0 0.5-0.219 0.5-0.5s-0.219-0.5-0.5-0.5c-3.031 0-5.5 2.469-5.5 5.5 0 0.281 0.219 0.5 0.5 0.5s0.5-0.219 0.5-0.5c0-2.484 2.016-4.5 4.5-4.5z"></path>
</svg>
