<!-- Generated by IcoMoon.io -->
<svg version="1.1" xmlns="http://www.w3.org/2000/svg" width="24" height="28" viewBox="0 0 24 28">
<title>mars-stroke</title>
<path d="M23 2c0.547 0 1 0.453 1 1v6.5c0 0.281-0.219 0.5-0.5 0.5h-1c-0.281 0-0.5-0.219-0.5-0.5v-4.094l-3.328 3.344 2.188 2.188c0.187 0.203 0.187 0.516 0 0.703l-0.719 0.719c-0.187 0.187-0.5 0.187-0.703 0l-2.188-2.203-1.219 1.234c1.234 1.531 1.969 3.484 1.969 5.609 0 4.969-4.031 9-9 9s-9-4.031-9-9 4.031-9 9-9c2.125 0 4.078 0.734 5.609 1.969l1.219-1.219-2.688-2.688c-0.187-0.203-0.187-0.516 0-0.703l0.719-0.719c0.187-0.187 0.5-0.187 0.703 0l2.688 2.688 3.328-3.328h-4.078c-0.281 0-0.5-0.219-0.5-0.5v-1c0-0.281 0.219-0.5 0.5-0.5h6.5zM9 24c3.859 0 7-3.141 7-7s-3.141-7-7-7-7 3.141-7 7 3.141 7 7 7z"></path>
</svg>
