<!-- Generated by IcoMoon.io -->
<svg version="1.1" xmlns="http://www.w3.org/2000/svg" width="24" height="28" viewBox="0 0 24 28">
<title>mars</title>
<path d="M23 2c0.547 0 1 0.453 1 1v6.5c0 0.281-0.219 0.5-0.5 0.5h-1c-0.281 0-0.5-0.219-0.5-0.5v-4.094l-5.969 5.984c1.234 1.531 1.969 3.484 1.969 5.609 0 4.969-4.031 9-9 9s-9-4.031-9-9 4.031-9 9-9c2.125 0 4.078 0.734 5.609 1.969l5.969-5.969h-4.078c-0.281 0-0.5-0.219-0.5-0.5v-1c0-0.281 0.219-0.5 0.5-0.5h6.5zM9 24c3.859 0 7-3.141 7-7s-3.141-7-7-7-7 3.141-7 7 3.141 7 7 7z"></path>
</svg>
