<!-- Generated by IcoMoon.io -->
<svg version="1.1" xmlns="http://www.w3.org/2000/svg" width="18" height="28" viewBox="0 0 18 28">
<title>mars-stroke-v</title>
<path d="M10 10.063c4.5 0.5 8 4.312 8 8.937 0 5.313-4.594 9.547-10.031 8.937-4.219-0.469-7.594-3.953-7.938-8.203-0.391-4.953 3.234-9.156 7.969-9.672v-2.063h-2.5c-0.281 0-0.5-0.219-0.5-0.5v-1c0-0.281 0.219-0.5 0.5-0.5h2.5v-2.578l-1.437 1.437c-0.203 0.187-0.516 0.187-0.703 0l-0.719-0.719c-0.187-0.187-0.187-0.5 0-0.703l3.156-3.141c0.391-0.391 1.016-0.391 1.406 0l3.156 3.141c0.187 0.203 0.187 0.516 0 0.703l-0.719 0.719c-0.187 0.187-0.5 0.187-0.703 0l-1.437-1.437v2.578h2.5c0.281 0 0.5 0.219 0.5 0.5v1c0 0.281-0.219 0.5-0.5 0.5h-2.5v2.063zM9 26c3.859 0 7-3.141 7-7s-3.141-7-7-7-7 3.141-7 7 3.141 7 7 7z"></path>
</svg>
