<!-- Generated by IcoMoon.io -->
<svg version="1.1" xmlns="http://www.w3.org/2000/svg" width="30" height="28" viewBox="0 0 30 28">
<title>mars-stroke-h</title>
<path d="M29.703 14.297c0.391 0.391 0.391 1.016 0 1.406l-4.594 4.594c-0.187 0.203-0.516 0.203-0.703 0l-0.703-0.703c-0.203-0.187-0.203-0.516 0-0.703l2.891-2.891h-4.594v3.5c0 0.281-0.219 0.5-0.5 0.5h-1c-0.281 0-0.5-0.219-0.5-0.5v-3.5h-2.063c-0.5 4.5-4.312 8-8.937 8-5.313 0-9.547-4.594-8.937-10.031 0.469-4.219 3.953-7.594 8.203-7.938 4.953-0.391 9.156 3.234 9.672 7.969h2.063v-3.5c0-0.281 0.219-0.5 0.5-0.5h1c0.281 0 0.5 0.219 0.5 0.5v3.5h4.594l-2.891-2.891c-0.203-0.187-0.203-0.516 0-0.703l0.703-0.703c0.187-0.203 0.516-0.203 0.703 0zM9 22c3.859 0 7-3.141 7-7s-3.141-7-7-7-7 3.141-7 7 3.141 7 7 7z"></path>
</svg>
