<!-- Generated by IcoMoon.io -->
<svg version="1.1" xmlns="http://www.w3.org/2000/svg" width="24" height="28" viewBox="0 0 24 28">
<title>meanpath</title>
<path d="M20.484 13.156v1.781c0 0.5-0.297 0.812-0.797 0.812h-3.156c-0.5 0-0.812-0.313-0.812-0.812v-1.781c0-0.5 0.313-0.812 0.812-0.812h3.156c0.5 0 0.797 0.313 0.797 0.812zM12.828 16.75v-3.906c0-1.109-0.734-1.844-1.844-1.844h-2.078c-0.703 0-1.219 0.297-1.5 0.812-0.281-0.516-0.797-0.812-1.5-0.812h-2.031c-1.094 0-1.844 0.734-1.844 1.844v3.906c0 0.234 0.109 0.344 0.328 0.344h0.859c0.234 0 0.344-0.109 0.344-0.344v-3.594c0-0.5 0.297-0.812 0.812-0.812h1.469c0.5 0 0.812 0.313 0.812 0.812v3.594c0 0.234 0.094 0.344 0.328 0.344h0.844c0.234 0 0.344-0.109 0.344-0.344v-3.594c0-0.5 0.313-0.812 0.812-0.812h1.516c0.5 0 0.797 0.313 0.797 0.812v3.594c0 0.234 0.109 0.344 0.344 0.344h0.859c0.219 0 0.328-0.109 0.328-0.344zM22.031 15.25v-2.406c0-1.109-0.75-1.844-1.859-1.844h-4.125c-1.109 0-1.859 0.734-1.859 1.844v6.406c0 0.234 0.125 0.328 0.344 0.328h0.859c0.234 0 0.328-0.094 0.328-0.328v-2.812c0.297 0.406 0.766 0.656 1.469 0.656h2.984c1.109 0 1.859-0.75 1.859-1.844zM24 5.625v16.75c0 2-1.625 3.625-3.625 3.625h-16.75c-2 0-3.625-1.625-3.625-3.625v-16.75c0-2 1.625-3.625 3.625-3.625h16.75c2 0 3.625 1.625 3.625 3.625z"></path>
</svg>
