<!-- Generated by IcoMoon.io -->
<svg version="1.1" xmlns="http://www.w3.org/2000/svg" width="28" height="28" viewBox="0 0 28 28">
<title>medkit</title>
<path d="M20 17.5v-3c0-0.281-0.219-0.5-0.5-0.5h-3.5v-3.5c0-0.281-0.219-0.5-0.5-0.5h-3c-0.281 0-0.5 0.219-0.5 0.5v3.5h-3.5c-0.281 0-0.5 0.219-0.5 0.5v3c0 0.281 0.219 0.5 0.5 0.5h3.5v3.5c0 0.281 0.219 0.5 0.5 0.5h3c0.281 0 0.5-0.219 0.5-0.5v-3.5h3.5c0.281 0 0.5-0.219 0.5-0.5zM10 6h8v-2h-8v2zM4 6v20h-0.5c-1.922 0-3.5-1.578-3.5-3.5v-13c0-1.922 1.578-3.5 3.5-3.5h0.5zM22.5 6v20h-17v-20h2.5v-2.5c0-0.828 0.672-1.5 1.5-1.5h9c0.828 0 1.5 0.672 1.5 1.5v2.5h2.5zM28 9.5v13c0 1.922-1.578 3.5-3.5 3.5h-0.5v-20h0.5c1.922 0 3.5 1.578 3.5 3.5z"></path>
</svg>
