<!-- Generated by IcoMoon.io -->
<svg version="1.1" xmlns="http://www.w3.org/2000/svg" width="18" height="28" viewBox="0 0 18 28">
<title>mercury</title>
<path d="M12.969 4.937c2.969 1.469 5.031 4.531 5.031 8.062 0 4.625-3.5 8.437-8 8.937v2.063h1.5c0.281 0 0.5 0.219 0.5 0.5v1c0 0.281-0.219 0.5-0.5 0.5h-1.5v1.5c0 0.281-0.219 0.5-0.5 0.5h-1c-0.281 0-0.5-0.219-0.5-0.5v-1.5h-1.5c-0.281 0-0.5-0.219-0.5-0.5v-1c0-0.281 0.219-0.5 0.5-0.5h1.5v-2.063c-4.5-0.5-8-4.312-8-8.937 0-3.531 2.063-6.594 5.031-8.062-1.641-0.953-2.922-2.453-3.563-4.266-0.125-0.328 0.125-0.672 0.469-0.672h1.078c0.203 0 0.375 0.125 0.453 0.313 0.906 2.172 3.047 3.687 5.531 3.687s4.625-1.516 5.531-3.687c0.078-0.187 0.25-0.313 0.578-0.313h0.953c0.344 0 0.594 0.344 0.469 0.672-0.641 1.813-1.922 3.313-3.563 4.266zM9 20c3.859 0 7-3.141 7-7s-3.141-7-7-7-7 3.141-7 7 3.141 7 7 7z"></path>
</svg>
