<!-- Generated by IcoMoon.io -->
<svg version="1.1" xmlns="http://www.w3.org/2000/svg" width="36" height="28" viewBox="0 0 36 28">
<title>mixcloud</title>
<path d="M25.703 17.156c0-1.25-0.797-2.312-1.891-2.734-0.078 0.484-0.203 0.969-0.359 1.437-0.156 0.5-0.625 0.812-1.125 0.812-0.125 0-0.25-0.016-0.375-0.047-0.641-0.219-0.969-0.891-0.766-1.516 0.234-0.719 0.359-1.469 0.359-2.234 0-3.906-3.187-7.094-7.109-7.094-2.812 0-5.344 1.672-6.469 4.172 1.094 0.281 2.109 0.844 2.938 1.656 0.469 0.469 0.469 1.234 0 1.703s-1.234 0.469-1.703 0c-0.75-0.75-1.75-1.172-2.812-1.172-2.203 0-4 1.781-4 3.984s1.797 3.984 4 3.984h16.344c1.641 0 2.969-1.328 2.969-2.953zM28.094 17.156c0 2.953-2.406 5.344-5.359 5.344h-16.344c-3.531 0-6.391-2.859-6.391-6.375 0-3.203 2.375-5.844 5.453-6.297 1.297-3.813 4.906-6.438 8.984-6.438 4.922 0 8.984 3.766 9.453 8.563 2.391 0.516 4.203 2.656 4.203 5.203zM32 17.156c0 1.781-0.516 3.5-1.516 4.984-0.234 0.344-0.609 0.516-1 0.516v0c-0.234 0-0.469-0.063-0.672-0.203-0.547-0.359-0.688-1.109-0.313-1.656 0.734-1.078 1.109-2.328 1.109-3.641 0-1.297-0.375-2.562-1.109-3.641-0.375-0.547-0.234-1.281 0.313-1.656s1.297-0.219 1.672 0.328c1 1.469 1.516 3.187 1.516 4.969zM36 17.156c0 2.484-0.719 4.875-2.094 6.922-0.234 0.344-0.609 0.531-1 0.531v0c-0.219 0-0.453-0.063-0.656-0.203-0.547-0.375-0.703-1.109-0.328-1.656 1.094-1.656 1.687-3.594 1.687-5.594s-0.594-3.937-1.687-5.578c-0.375-0.547-0.219-1.297 0.328-1.656 0.547-0.375 1.281-0.234 1.656 0.328 1.375 2.031 2.094 4.422 2.094 6.906z"></path>
</svg>
