<!-- Generated by IcoMoon.io -->
<svg version="1.1" xmlns="http://www.w3.org/2000/svg" width="36" height="28" viewBox="0 0 36 28">
<title>motorcycle</title>
<path d="M35.953 16.188c0.5 4.391-3.078 8.078-7.438 7.797-3.344-0.219-6.125-2.891-6.469-6.234-0.25-2.375 0.688-4.516 2.281-5.953l-1.109-1.672c-1.969 1.641-3.219 4.094-3.219 6.844 0 0.562-0.438 1.031-1 1.031h-5.078c-0.484 3.391-3.391 6-6.922 6-3.859 0-7-3.141-7-7s3.141-7 7-7c0.828 0 1.625 0.156 2.375 0.422l0.375-0.703c-1.203-1.078-2.781-1.719-4.75-1.719h-1c-0.547 0-1-0.453-1-1s0.453-1 1-1h2c3.5 0 5.281 1.437 6 2h9.797l-1.328-2h-3.469c-0.609 0-1.094-0.547-0.984-1.172 0.078-0.484 0.547-0.828 1.031-0.828h3.953c0.328 0 0.641 0.172 0.828 0.438l1.094 1.641 1.781-1.781c0.187-0.187 0.453-0.297 0.719-0.297h1.578c0.547 0 1 0.453 1 1v2c0 0.547-0.453 1-1 1h-2.797l1.797 2.688c1.266-0.609 2.734-0.859 4.297-0.562 2.984 0.547 5.313 3.047 5.656 6.062zM7 22c2.422 0 4.438-1.719 4.906-4h-4.906c-0.344 0-0.672-0.187-0.859-0.484-0.172-0.297-0.187-0.672-0.016-0.984l2.297-4.328c-0.453-0.125-0.922-0.203-1.422-0.203-2.75 0-5 2.25-5 5s2.25 5 5 5zM29 22c2.75 0 5-2.25 5-5s-2.25-5-5-5c-0.672 0-1.297 0.141-1.891 0.375l2.719 4.062c0.313 0.469 0.187 1.094-0.266 1.391-0.172 0.125-0.375 0.172-0.562 0.172-0.328 0-0.641-0.156-0.828-0.453l-2.719-4.062c-0.891 0.906-1.453 2.141-1.453 3.516 0 2.75 2.25 5 5 5z"></path>
</svg>
