<!-- Generated by IcoMoon.io -->
<svg version="1.1" xmlns="http://www.w3.org/2000/svg" width="18" height="28" viewBox="0 0 18 28">
<title>mouse-pointer</title>
<path d="M17.703 16.297c0.297 0.281 0.375 0.719 0.219 1.078-0.156 0.375-0.516 0.625-0.922 0.625h-5.969l3.141 7.438c0.219 0.516-0.031 1.094-0.531 1.313l-2.766 1.172c-0.516 0.219-1.094-0.031-1.313-0.531l-2.984-7.063-4.875 4.875c-0.187 0.187-0.438 0.297-0.703 0.297-0.125 0-0.266-0.031-0.375-0.078-0.375-0.156-0.625-0.516-0.625-0.922v-23.5c0-0.406 0.25-0.766 0.625-0.922 0.109-0.047 0.25-0.078 0.375-0.078 0.266 0 0.516 0.094 0.703 0.297z"></path>
</svg>
