<!-- Generated by IcoMoon.io -->
<svg version="1.1" xmlns="http://www.w3.org/2000/svg" width="24" height="28" viewBox="0 0 24 28">
<title>odnoklassniki-square</title>
<path d="M14.484 9.063c0 1.375-1.109 2.484-2.484 2.484s-2.484-1.109-2.484-2.484 1.109-2.484 2.484-2.484 2.484 1.109 2.484 2.484zM17.828 14.734c-0.281-0.562-1.078-1.047-2.125-0.219 0 0-1.422 1.125-3.703 1.125s-3.703-1.125-3.703-1.125c-1.047-0.828-1.844-0.344-2.125 0.219-0.5 1 0.063 1.484 1.328 2.312 1.078 0.688 2.578 0.953 3.531 1.047l-0.797 0.812c-1.125 1.125-2.219 2.219-2.984 2.969-0.453 0.453-0.453 1.188 0 1.641l0.141 0.141c0.453 0.453 1.188 0.453 1.641 0l2.984-2.984c1.125 1.141 2.219 2.234 2.984 2.984 0.453 0.453 1.188 0.453 1.641 0l0.141-0.141c0.453-0.453 0.453-1.188 0-1.641l-2.984-2.969-0.812-0.812c0.969-0.094 2.438-0.359 3.516-1.047 1.266-0.828 1.828-1.313 1.328-2.312zM17.063 9.063c0-2.797-2.266-5.063-5.063-5.063s-5.063 2.266-5.063 5.063 2.266 5.063 5.063 5.063 5.063-2.266 5.063-5.063zM24 6.5v15c0 2.484-2.016 4.5-4.5 4.5h-15c-2.484 0-4.5-2.016-4.5-4.5v-15c0-2.484 2.016-4.5 4.5-4.5h15c2.484 0 4.5 2.016 4.5 4.5z"></path>
</svg>
