<!-- Generated by IcoMoon.io -->
<svg version="1.1" xmlns="http://www.w3.org/2000/svg" width="36" height="28" viewBox="0 0 36 28">
<title>optin-monster</title>
<path d="M7.469 26.172c-0.156 0.328-0.609 0.781-1 0.938-0.547 0.187-1.219-0.172-1.25-0.547-0.031-0.484 1.172-1.359 1.687-1.453 0.5-0.094 0.734 0.656 0.562 1.062zM28.422 26.172c0.141 0.328 0.594 0.781 1 0.938 0.531 0.187 1.219-0.172 1.234-0.547 0.047-0.484-1.172-1.359-1.687-1.453-0.484-0.094-0.719 0.656-0.547 1.062zM29.172 24.469c0.281 0.562 1.391 1.391 2.094 1.578 0.953 0.266 1.859-0.187 1.859-0.859 0-1.031-1.953-2.406-2.859-2.5-0.859-0.109-1.422 1.109-1.094 1.781zM6.687 24.469c-0.281 0.562-1.375 1.391-2.078 1.578-0.953 0.266-1.859-0.187-1.859-0.859 0-1.031 1.953-2.406 2.859-2.5 0.859-0.109 1.422 1.109 1.078 1.781zM18.094 6.906h0.016c-0.422 0-0.828 0.078-1.188 0.234 0.547 0.172 0.953 0.672 0.953 1.25 0 0.734-0.641 1.328-1.437 1.328-0.531 0-1-0.281-1.25-0.672-0.047 0.219-0.078 0.422-0.078 0.656 0 1.547 1.328 2.797 2.984 2.797s3-1.25 3-2.797-1.344-2.797-3-2.797zM22.844 3.5c-2.063-2.266-4.703-2.766-7.281-1.359 1.453-3.25 7.063-2.812 7.281 1.359zM34.563 22.859c0.078 0.109-0.016 0.391-0.172 0.656 0.063 0.203 0.109 0.406 0.109 0.625 0.047 1.828-2.562 3.703-4.25 3.766-1 0.047-2-0.484-2.469-1.359-6.563 0.234-13.125 0.281-19.672 0-0.484 0.875-1.484 1.391-2.484 1.359-1.672-0.063-4.281-1.937-4.25-3.766 0.016-0.219 0.047-0.422 0.109-0.625-0.156-0.266-0.25-0.547-0.172-0.656 0.063-0.094 0.266-0.094 0.484-0.016 0.187-0.297 0.406-0.547 0.641-0.797-0.063-0.266-0.063-0.5 0.031-0.594 0.109-0.094 0.359-0.063 0.609 0.063 0.266-0.187 0.578-0.375 0.922-0.531 0-0.281 0.078-0.5 0.203-0.578 0.187-0.094 0.516-0.031 0.797 0.25 0.328-0.047 0.656-0.047 0.953 0.031 0.203 0.047 0.406 0.156 0.594 0.297v-1.141c-0.094 0-0.172 0-0.281-0.031-1.016-0.187-2.125-0.891-2.375-2.063-0.094-0.391-0.094-0.812 0-1.266 0.187-0.781 0.859-1.234 1.453-1.484 0.047-0.344 0.469-0.812 0.859-0.922 0.438-0.109 0.719 0.266 0.812 0.594h0.203c0.281 0.031 0.734 0.094 0.938 0.359 0.031 0.031 0.063 0.078 0.078 0.109 0.313-0.031 0.641-0.078 0.953-0.109-0.141-0.109-0.297-0.203-0.469-0.266-0.297-0.516-0.797-0.641-1.422-0.672 0-0.047 0-0.094 0.016-0.156-1.141-0.031-2.547-0.328-3.172-1.031-0.719-0.797-0.844-2.156-0.703-3.187 0.125-1.016 0.547-2.188 1.406-2.797 0.484-0.328 1.25-0.047 1.313 0.562 0.031 0.266 0.078 1.172 0.328 1.313 0.281 0.141 0.734 0.203 1.188 0.187 0.469-0.453 0.969-0.844 1.531-1.156-0.859-0.078-1.672 0.094-2.531 0.219l0.734-0.719c0.719-0.688 1.672-1.281 2.547-1.734 1.359-0.688 2.891-1.203 4.406-1.344-1.078-0.453-2.312-0.688-3.453-0.953 4.422-0.938 10.094-1.281 14.125 2.172 1.047 0.891 1.875 2.094 2.469 3.469 0.641 0.078 1.453 0.094 1.891-0.141h0.016c0.25-0.141 0.297-1.031 0.328-1.313 0.063-0.594 0.828-0.891 1.313-0.547 0.859 0.609 1.281 1.781 1.422 2.781 0.125 1.031 0.016 2.391-0.719 3.187-0.625 0.703-1.984 1.016-3.109 1.047v0.156c-0.641 0.016-1.172 0.141-1.484 0.672-0.172 0.063-0.328 0.156-0.484 0.266 0.328 0.031 0.656 0.078 0.969 0.109 0.016-0.047 0.047-0.094 0.078-0.125 0.219-0.25 0.672-0.328 0.938-0.359h0.203c0.094-0.313 0.391-0.688 0.812-0.594s0.812 0.578 0.859 0.922c0.625 0.25 1.281 0.703 1.453 1.484 0.109 0.469 0.094 0.875 0.016 1.266-0.266 1.172-1.375 1.891-2.391 2.063-0.078 0.016-0.187 0.031-0.266 0.031 0 0.391 0 0.766-0.016 1.141 0.187-0.141 0.375-0.25 0.594-0.297 0.297-0.078 0.625-0.078 0.953-0.031 0.281-0.281 0.625-0.344 0.797-0.25 0.125 0.078 0.219 0.297 0.219 0.578 0.328 0.156 0.656 0.344 0.922 0.531 0.25-0.125 0.484-0.156 0.594-0.063 0.094 0.094 0.109 0.328 0.031 0.594 0.234 0.25 0.469 0.516 0.641 0.797 0.219-0.078 0.406-0.078 0.484 0.016zM30.266 7.984c0 0.359-0.078 0.672-0.141 0.844 1 0.391 1.516 1.281 1.75 2.063 0.063-0.609-0.156-2.281-0.797-2.953-0.422-0.422-0.812-0.297-0.812 0.047zM29.047 9.547v0c0.75 0.906 0.984 2.406 0.734 3.641 0.625-0.125 1.188-0.359 1.516-0.703 0.109-0.125 0.219-0.281 0.281-0.438-0.063-1.234-0.594-2.469-1.719-2.828-0.187 0.187-0.531 0.281-0.812 0.328v0zM28.469 9.609c-0.219 0-0.469 0-0.688-0.016 0.438 1.188 0.719 2.469 0.828 3.734 0.203 0 0.438-0.016 0.672-0.047 0.344-1.406-0.016-2.984-0.812-3.672zM4.031 10.891c0.234-0.781 0.75-1.672 1.75-2.063-0.063-0.172-0.141-0.484-0.141-0.844 0-0.344-0.406-0.469-0.812-0.047-0.656 0.672-0.859 2.344-0.797 2.953zM4.594 12.484c0.328 0.359 0.891 0.578 1.516 0.703-0.25-1.234-0.016-2.734 0.734-3.641v0 0 0c-0.281-0.047-0.625-0.141-0.812-0.328-1.125 0.359-1.641 1.594-1.719 2.828 0.078 0.156 0.172 0.313 0.281 0.438zM7.359 13.328c0.141-1.281 0.531-2.531 1.141-3.672-0.297 0.063-0.578 0.172-0.859 0.281l-0.703 0.297v-0.016c-0.422 0.812-0.578 1.984-0.313 3.063 0.266 0.031 0.5 0.047 0.734 0.047zM22.406 13.937v0c0.203 1.031 0.281 2.063 0.438 3.094 0.063 0.359 0.172 0.438 0.516 0.266 0.922-0.469 1.313-2.266 1.328-3.297-0.75-0.047-1.516-0.047-2.281-0.063zM18 3.922c-2.422 0-4.406 1.969-4.406 4.391 0 2.438 1.984 4.406 4.406 4.406s4.406-1.969 4.406-4.406c0-2.422-1.984-4.391-4.406-4.391zM21.562 13.906c-1.094-0.016-2.203-0.016-3.297 0v-0.016c-0.016 0.297 0.016 2.203 0.25 2.375 0.641 0.313 2.281 0.266 2.953 0.063 0.313-0.094 0.141-2.141 0.094-2.422zM17.375 17.016c0.266-0.141 0.141-2.625 0.078-3.109v-0.016c-1.125 0.016-2.234 0.016-3.344 0.047-0.109 0.531-0.266 2.828 0.109 2.984 0.75 0.328 2.406 0.297 3.156 0.094zM11.219 14.063c-0.313 1.141 0.016 2.609 1.281 3.172 0.313 0.141 0.5 0.141 0.562-0.25 0.109-0.5 0.141-2.125 0.281-3.016v0c-0.703 0.016-1.422 0.047-2.125 0.094zM9.234 16.031c0.031 0.281-0.219 0.453-0.531 0.562 2.531 2.719 5.359 4.953 9.016 6.156 3.906-1.109 6.687-3.469 9.438-6.188-0.281-0.109-0.5-0.297-0.469-0.531 0.016-0.063 0.031-0.094 0.047-0.141v0 0c-0.516-0.047-1.031-0.109-1.531-0.156-0.547 1.906-2.078 3.063-2.703 1.828-0.156-0.297-0.203-0.672-0.266-0.969-0.219 0.484-0.766 0.469-1.422 0.516-0.766 0.063-1.828 0.078-2.547-0.172-0.172 0.75-0.641 0.75-1.547 0.828-0.812 0.078-2.812 0.234-3.172-0.625-0.063 1.656-2.031 0.578-2.609-0.406-0.187-0.328-0.313-0.656-0.406-1.016-0.453 0.047-0.906 0.094-1.359 0.156 0.031 0.047 0.047 0.109 0.063 0.156zM7.922 25.844c0.031-0.141 0.047-0.297 0.047-0.469-0.328-1.344-1.078-2.875-1.937-3.125-1.297-0.391-3.984 1.359-3.828 3.156 0.734 1.125 2.312 2.063 3.422 2.109 1.031 0.047 2.078-0.641 2.297-1.672zM7.969 23.172c0.187 0.516 0.375 1.203 0.422 1.859 1.937-1.125 4-2.063 6.125-2.719-2.234-1.188-3.938-2.766-5.625-4.453-0.125 0.078-0.297 0.141-0.453 0.203-0.016 0.047-0.016 0.094-0.031 0.141 0.266 0.156 0.453 0.344 0.344 0.578-0.125 0.234-0.5 0.438-0.875 0.531-0.125 0.156-0.297 0.281-0.453 0.375h-0.016c-0.016 0.781-0.016 1.563 0.016 2.344 0.219 0.391 0.406 0.797 0.547 1.141zM9.047 25.766c5.969 0.234 11.937 0.203 17.891 0-2.125-1.234-4.281-2.391-6.687-3.063-0.797 0.359-1.609 0.656-2.438 0.891-0.125 0.047-0.125 0.047-0.25 0-0.688-0.219-1.344-0.469-2.016-0.766-2.328 0.672-4.469 1.687-6.5 2.938h-0.016v0.016c0.016 0 0.016 0 0.016-0.016zM27.547 25.047c0.047-0.656 0.25-1.359 0.438-1.875 0.125-0.344 0.297-0.734 0.516-1.109l-0.016 0.016c0.031-0.797 0.047-1.594 0.047-2.391-0.172-0.094-0.328-0.234-0.469-0.391-0.375-0.078-0.75-0.297-0.875-0.516-0.109-0.234 0.078-0.438 0.344-0.594-0.016-0.031-0.031-0.094-0.031-0.141-0.172-0.047-0.313-0.109-0.438-0.187-1.828 1.703-3.781 3.281-5.984 4.438 2.25 0.672 4.391 1.625 6.469 2.75zM33.672 25.406c0.172-1.797-2.516-3.547-3.828-3.156-0.844 0.25-1.609 1.781-1.937 3.125 0 0.172 0.016 0.328 0.047 0.469 0.219 1.031 1.266 1.719 2.297 1.672 1.109-0.047 2.688-0.984 3.422-2.109z"></path>
</svg>
