<!-- Generated by IcoMoon.io -->
<svg version="1.1" xmlns="http://www.w3.org/2000/svg" width="20" height="28" viewBox="0 0 20 28">
<title>paragraph</title>
<path d="M19.969 2.953v1.141c0 0.531-0.422 1.453-0.953 1.453-0.266 0-0.578-0.047-0.844 0.016-0.25 0.063-0.438 0.234-0.5 0.484-0.078 0.297-0.047 0.672-0.047 1v18c0 0.531-0.422 0.953-0.953 0.953h-1.687c-0.531 0-0.953-0.422-0.953-0.953v-19.031h-2.234v19.031c0 0.531-0.422 0.953-0.953 0.953h-1.687c-0.531 0-0.953-0.422-0.953-0.953v-7.75c-1.516-0.125-2.812-0.438-3.828-0.922-1.313-0.609-2.312-1.547-3-2.797-0.656-1.203-1-2.562-1-4.047 0-1.734 0.469-3.234 1.375-4.469 0.922-1.234 2.016-2.063 3.266-2.484 1.172-0.391 3.641-0.578 6.516-0.578h7.484c0.531 0 0.953 0.422 0.953 0.953z"></path>
</svg>
