<!-- Generated by IcoMoon.io -->
<svg version="1.1" xmlns="http://www.w3.org/2000/svg" width="24" height="28" viewBox="0 0 24 28">
<title>pause-circle-o</title>
<path d="M12 2c6.625 0 12 5.375 12 12s-5.375 12-12 12-12-5.375-12-12 5.375-12 12-12zM12 22.5c4.688 0 8.5-3.813 8.5-8.5s-3.813-8.5-8.5-8.5-8.5 3.813-8.5 8.5 3.813 8.5 8.5 8.5zM13.5 19c-0.281 0-0.5-0.219-0.5-0.5v-9c0-0.281 0.219-0.5 0.5-0.5h3c0.281 0 0.5 0.219 0.5 0.5v9c0 0.281-0.219 0.5-0.5 0.5h-3zM7.5 19c-0.281 0-0.5-0.219-0.5-0.5v-9c0-0.281 0.219-0.5 0.5-0.5h3c0.281 0 0.5 0.219 0.5 0.5v9c0 0.281-0.219 0.5-0.5 0.5h-3z"></path>
</svg>
