<!-- Generated by IcoMoon.io -->
<svg version="1.1" xmlns="http://www.w3.org/2000/svg" width="24" height="28" viewBox="0 0 24 28">
<title>pause-circle</title>
<path d="M11 18.5v-9c0-0.281-0.219-0.5-0.5-0.5h-4c-0.281 0-0.5 0.219-0.5 0.5v9c0 0.281 0.219 0.5 0.5 0.5h4c0.281 0 0.5-0.219 0.5-0.5zM18 18.5v-9c0-0.281-0.219-0.5-0.5-0.5h-4c-0.281 0-0.5 0.219-0.5 0.5v9c0 0.281 0.219 0.5 0.5 0.5h4c0.281 0 0.5-0.219 0.5-0.5zM24 14c0 6.625-5.375 12-12 12s-12-5.375-12-12 5.375-12 12-12 12 5.375 12 12z"></path>
</svg>
