<!-- Generated by IcoMoon.io -->
<svg version="1.1" xmlns="http://www.w3.org/2000/svg" width="24" height="28" viewBox="0 0 24 28">
<title>percent</title>
<path d="M20 20c0-1.094-0.906-2-2-2s-2 0.906-2 2 0.906 2 2 2 2-0.906 2-2zM8 8c0-1.094-0.906-2-2-2s-2 0.906-2 2 0.906 2 2 2 2-0.906 2-2zM24 20c0 3.313-2.688 6-6 6s-6-2.688-6-6 2.688-6 6-6 6 2.688 6 6zM22.5 3c0 0.219-0.078 0.422-0.203 0.594l-16.5 22c-0.187 0.25-0.484 0.406-0.797 0.406h-2.5c-0.547 0-1-0.453-1-1 0-0.219 0.078-0.422 0.203-0.594l16.5-22c0.187-0.25 0.484-0.406 0.797-0.406h2.5c0.547 0 1 0.453 1 1zM12 8c0 3.313-2.688 6-6 6s-6-2.688-6-6 2.688-6 6-6 6 2.688 6 6z"></path>
</svg>
