<!-- Generated by IcoMoon.io -->
<svg version="1.1" xmlns="http://www.w3.org/2000/svg" width="24" height="28" viewBox="0 0 24 28">
<title>pied-piper-pp</title>
<path d="M16.344 15.937c0 1.328-0.906 2.406-2.016 2.406-0.453 0-0.812-0.078-1.094-0.234v-4.328c0.281-0.172 0.641-0.266 1.094-0.266 1.109 0 2.016 1.078 2.016 2.422zM10.984 9.25c0 1.344-0.906 2.422-2.016 2.422-0.453 0-0.812-0.078-1.094-0.234v-4.328c0.281-0.172 0.641-0.266 1.094-0.266 1.109 0 2.016 1.078 2.016 2.406zM19.766 15.984c0-2.797-2.109-5.063-4.703-5.063-0.203 0-0.406 0.016-0.609 0.047-0.234 0.797-0.641 1.516-1.219 2.125-0.875 0.953-2.047 1.516-3.297 1.578v9.938l3.297-0.641v-3.219c0.547 0.203 1.156 0.297 1.828 0.297 2.594 0 4.703-2.266 4.703-5.063zM14.406 9.312c0-2.797-2.109-5.063-4.719-5.063-0.766 0-1.531 0.203-2.203 0.562h-2.906v13.125l3.297-0.641v-3.219c0.547 0.187 1.156 0.297 1.813 0.297 2.609 0 4.719-2.266 4.719-5.063zM24 6.5v15c0 2.484-2.016 4.5-4.5 4.5h-15c-2.484 0-4.5-2.016-4.5-4.5v-15c0-2.484 2.016-4.5 4.5-4.5h15c2.484 0 4.5 2.016 4.5 4.5z"></path>
</svg>
