<!-- Generated by IcoMoon.io -->
<svg version="1.1" xmlns="http://www.w3.org/2000/svg" width="32" height="28" viewBox="0 0 32 28">
<title>pied-piper-alt</title>
<path d="M19.094 14.516c4.062-0.156 6.312 3.187 8.156 6.281 1.094 1.859 2.375 2.953 3.953 4.344-1.687 1.047-3.828 1.75-5.641 2.562-3-2.516-1.25-12.5-6.062-12.5l-0.156 0.031-0.094 0.063c0.063 0.078 0.141 0.156 0.203 0.219 1.297 1.094 1.813 1.328 1.891 3.187l0.016 0.516c0.047 1.172-0.297 2.312-0.531 3.453-1.047-0.031-2.063 0.313-3.109 0.313-0.391 0-0.766-0.047-1.125-0.156-0.031-0.25-0.031-0.5-0.031-0.734 0-0.484-0.016-1.031 0.047-1.5 0.078-0.516 1.828-1.625 1.797-2.375-0.297-0.031-0.5 0.141-0.672 0.375-0.719 1.062-2.562 2.281-3.875 2.281-0.906 0-3.063-3.891-4.156-4.672-0.172-0.125-0.281-0.297-0.422-0.469-0.875 0.203-7.578 1.75-8.016 1.75-0.328 0-0.625-0.266-0.625-0.594 0-0.297 0.187-0.578 0.484-0.641l7.594-1.656c-0.516-0.938 0.672-0.953 1.172-1.094 0.172-0.047 0.344-0.219 0.516-0.219 0.344 0 0.641 0.484 0.75 0.766 0.344-0.078 2.484-0.578 2.688-0.578 0.344 0 0.656 0.25 0.656 0.609 0 0.297-0.187 0.562-0.5 0.625l-2.844 0.625-0.016 0.25c-0.016 0.547 2.469 3.266 2.906 3.266 0.984 0 2.984-2.266 2.984-3.266 0-1.672-2.328-0.688-2.328-1.828 0-0.187 0.063-0.359 0.156-0.531l-1.062-0.297c0.484-0.5 0.672-1.141 0.672-1.828 0-0.297-0.031-0.609-0.078-0.906 0.797-0.156 1.453-0.25 2.25-0.25 3.094 0 2.484 0.469 3.563 2.953l0.781-0.391c-0.125 1.859-1.969 0.953-1.906 1.687zM20.031 10.844c-0.609-0.703-0.875-1.047-1.234-1.203-0.375-0.172-0.859-0.125-1.984-0.125-1.172 0-2.328 0.172-3.391 0.672 0.344-0.641 0.719-0.922 1.406-1.188 1.484-0.562 2.188-1.656 3.203-2.781 0.531 0.375 0.766 1.313 1.531 1.266l0.187-0.016v1.188l0.344 0.016c2.031-0.781 4.062-1.641 5.797-2.969 2.625-2 2.875-2.719 4.422-5.437l0.109-0.141c-0.031 0.766-0.344 1.484-0.672 2.172-1.656 3.469-4.281 5.453-7.984 6.344-0.672 0.156-1.437 0.172-2.047 0.484 0.078 0.531 0.719 0.984 0.719 1.25 0 0.187-0.297 0.391-0.406 0.469zM16.578 25.234c0.859-0.562 3.313-1.078 4.344-1.078 0.516 0 1.531 2.453 1.797 3-1.219 0.453-2.5 0.703-3.813 0.703-0.656 0-1.313-0.063-1.953-0.172zM12.844 15.125l0.75-0.187 1.703 2.766-1.141 0.75zM20.672 23.203c0.016 0.078 0.047 0.172 0.047 0.25 0 0.406-2.688 0.688-3.172 0.766l-0.109-0.672c0.969-0.109 2.047-0.359 3.016-0.344h0.219zM13.531 13.391l-1.5 0.313-0.094-0.266c0.359-0.031 0.688-0.203 1.047-0.203 0.203 0 0.375 0.047 0.547 0.156zM16.578 23.297h0.484l0.156 1.297-0.641 0.187v-1.484zM30.469 0.016v0 0zM30.469 0.016l-0.016 0.078-0.031 0.031 0.016-0.047zM30.469 0.016l0.016-0.016z"></path>
</svg>
