<!-- Generated by IcoMoon.io -->
<svg version="1.1" xmlns="http://www.w3.org/2000/svg" width="36" height="28" viewBox="0 0 36 28">
<title>pied-piper</title>
<path d="M36 0c-4.547 3.016-5.031 5.203-5.422 5.875-0.375 0.688-0.656 3.391-1.313 4.703-0.656 1.328-3.047 2.375-3.719 2.812-0.656 0.438-1.594 2.141-2.359 3.609-3.453-0.141-6.875 0.703-9.844 2.469 0 0-1.437 0.828-4.734 2.797 1.656-0.547 2.438-0.938 2.438-0.938 4.125-1.578 5.219-2.328 8.547-2.875 2.562-0.422 5.875-0.078 7.266 0.109 0.063 0 0.109 0.031 0.156 0.047 0.219 0.125 0.297 0.391 0.172 0.609l-3.031 5.391c-0.141 0.266-0.438 0.406-0.734 0.344-0.75-0.141-2.469-0.375-5.531-0.375-4.438 0-8.047 1.359-12.406 1.422-3.672 0.047-5.109-1.453-5.469-1.937 0-0.016-0.016-0.031-0.016-0.047 0-0.063 0.031-0.094 0.094-0.094 0 0 2.156 0 5.797-0.859 4.141-7.891 7.828-10.656 11.844-10.656 0 0 4.031 0 5.094 3.484 1.281-2.234 1.594-2.766 1.594-2.766 0.297-0.531 1.969-4.344 4.859-7.953v0c2.906-3.609 5.094-4.5 6.719-5.172z"></path>
</svg>
