<!-- Generated by IcoMoon.io -->
<svg version="1.1" xmlns="http://www.w3.org/2000/svg" width="24" height="28" viewBox="0 0 24 28">
<title>play-circle-o</title>
<path d="M18.5 14c0 0.359-0.187 0.688-0.5 0.859l-8.5 5c-0.156 0.094-0.328 0.141-0.5 0.141s-0.344-0.047-0.5-0.125c-0.313-0.187-0.5-0.516-0.5-0.875v-10c0-0.359 0.187-0.688 0.5-0.875 0.313-0.172 0.703-0.172 1 0.016l8.5 5c0.313 0.172 0.5 0.5 0.5 0.859zM20.5 14c0-4.688-3.813-8.5-8.5-8.5s-8.5 3.813-8.5 8.5 3.813 8.5 8.5 8.5 8.5-3.813 8.5-8.5zM24 14c0 6.625-5.375 12-12 12s-12-5.375-12-12 5.375-12 12-12 12 5.375 12 12z"></path>
</svg>
