<!-- Generated by IcoMoon.io -->
<svg version="1.1" xmlns="http://www.w3.org/2000/svg" width="24" height="28" viewBox="0 0 24 28">
<title>podcast</title>
<path d="M15.531 18.625c0 1.031-0.109 2.063-0.266 3.078-0.234 1.625-0.469 3.297-0.859 4.891-0.281 1.141-1.344 1.406-2.375 1.406s-2.094-0.266-2.375-1.406c-0.391-1.594-0.625-3.266-0.859-4.891-0.156-1.016-0.266-2.047-0.266-3.078 0-2.109 1.703-2.625 3.5-2.625s3.5 0.516 3.5 2.625zM24 12c0 5.063-3.125 9.391-7.562 11.156-0.172 0.063-0.359-0.094-0.328-0.281 0.047-0.328 0.094-0.672 0.156-1.031 0.031-0.25 0.063-0.5 0.094-0.734 0.016-0.094 0.063-0.156 0.141-0.187 3.25-1.656 5.5-5.031 5.5-8.922 0-5.703-4.781-10.297-10.547-9.984-5.281 0.281-9.484 4.781-9.453 10.063 0.031 3.891 2.297 7.25 5.563 8.875 0.078 0.031 0.125 0.109 0.141 0.187 0.031 0.219 0.063 0.453 0.094 0.703 0.063 0.375 0.109 0.719 0.172 1.062 0.031 0.187-0.172 0.344-0.344 0.266-4.641-1.813-7.875-6.438-7.609-11.766 0.297-6.047 5.172-11 11.219-11.375 6.969-0.438 12.766 5.094 12.766 11.969zM15.531 11.5c0 1.937-1.563 3.5-3.5 3.5s-3.5-1.563-3.5-3.5 1.563-3.5 3.5-3.5 3.5 1.563 3.5 3.5zM20.031 12c0 2.578-1.234 4.891-3.125 6.344-0.156 0.125-0.375 0.016-0.406-0.187-0.047-0.438-0.172-0.953-0.453-1.437-0.063-0.094-0.047-0.219 0.047-0.313 1.188-1.094 1.937-2.656 1.937-4.406 0-3.531-3.078-6.359-6.687-5.969-2.766 0.313-5.016 2.594-5.281 5.375-0.203 1.969 0.578 3.781 1.906 5 0.094 0.094 0.109 0.219 0.047 0.313-0.281 0.484-0.406 1-0.453 1.453-0.031 0.187-0.25 0.297-0.406 0.172-1.937-1.5-3.172-3.859-3.125-6.516 0.094-4.156 3.469-7.625 7.609-7.812 4.594-0.219 8.391 3.437 8.391 7.984z"></path>
</svg>
