<!-- Generated by IcoMoon.io -->
<svg version="1.1" xmlns="http://www.w3.org/2000/svg" width="34" height="28" viewBox="0 0 34 28">
<title>ravelry</title>
<path d="M17.859 27.078c-0.063-0.016-0.109-0.031-0.172-0.063 0 0-5.141-3.016-6.875-7.891-0.578-0.094-1.797-0.375-2.734-0.578v0c1.359 4.422 5.141 7.797 9.781 8.531zM7.844 17.609l2.625 0.438c-0.891-2.672-1-5.719-1-5.719-1.047 1.016-1.609 2.406-1.891 3.5v0c0.047 0.609 0.125 1.203 0.266 1.781zM9.562 8.094v0c-0.484 0.719-0.875 1.5-1.203 2.312 0.516-0.547 0.938-0.906 1.156-1.062-0.031-0.469 0.047-1.25 0.047-1.25zM32.016 14.875c0-6.813-5.5-12.344-12.25-12.344-3.125 0-5.969 1.188-8.141 3.141-0.328 0.641-0.547 1.453-0.703 2.5 3.328-2.828 9.266-2.125 9.266-2.125 1.484 0.063 1.313 1.375 1.297 1.781-5.406-0.453-8.062 1.094-10.687 3.328 0 0 0.516 5 1.703 7.031 6.844 0.313 12.047-3.406 12.047-3.406 0.656-0.469 1.234-0.516 1.359 0.297 0.094 0.656 0.141 1.547-0.609 1.891-2.281 1.062-4.797 1.734-7.297 2.094-1.625 0.234-2.531 0.297-4.953 0.25 2.312 5.375 8.094 6.844 8.094 6.844 1.813 0.297 3.187 0.063 4.109-0.234v0c4-2.031 6.766-6.219 6.766-11.047zM33.172 14.297c-0.109 1.062-0.281 2.297-0.625 3.313-1.406 4.172-3.359 6.891-7.812 9.375-0.406 0.281-0.844 0.547-1.281 0.688-0.797 0.281-1.656 0.344-2.547 0.25-0.375 0.031-0.75 0.047-1.141 0.047-5.953 0-10.984-4.062-12.5-9.609-0.047 0-0.094-0.016-0.141-0.016-0.359 2.812 1.719 6.609 1.719 6.609s0.125 0.187 0.844 1.281c-3.984-2.109-4.094-8.328-4.094-8.328-0.953-0.359-4.266-1.484-4.844-2.406 0 0 2.594 1.422 4.828 1.703-0.016-0.016 0.031-0.5 0.031-0.5 0.141-1.906 0.797-3.391 1.469-4.531 0.438-2.141 1.406-4.078 2.75-5.703 0.234-0.969 0.609-2.125 1.266-3.344 0.281-0.531 0.547-0.875 1.266-1.203 4.75-2.219 9.438-2.781 14.25-0.281v0c4.609 2.406 7.109 7.438 6.563 12.656z"></path>
</svg>
