<!-- Generated by IcoMoon.io -->
<svg version="1.1" xmlns="http://www.w3.org/2000/svg" width="28" height="28" viewBox="0 0 28 28">
<title>recycle</title>
<path d="M13.062 18.266l-0.234 5.75-0.031 0.344-6.563-0.453c-0.812-0.063-1.484-0.828-1.781-1.516-0.625-1.453 0.187-3.172 0.656-4.562 0 0 1.203 0.187 7.953 0.438zM7.016 9.109l2.812 5.922-2.297-1.437c-3.516 4.016-3.844 7-3.844 7l-2.969-5.578c-0.609-0.906-0.063-1.891-0.063-1.891s0.547-0.984 1.781-2.938l-2.188-1.344zM26.25 17.187l-2.938 5.609c-0.406 1.016-1.531 1.109-1.531 1.109s-1.109 0.109-3.422 0.187l0.125 2.562-3.594-5.734 3.297-5.656 0.109 2.703c5.297 0.641 7.953-0.781 7.953-0.781zM13.984 2.75c0 0-0.734 0.969-4.141 6.797l-4.953-2.922-0.297-0.187 3.516-5.563c0.438-0.688 1.422-0.938 2.188-0.859 1.563 0.141 2.688 1.656 3.687 2.734zM24.219 7.547l3.313 5.672c0.422 0.703 0.172 1.687-0.234 2.344-0.844 1.313-2.719 1.625-4.125 2.016 0 0-0.531-1.109-4.141-6.813l4.891-3.047zM21.984 4.016l2.219-1.297-3.437 5.828-6.547-0.313 2.359-1.344c-1.875-4.984-4.359-6.703-4.359-6.703l6.328 0.016c1.094-0.094 1.687 0.844 1.687 0.844s0.609 0.953 1.75 2.969z"></path>
</svg>
