<!-- Generated by IcoMoon.io -->
<svg version="1.1" xmlns="http://www.w3.org/2000/svg" width="24" height="28" viewBox="0 0 24 28">
<title>reddit-square</title>
<path d="M14.672 17.641c0.109 0.109 0.109 0.297 0 0.406-0.766 0.766-2.234 0.828-2.672 0.828s-1.906-0.063-2.672-0.828c-0.109-0.109-0.109-0.297 0-0.406 0.109-0.125 0.297-0.125 0.406 0 0.484 0.484 1.531 0.656 2.266 0.656s1.781-0.172 2.266-0.656c0.109-0.125 0.297-0.125 0.406 0zM10.563 15.203c0 0.656-0.547 1.203-1.203 1.203s-1.203-0.547-1.203-1.203c0-0.672 0.547-1.203 1.203-1.203s1.203 0.531 1.203 1.203zM15.844 15.203c0 0.656-0.547 1.203-1.203 1.203s-1.203-0.547-1.203-1.203c0-0.672 0.547-1.203 1.203-1.203s1.203 0.531 1.203 1.203zM19.203 13.594c0-0.875-0.719-1.594-1.609-1.594-0.438 0-0.844 0.187-1.141 0.484-1.094-0.75-2.562-1.234-4.172-1.281l0.844-3.797 2.672 0.609c0.016 0.656 0.547 1.188 1.203 1.188s1.203-0.547 1.203-1.203-0.547-1.203-1.203-1.203c-0.469 0-0.875 0.266-1.078 0.672l-2.953-0.656c-0.156-0.047-0.297 0.063-0.328 0.203l-0.938 4.188c-1.609 0.063-3.063 0.547-4.141 1.297-0.297-0.313-0.703-0.5-1.156-0.5-0.891 0-1.609 0.719-1.609 1.594 0 0.641 0.375 1.188 0.906 1.453-0.047 0.234-0.078 0.5-0.078 0.75 0 2.547 2.859 4.609 6.391 4.609s6.406-2.063 6.406-4.609c0-0.266-0.031-0.516-0.094-0.766 0.516-0.266 0.875-0.812 0.875-1.437zM24 6.5v15c0 2.484-2.016 4.5-4.5 4.5h-15c-2.484 0-4.5-2.016-4.5-4.5v-15c0-2.484 2.016-4.5 4.5-4.5h15c2.484 0 4.5 2.016 4.5 4.5z"></path>
</svg>
