<!-- Generated by IcoMoon.io -->
<svg version="1.1" xmlns="http://www.w3.org/2000/svg" width="28" height="28" viewBox="0 0 28 28">
<title>registered</title>
<path d="M16.281 10.984c0-0.906-0.313-1.547-0.938-1.891-0.313-0.172-0.75-0.281-1.828-0.281h-1.922v4.391h2.531c1.375 0 2.156-0.812 2.156-2.219zM17.094 15.437l3.203 5.828c0.078 0.156 0.078 0.344-0.016 0.484-0.078 0.156-0.25 0.25-0.422 0.25h-2.375c-0.187 0-0.359-0.094-0.438-0.266l-3.031-5.703h-2.422v5.469c0 0.281-0.219 0.5-0.5 0.5h-2.094c-0.281 0-0.5-0.219-0.5-0.5v-15c0-0.281 0.219-0.5 0.5-0.5h4.594c1.641 0 2.359 0.141 2.969 0.375 1.766 0.656 2.859 2.391 2.859 4.516 0 1.922-0.953 3.547-2.469 4.297 0.047 0.078 0.094 0.156 0.141 0.25zM14 2.5c-6.344 0-11.5 5.156-11.5 11.5s5.156 11.5 11.5 11.5 11.5-5.156 11.5-11.5-5.156-11.5-11.5-11.5zM28 14c0 7.734-6.266 14-14 14s-14-6.266-14-14 6.266-14 14-14v0c7.734 0 14 6.266 14 14z"></path>
</svg>
