<!-- Generated by IcoMoon.io -->
<svg version="1.1" xmlns="http://www.w3.org/2000/svg" width="30" height="28" viewBox="0 0 30 28">
<title>retweet</title>
<path d="M20 23.5c0 0.266-0.234 0.5-0.5 0.5h-15c-0.578 0-0.5-0.609-0.5-1v-9h-3c-0.547 0-1-0.453-1-1 0-0.234 0.078-0.469 0.234-0.641l5-6c0.187-0.219 0.469-0.344 0.766-0.344s0.578 0.125 0.766 0.344l5 6c0.156 0.172 0.234 0.406 0.234 0.641 0 0.547-0.453 1-1 1h-3v6h9c0.141 0 0.297 0.063 0.391 0.172l2.5 3c0.063 0.094 0.109 0.219 0.109 0.328zM30 17c0 0.234-0.078 0.469-0.234 0.641l-5 6c-0.187 0.219-0.469 0.359-0.766 0.359s-0.578-0.141-0.766-0.359l-5-6c-0.156-0.172-0.234-0.406-0.234-0.641 0-0.547 0.453-1 1-1h3v-6h-9c-0.141 0-0.297-0.063-0.391-0.187l-2.5-3c-0.063-0.078-0.109-0.203-0.109-0.313 0-0.266 0.234-0.5 0.5-0.5h15c0.578 0 0.5 0.609 0.5 1v9h3c0.547 0 1 0.453 1 1z"></path>
</svg>
