<!-- Generated by IcoMoon.io -->
<svg version="1.1" xmlns="http://www.w3.org/2000/svg" width="30" height="28" viewBox="0 0 30 28">
<title>road</title>
<path d="M17.359 15.563v-0.063l-0.375-5c-0.016-0.281-0.266-0.5-0.531-0.5h-2.906c-0.266 0-0.516 0.219-0.531 0.5l-0.375 5v0.063c-0.016 0.25 0.219 0.438 0.453 0.438h3.813c0.234 0 0.469-0.187 0.453-0.438zM29.219 22.859c0 0.453-0.125 1.141-0.719 1.141h-11c0.266 0 0.484-0.219 0.469-0.5l-0.313-4c-0.016-0.281-0.266-0.5-0.531-0.5h-4.25c-0.266 0-0.516 0.219-0.531 0.5l-0.313 4c-0.016 0.281 0.203 0.5 0.469 0.5h-11c-0.594 0-0.719-0.688-0.719-1.141 0-0.625 0.172-1.25 0.406-1.813l6.516-16.312c0.156-0.391 0.578-0.734 1-0.734h5.297c-0.266 0-0.516 0.219-0.531 0.5l-0.234 3c-0.016 0.281 0.187 0.5 0.469 0.5h2.594c0.281 0 0.484-0.219 0.469-0.5l-0.234-3c-0.016-0.281-0.266-0.5-0.531-0.5h5.297c0.422 0 0.844 0.344 1 0.734l6.516 16.312c0.234 0.562 0.406 1.188 0.406 1.813z"></path>
</svg>
