<!-- Generated by IcoMoon.io -->
<svg version="1.1" xmlns="http://www.w3.org/2000/svg" width="20" height="28" viewBox="0 0 20 28">
<title>rouble</title>
<path d="M16.297 8.828c0-2.094-1.484-3.5-3.687-3.5h-5v7h5c2.203 0 3.687-1.406 3.687-3.5zM20 8.828c0 4.016-2.906 6.828-7.078 6.828h-5.313v1.844h7.891c0.281 0 0.5 0.219 0.5 0.5v2c0 0.281-0.219 0.5-0.5 0.5h-7.891v3c0 0.281-0.219 0.5-0.5 0.5h-2.609c-0.281 0-0.5-0.219-0.5-0.5v-3h-3.5c-0.281 0-0.5-0.219-0.5-0.5v-2c0-0.281 0.219-0.5 0.5-0.5h3.5v-1.844h-3.5c-0.281 0-0.5-0.219-0.5-0.5v-2.328c0-0.281 0.219-0.5 0.5-0.5h3.5v-9.828c0-0.281 0.219-0.5 0.5-0.5h8.422c4.172 0 7.078 2.812 7.078 6.828z"></path>
</svg>
