<!-- Generated by IcoMoon.io -->
<svg version="1.1" xmlns="http://www.w3.org/2000/svg" width="28" height="28" viewBox="0 0 28 28">
<title>safari</title>
<path d="M14.828 13.953c0 0.516-0.359 1-0.906 1-0.516 0-1-0.375-1-0.906 0-0.516 0.375-1 0.922-1 0.5 0 0.984 0.359 0.984 0.906zM15.062 14.859l5.469-9.078c-0.734 0.688-7.578 6.984-7.766 7.313l-5.453 9.063c0.719-0.672 7.578-7 7.75-7.297zM25.172 14c0 2.047-0.562 4.062-1.625 5.797-0.156-0.078-0.812-0.547-0.938-0.547-0.109 0-0.203 0.094-0.203 0.203 0 0.203 0.734 0.578 0.922 0.688-1.547 2.344-3.938 4.031-6.656 4.703l-0.25-1.047c-0.016-0.141-0.109-0.156-0.234-0.156-0.109 0-0.172 0.156-0.156 0.234l0.25 1.062c-0.75 0.156-1.516 0.234-2.281 0.234-2.047 0-4.062-0.578-5.812-1.641 0.094-0.156 0.688-1.016 0.688-1.141 0-0.109-0.094-0.203-0.203-0.203-0.219 0-0.688 0.938-0.828 1.125-2.359-1.563-4.062-3.984-4.719-6.75l1.078-0.234c0.125-0.031 0.156-0.125 0.156-0.234s-0.156-0.172-0.25-0.156l-1.062 0.234c-0.141-0.719-0.219-1.437-0.219-2.172 0-2.094 0.594-4.156 1.703-5.922 0.156 0.094 0.906 0.609 1.031 0.609 0.109 0 0.203-0.078 0.203-0.187 0-0.219-0.828-0.641-1.016-0.766 1.594-2.328 4.016-4 6.766-4.625l0.234 1.047c0.031 0.125 0.125 0.156 0.234 0.156s0.172-0.156 0.156-0.25l-0.234-1.031c0.688-0.125 1.391-0.203 2.094-0.203v0c2.094 0 4.141 0.594 5.922 1.703-0.109 0.156-0.609 0.891-0.609 1.016 0 0.109 0.078 0.203 0.187 0.203 0.219 0 0.641-0.812 0.75-1 2.312 1.563 3.969 3.953 4.609 6.672l-0.875 0.187c-0.141 0.031-0.156 0.125-0.156 0.25 0 0.109 0.156 0.172 0.234 0.156l0.891-0.203c0.141 0.719 0.219 1.453 0.219 2.187zM26.5 14c0-6.906-5.594-12.5-12.5-12.5s-12.5 5.594-12.5 12.5 5.594 12.5 12.5 12.5 12.5-5.594 12.5-12.5zM28 14c0 7.734-6.266 14-14 14s-14-6.266-14-14 6.266-14 14-14 14 6.266 14 14z"></path>
</svg>
