<!-- Generated by IcoMoon.io -->
<svg version="1.1" xmlns="http://www.w3.org/2000/svg" width="32" height="28" viewBox="0 0 32 28">
<title>sellsy</title>
<path d="M23.438 21.422v-11.453c0-0.438-0.359-0.797-0.781-0.797h-1.453c-0.422 0-0.781 0.359-0.781 0.797v11.453c0 0.422 0.359 0.781 0.781 0.781h1.453c0.422 0 0.781-0.359 0.781-0.781zM19 21.422v-8.297c0-0.422-0.359-0.781-0.781-0.781h-1.578c-0.422 0-0.781 0.359-0.781 0.781v8.297c0 0.422 0.359 0.781 0.781 0.781h1.578c0.422 0 0.781-0.359 0.781-0.781zM14.438 21.422v-6.703c0-0.422-0.359-0.781-0.781-0.781h-1.578c-0.422 0-0.781 0.359-0.781 0.781v6.703c0 0.422 0.359 0.781 0.781 0.781h1.578c0.422 0 0.781-0.359 0.781-0.781zM9.875 21.422v-5.656c0-0.422-0.359-0.781-0.781-0.781h-1.578c-0.422 0-0.781 0.359-0.781 0.781v5.656c0 0.422 0.359 0.781 0.781 0.781h1.578c0.422 0 0.781-0.359 0.781-0.781zM32 19.141c0 3.469-2.828 6.281-6.281 6.281h-19.437c-3.453 0-6.281-2.812-6.281-6.281 0-2.422 1.422-4.641 3.609-5.672-0.109-0.375-0.156-0.766-0.156-1.141 0-2.359 1.922-4.281 4.281-4.281 1.031 0 2.031 0.375 2.812 1.047 0.938-3.813 4.375-6.516 8.313-6.516 4.719 0 8.563 3.844 8.563 8.563 0 0.641-0.063 1.281-0.219 1.906 2.812 0.688 4.797 3.219 4.797 6.094z"></path>
</svg>
