<!-- Generated by IcoMoon.io -->
<svg version="1.1" xmlns="http://www.w3.org/2000/svg" width="24" height="28" viewBox="0 0 24 28">
<title>share-square</title>
<path d="M15.703 17.203l5.5-5.5c0.391-0.391 0.391-1.016 0-1.406l-5.5-5.5c-0.281-0.297-0.719-0.375-1.078-0.219-0.375 0.156-0.625 0.516-0.625 0.922v2.5c-8.969 0-10 5.141-10 9 0 3.141 2.516 6.188 2.609 6.312 0.109 0.125 0.25 0.187 0.391 0.187 0.063 0 0.141-0.016 0.203-0.047 0.203-0.078 0.328-0.297 0.297-0.516-0.469-3.766-0.172-6.109 0.969-7.391 0.953-1.078 2.609-1.547 5.531-1.547v2.5c0 0.406 0.25 0.766 0.625 0.922 0.109 0.047 0.25 0.078 0.375 0.078 0.266 0 0.516-0.109 0.703-0.297zM24 6.5v15c0 2.484-2.016 4.5-4.5 4.5h-15c-2.484 0-4.5-2.016-4.5-4.5v-15c0-2.484 2.016-4.5 4.5-4.5h15c2.484 0 4.5 2.016 4.5 4.5z"></path>
</svg>
