<!-- Generated by IcoMoon.io -->
<svg version="1.1" xmlns="http://www.w3.org/2000/svg" width="32" height="28" viewBox="0 0 32 28">
<title>ship</title>
<path d="M28.297 24.297c0.391-0.391 1.016-0.391 1.406 0l2 2-1.406 1.406-1.297-1.297-1.297 1.297c-0.187 0.203-0.453 0.297-0.703 0.297s-0.516-0.094-0.703-0.297l-1.297-1.297-1.297 1.297c-0.391 0.391-1.016 0.391-1.406 0l-1.297-1.297-1.297 1.297c-0.391 0.391-1.016 0.391-1.406 0l-1.297-1.297-1.297 1.297c-0.391 0.391-1.016 0.391-1.406 0l-1.297-1.297-1.297 1.297c-0.391 0.391-1.016 0.391-1.406 0l-1.297-1.297-1.297 1.297c-0.391 0.391-1.016 0.391-1.406 0l-1.297-1.297-1.297 1.297c-0.391 0.391-1.016 0.391-1.406 0l-2-2 1.406-1.406 1.297 1.297 1.297-1.297c0.391-0.391 1.016-0.391 1.406 0l1.297 1.297 1.297-1.297c0.391-0.391 1.016-0.391 1.406 0l1.297 1.297 1.297-1.297c0.391-0.391 1.016-0.391 1.406 0l1.297 1.297 1.297-1.297c0.391-0.391 1.016-0.391 1.406 0l1.297 1.297 1.297-1.297c0.391-0.391 1.016-0.391 1.406 0l1.297 1.297 1.297-1.297c0.391-0.391 1.016-0.391 1.406 0l1.297 1.297zM3.703 23.703c-0.391 0.391-1.016 0.391-1.406 0l-2-2 1.406-1.406 1.297 1.281 1.297-1.281c0.391-0.391 1.016-0.391 1.406 0l1.297 1.281 1-1v-4.578l-3.281-4.906c-0.359-0.547-0.109-1.297 0.516-1.516l2.766-0.906v-4.672h2v-2h4v-2h4v2h4v2h2v4.672l2.766 0.906c0.625 0.219 0.875 0.969 0.516 1.516l-3.281 4.906v4.578l0.297-0.281c0.391-0.391 1.016-0.391 1.406 0l1.297 1.281 1.297-1.281c0.391-0.391 1.016-0.391 1.406 0l2 2-1.406 1.406-1.297-1.297-1.297 1.297c-0.187 0.203-0.453 0.297-0.703 0.297s-0.516-0.094-0.703-0.297l-1.297-1.297-1.297 1.297c-0.391 0.391-1.016 0.391-1.406 0l-1.297-1.297-1.297 1.297c-0.391 0.391-1.016 0.391-1.406 0l-1.297-1.297-1.297 1.297c-0.391 0.391-1.016 0.391-1.406 0l-1.297-1.297-1.297 1.297c-0.391 0.391-1.016 0.391-1.406 0l-1.297-1.297-1.297 1.297c-0.391 0.391-1.016 0.391-1.406 0l-1.297-1.297zM10 6v2l6-2 6 2v-2h-2v-2h-8v2h-2z"></path>
</svg>
