<!-- Generated by IcoMoon.io -->
<svg version="1.1" xmlns="http://www.w3.org/2000/svg" width="24" height="28" viewBox="0 0 24 28">
<title>shirtsinbulk</title>
<path d="M0 0h24v21.75l-12.125 5.281-11.875-5.281v-21.75zM22.437 20.734v-14.469h-20.875v14.469l10.328 4.594zM22.437 4.703v-3.141h-20.875v3.141h20.875zM2.828 9.359v1.797h-0.578v-1.797h0.578zM2.828 11.672v1.797h-0.578v-1.797h0.578zM2.828 13.984v1.797h-0.578v-1.797h0.578zM2.828 16.297v1.797h-0.578v-1.797h0.578zM2.828 18.609v1.797h-0.578v-1.797h0.578zM3.234 20.844l0.234-0.531 1.641 0.734-0.234 0.516zM5.359 21.781l0.234-0.531 1.641 0.719-0.234 0.531zM7.469 22.719l0.234-0.531 1.641 0.719-0.234 0.531zM9.594 23.641l0.234-0.516 1.625 0.719-0.234 0.531zM12.453 23.844l1.641-0.719 0.234 0.516-1.641 0.734zM14.562 22.906l1.641-0.719 0.234 0.531-1.641 0.719zM16.688 21.969l1.641-0.719 0.234 0.531-1.641 0.719zM18.797 21.047l1.641-0.734 0.234 0.531-1.641 0.719zM4.047 2.297v0.562h-1.781v-0.562h1.781zM6.578 2.297v0.562h-1.797v-0.562h1.797zM9.109 2.297v0.562h-1.797v-0.562h1.797zM11.625 2.297v0.562h-1.781v-0.562h1.781zM14.156 2.297v0.562h-1.781v-0.562h1.781zM16.688 2.297v0.562h-1.797v-0.562h1.797zM19.219 2.297v0.562h-1.797v-0.562h1.797zM21.734 2.297v0.562h-1.781v-0.562h1.781zM2.828 7.609v1.234h-0.578v-1.797h1.797v0.562h-1.219zM6.578 7.047v0.562h-1.797v-0.562h1.797zM9.109 7.047v0.562h-1.797v-0.562h1.797zM11.625 7.047v0.562h-1.781v-0.562h1.781zM14.156 7.047v0.562h-1.781v-0.562h1.781zM16.688 7.047v0.562h-1.797v-0.562h1.797zM19.219 7.047v0.562h-1.797v-0.562h1.797zM21.172 8.844v-1.234h-1.219v-0.562h1.797v1.797h-0.578zM21.172 11.156v-1.797h0.578v1.797h-0.578zM21.172 13.469v-1.797h0.578v1.797h-0.578zM21.172 15.781v-1.797h0.578v1.797h-0.578zM21.172 18.094v-1.797h0.578v1.797h-0.578zM21.172 20.406v-1.797h0.578v1.797h-0.578zM11.875 19.859c-2.688 0-4.891-2.188-4.891-4.891 0-2.688 2.203-4.891 4.891-4.891 2.703 0 4.891 2.203 4.891 4.891 0 2.703-2.188 4.891-4.891 4.891zM9.297 13.906c0 2.375 4.156 0.641 4.156 2.031 0 0.703-1.281 0.766-1.75 0.766-0.656 0-1.594-0.141-1.922-0.797h-0.047l-0.484 0.984c0.797 0.5 1.563 0.656 2.531 0.656 1.047 0 2.734-0.313 2.734-1.672 0-2.578-4.203-0.875-4.203-2.031 0-0.703 1.109-0.797 1.594-0.797 0.578 0 1.563 0.172 1.906 0.703h0.047l0.469-0.906c-0.812-0.328-1.469-0.641-2.375-0.641-1.078 0-2.656 0.344-2.656 1.703z"></path>
</svg>
