<!-- Generated by IcoMoon.io -->
<svg version="1.1" xmlns="http://www.w3.org/2000/svg" width="26" height="28" viewBox="0 0 26 28">
<title>sign-language</title>
<path d="M12.984 10.516c0.328 0 0.641 0.094 0.922 0.281l3.469 2.312c0.641 0.422 1.219 0.938 1.719 1.516l2.281 2.656c0.391 0.453 0.562 1.062 0.453 1.656l-1.125 6.453c-0.125 0.656-0.656 1.156-1.328 1.234l-8.234 0.875-5.5 0.5h-0.141c-0.812 0-1.5-0.656-1.5-1.5 0-0.781 0.656-1.406 1.437-1.5l4.062-0.5h-7c-0.859 0-1.547-0.719-1.5-1.578 0.047-0.812 0.766-1.422 1.578-1.422l6.906-0.016-8.141-1c-0.844-0.094-1.453-0.859-1.328-1.719 0.125-0.75 0.812-1.25 1.563-1.25h0.156l7.516 0.938-5.484-1.469c-0.781-0.203-1.375-0.922-1.25-1.719 0.125-0.75 0.766-1.266 1.484-1.266 0.109 0 0.203 0.016 0.313 0.031l7 1.5 3.391 0.578c0.031 0 0.063 0.016 0.094 0.016 0.469 0 0.703-0.641 0.281-0.922l-2.906-1.953c-0.719-0.484-0.891-1.453-0.375-2.141 0.281-0.391 0.734-0.594 1.188-0.594zM11.891 13.672l2.906 1.953-3.406-0.578-0.078-0.031-0.562-0.594-3.719-4.094c-0.031-0.031-0.047-0.078-0.078-0.109-0.484-0.641-0.375-1.578 0.297-2.094 0.625-0.484 1.516-0.328 2.063 0.25l2.219 2.297c-0.047 0.047-0.094 0.078-0.141 0.125-0.328 0.453-0.453 1-0.359 1.547 0.094 0.531 0.406 1.016 0.859 1.328zM25.75 6.578l0.234 4.156c0.047 0.766-0.016 1.547-0.172 2.297l-0.75 3.422c-0.125 0.594-0.5 1.078-1.047 1.359l-1.656 0.844c0.016-0.625-0.187-1.219-0.609-1.703l-2.281-2.656c-0.531-0.609-1.141-1.156-1.828-1.609l-3.469-2.312c-0.344-0.234-0.75-0.359-1.188-0.359-0.531 0-1.016 0.219-1.375 0.578l-3.672-4.875c-0.516-0.688-0.359-1.656 0.359-2.141 0.672-0.469 1.594-0.25 2.094 0.406l4.156 5.5-4.094-7.109c-0.438-0.734-0.187-1.687 0.578-2.094 0.719-0.375 1.625-0.078 2.031 0.625l3.766 6.563-2.125-5.266c-0.297-0.75-0.094-1.656 0.625-2.031 0.766-0.406 1.703-0.078 2.063 0.703l3.016 6.484 1.578 3.063c0.25 0.484 0.984 0.281 0.953-0.25l-0.187-3.5c-0.047-0.859 0.625-1.578 1.484-1.594 0.812 0 1.469 0.688 1.516 1.5z"></path>
</svg>
