<!-- Generated by IcoMoon.io -->
<svg version="1.1" xmlns="http://www.w3.org/2000/svg" width="24" height="28" viewBox="0 0 24 28">
<title>sort-numeric-desc</title>
<path d="M21.031 4.516c0-1.281-1.047-2.641-2.297-2.641-1.094 0-1.781 0.891-1.781 2.047 0 1.125 0.719 2.078 2.203 2.078 1.016 0 1.875-0.609 1.875-1.484zM11.5 22.5c0 0.141-0.063 0.266-0.156 0.375l-4.984 4.984c-0.109 0.094-0.234 0.141-0.359 0.141s-0.25-0.047-0.359-0.141l-5-5c-0.141-0.156-0.187-0.359-0.109-0.547s0.266-0.313 0.469-0.313h3v-21.5c0-0.281 0.219-0.5 0.5-0.5h3c0.281 0 0.5 0.219 0.5 0.5v21.5h3c0.281 0 0.5 0.219 0.5 0.5zM22.75 26.219v1.781h-7.328v-1.781h2.609v-6.75c0-0.203 0.016-0.406 0.016-0.562v-0.25h-0.031l-0.109 0.187c-0.078 0.125-0.203 0.281-0.406 0.484l-0.969 0.906-1.281-1.344 3-2.891h1.922v10.219h2.578zM23.219 5.422c0 3.156-1.719 6.578-5.437 6.578-0.703 0-1.281-0.109-1.687-0.25-0.25-0.078-0.469-0.156-0.656-0.234l0.609-1.766c0.141 0.063 0.313 0.125 0.484 0.172 0.313 0.109 0.719 0.203 1.172 0.203 1.875 0 2.844-1.563 3.141-3.187h-0.031c-0.438 0.469-1.359 0.797-2.281 0.797-2.266 0-3.75-1.781-3.75-3.813 0-2.156 1.656-3.922 3.953-3.922 2.484 0 4.484 2.031 4.484 5.422z"></path>
</svg>
