<!-- Generated by IcoMoon.io -->
<svg version="1.1" xmlns="http://www.w3.org/2000/svg" width="36" height="28" viewBox="0 0 36 28">
<title>soundcloud</title>
<path d="M12.25 21.438l0.25-3.766-0.25-8.172c-0.016-0.203-0.172-0.375-0.375-0.375-0.187 0-0.359 0.172-0.359 0.375l-0.219 8.172 0.219 3.766c0.016 0.203 0.172 0.359 0.359 0.359 0.203 0 0.359-0.156 0.375-0.359zM16.875 20.984l0.172-3.297-0.187-9.156c0-0.156-0.078-0.297-0.203-0.375-0.078-0.047-0.156-0.078-0.25-0.078s-0.172 0.031-0.25 0.078c-0.125 0.078-0.203 0.219-0.203 0.375l-0.016 0.094-0.156 9.047s0 0.016 0.172 3.687v0.016c0 0.094 0.031 0.187 0.094 0.266 0.094 0.109 0.219 0.172 0.359 0.172 0.125 0 0.234-0.063 0.313-0.141 0.094-0.078 0.141-0.187 0.141-0.313zM0.547 15.672l0.313 2-0.313 1.969c-0.016 0.078-0.063 0.141-0.141 0.141s-0.125-0.063-0.141-0.141l-0.266-1.969 0.266-2c0.016-0.078 0.063-0.141 0.141-0.141s0.125 0.063 0.141 0.141zM1.891 14.438l0.406 3.234-0.406 3.172c-0.016 0.078-0.078 0.141-0.156 0.141s-0.141-0.063-0.141-0.156l-0.359-3.156 0.359-3.234c0-0.078 0.063-0.141 0.141-0.141s0.141 0.063 0.156 0.141zM6.266 21.516v0 0zM3.328 13.844l0.391 3.828-0.391 3.703c0 0.094-0.078 0.172-0.172 0.172s-0.172-0.078-0.187-0.172l-0.328-3.703 0.328-3.828c0.016-0.109 0.094-0.187 0.187-0.187s0.172 0.078 0.172 0.187zM4.797 13.734l0.359 3.938-0.359 3.813c-0.016 0.125-0.109 0.203-0.219 0.203s-0.203-0.078-0.203-0.203l-0.328-3.813 0.328-3.938c0-0.125 0.094-0.203 0.203-0.203s0.203 0.078 0.219 0.203zM6.266 14.016l0.328 3.656-0.328 3.844c-0.016 0.141-0.125 0.25-0.25 0.25s-0.234-0.109-0.234-0.25l-0.313-3.844 0.313-3.656c0-0.125 0.109-0.234 0.234-0.234s0.234 0.109 0.25 0.234zM12.25 21.438v0 0zM7.734 11.734l0.328 5.938-0.328 3.844c0 0.156-0.125 0.281-0.266 0.281-0.156 0-0.266-0.125-0.281-0.281l-0.281-3.844 0.281-5.938c0.016-0.156 0.125-0.281 0.281-0.281 0.141 0 0.266 0.125 0.266 0.281zM9.203 10.391l0.297 7.313-0.297 3.813c0 0.172-0.141 0.297-0.297 0.297-0.172 0-0.297-0.125-0.313-0.297l-0.25-3.813 0.25-7.313c0.016-0.172 0.141-0.297 0.313-0.297 0.156 0 0.297 0.125 0.297 0.297zM10.734 9.766l0.281 7.906-0.281 3.781c-0.016 0.187-0.156 0.328-0.344 0.328-0.172 0-0.313-0.141-0.328-0.328l-0.25-3.781 0.25-7.906c0-0.187 0.156-0.344 0.328-0.344 0.187 0 0.328 0.156 0.344 0.344zM16.859 21.359v0 0 0 0 0 0zM13.766 9.703l0.234 7.969-0.234 3.734c0 0.219-0.172 0.391-0.391 0.391s-0.375-0.172-0.391-0.391l-0.219-3.734 0.219-7.969c0-0.219 0.172-0.391 0.391-0.391s0.391 0.172 0.391 0.391zM15.313 10l0.219 7.688-0.219 3.687c0 0.234-0.187 0.422-0.422 0.422s-0.422-0.187-0.438-0.422l-0.187-3.687 0.187-7.688c0.016-0.25 0.203-0.438 0.438-0.438s0.406 0.187 0.422 0.438zM18.625 17.687l-0.219 3.609c0 0.266-0.219 0.484-0.484 0.484s-0.484-0.219-0.5-0.484l-0.094-1.781-0.094-1.828 0.187-9.938v-0.047c0.016-0.141 0.078-0.281 0.187-0.375 0.078-0.063 0.187-0.109 0.313-0.109 0.078 0 0.172 0.031 0.234 0.078 0.141 0.078 0.234 0.234 0.25 0.406zM36 17.391c0 2.438-1.984 4.406-4.422 4.406h-12.281c-0.266-0.031-0.484-0.234-0.484-0.516v-14.047c0-0.266 0.094-0.391 0.438-0.516 0.859-0.344 1.828-0.531 2.828-0.531 4.078 0 7.422 3.125 7.781 7.109 0.531-0.219 1.109-0.344 1.719-0.344 2.438 0 4.422 1.984 4.422 4.438z"></path>
</svg>
