<!-- Generated by IcoMoon.io -->
<svg version="1.1" xmlns="http://www.w3.org/2000/svg" width="34" height="28" viewBox="0 0 34 28">
<title>space-shuttle</title>
<path d="M9.688 17.5c-1.078 0.625-2.547 1-4.188 1h-2v-1h-1c-0.281 0-0.5-0.562-0.5-1.25 0-0.281 0.047-0.547 0.109-0.766-1.203-0.031-2.109-0.234-2.109-0.484s0.906-0.453 2.109-0.484c-0.063-0.219-0.109-0.484-0.109-0.766 0-0.688 0.219-1.25 0.5-1.25h1v-1h2c1.641 0 3.109 0.375 4.188 1h17.391c1.156 0.203 2.203 0.375 2.922 0.5 3 0.5 4 1.5 4 2s-1 1.5-4 2c-0.719 0.125-1.766 0.297-2.922 0.5h-17.391zM27.172 13.563c0.5 0.344 0.828 0.859 0.828 1.437s-0.328 1.094-0.828 1.437l1.266 0.469c0.641-0.453 1.062-1.141 1.062-1.906s-0.422-1.453-1.062-1.906zM9.766 17.75h15.859s-3.391 0.594-7.125 1.25c-2 0-3.5 1.5-3.5 1.5l-4.5 4.5s-1.516 1-2.5 1h-1.5l-1.453-7.25h0.453c1.594 0 3.109-0.359 4.266-1zM5.5 11.25h-0.453l1.453-7.25h1.5c1.016 0 2 0.5 2.5 1l4.5 4.5c0 0 1.5 1.5 3.5 1.5 3.734 0.656 7.125 1.25 7.125 1.25h-15.859c-1.156-0.641-2.672-1-4.266-1z"></path>
</svg>
