<!-- Generated by IcoMoon.io -->
<svg version="1.1" xmlns="http://www.w3.org/2000/svg" width="24" height="28" viewBox="0 0 24 28">
<title>spotify</title>
<path d="M17.609 18.906c0-0.438-0.172-0.609-0.469-0.797-2.016-1.203-4.359-1.797-6.984-1.797-1.531 0-3 0.203-4.484 0.531-0.359 0.078-0.656 0.313-0.656 0.812 0 0.391 0.297 0.766 0.766 0.766 0.141 0 0.391-0.078 0.578-0.125 1.219-0.25 2.5-0.422 3.797-0.422 2.297 0 4.469 0.562 6.203 1.609 0.187 0.109 0.313 0.172 0.516 0.172 0.391 0 0.734-0.313 0.734-0.75zM19.109 15.547c0-0.422-0.156-0.719-0.547-0.953-2.391-1.422-5.422-2.203-8.563-2.203-2.016 0-3.391 0.281-4.734 0.656-0.5 0.141-0.75 0.484-0.75 1s0.422 0.938 0.938 0.938c0.219 0 0.344-0.063 0.578-0.125 1.094-0.297 2.406-0.516 3.922-0.516 2.969 0 5.672 0.781 7.625 1.937 0.172 0.094 0.344 0.203 0.594 0.203 0.531 0 0.938-0.422 0.938-0.938zM20.797 11.672c0-0.578-0.25-0.875-0.625-1.094-2.703-1.578-6.406-2.312-9.938-2.312-2.078 0-3.984 0.234-5.688 0.734-0.438 0.125-0.844 0.5-0.844 1.156 0 0.641 0.484 1.141 1.125 1.141 0.234 0 0.453-0.078 0.625-0.125 1.516-0.422 3.156-0.578 4.797-0.578 3.25 0 6.625 0.719 8.797 2.016 0.219 0.125 0.375 0.187 0.625 0.187 0.594 0 1.125-0.469 1.125-1.125zM24 14c0 6.625-5.375 12-12 12s-12-5.375-12-12 5.375-12 12-12 12 5.375 12 12z"></path>
</svg>
