<!-- Generated by IcoMoon.io -->
<svg version="1.1" xmlns="http://www.w3.org/2000/svg" width="24" height="28" viewBox="0 0 24 28">
<title>steam-square</title>
<path d="M19.406 10.109c0-1.656-1.359-3.016-3.031-3.016-1.656 0-3.016 1.359-3.016 3.016 0 1.672 1.359 3.016 3.016 3.016 1.672 0 3.031-1.344 3.031-3.016zM9.875 19.297c0 1.719-1.375 3.094-3.094 3.094-1.188 0-2.219-0.672-2.734-1.656 0.516 0.203 1.016 0.406 1.531 0.625 1.25 0.5 2.688-0.109 3.203-1.375 0.5-1.25-0.109-2.688-1.375-3.187l-1.281-0.516c0.203-0.047 0.438-0.078 0.656-0.078 1.719 0 3.094 1.375 3.094 3.094zM24 6.5v15c0 2.484-2.016 4.5-4.5 4.5h-15c-2.484 0-4.5-2.016-4.5-4.5v-2.391l2.688 1.078c0.406 1.891 2.094 3.313 4.094 3.313 2.187 0 3.984-1.672 4.188-3.797l5.391-3.938c3.125 0 5.641-2.531 5.641-5.625 0-3.125-2.516-5.641-5.641-5.641-3.078 0-5.594 2.5-5.625 5.578l-3.516 5.031c-0.141-0.016-0.281-0.016-0.438-0.016-0.781 0-1.516 0.203-2.141 0.578l-4.641-1.859v-7.313c0-2.484 2.016-4.5 4.5-4.5h15c2.484 0 4.5 2.016 4.5 4.5zM20.141 10.141c0 2.078-1.687 3.766-3.781 3.766-2.078 0-3.766-1.687-3.766-3.766 0-2.094 1.687-3.781 3.766-3.781 2.094 0 3.781 1.687 3.781 3.781z"></path>
</svg>
