<!-- Generated by IcoMoon.io -->
<svg version="1.1" xmlns="http://www.w3.org/2000/svg" width="22" height="28" viewBox="0 0 22 28">
<title>stethoscope</title>
<path d="M20 11c0-0.547-0.453-1-1-1s-1 0.453-1 1 0.453 1 1 1 1-0.453 1-1zM22 11c0 1.313-0.828 2.406-2 2.828v6.172c0 3.313-3.141 6-7 6s-7-2.688-7-6v-2.063c-3.391-0.422-6-2.922-6-5.938v-8c0-0.547 0.453-1 1-1 0.094 0 0.172 0.016 0.25 0.031 0.344-0.609 1-1.031 1.75-1.031 1.109 0 2 0.891 2 2s-0.891 2-2 2c-0.359 0-0.703-0.109-1-0.281v6.281c0 2.203 2.25 4 5 4s5-1.797 5-4v-6.281c-0.297 0.172-0.641 0.281-1 0.281-1.109 0-2-0.891-2-2s0.891-2 2-2c0.75 0 1.406 0.422 1.75 1.031 0.078-0.016 0.156-0.031 0.25-0.031 0.547 0 1 0.453 1 1v8c0 3.016-2.609 5.516-6 5.938v2.063c0 2.203 2.25 4 5 4s5-1.797 5-4v-6.172c-1.172-0.422-2-1.516-2-2.828 0-1.656 1.344-3 3-3s3 1.344 3 3z"></path>
</svg>
