<!-- Generated by IcoMoon.io -->
<svg version="1.1" xmlns="http://www.w3.org/2000/svg" width="22" height="28" viewBox="0 0 22 28">
<title>street-view</title>
<path d="M22 24c0 2.75-5.703 4-11 4s-11-1.25-11-4c0-2.125 3.172-3.125 5.828-3.578 0.547-0.094 1.062 0.266 1.156 0.812s-0.266 1.062-0.812 1.156c-3.219 0.562-4.125 1.437-4.172 1.625 0.156 0.531 3.156 1.984 9 1.984s8.844-1.453 9-2.016c-0.047-0.156-0.953-1.031-4.172-1.594-0.547-0.094-0.906-0.609-0.812-1.156s0.609-0.906 1.156-0.812c2.656 0.453 5.828 1.453 5.828 3.578zM16 10v6c0 0.547-0.453 1-1 1h-1v6c0 0.547-0.453 1-1 1h-4c-0.547 0-1-0.453-1-1v-6h-1c-0.547 0-1-0.453-1-1v-6c0-1.109 0.891-2 2-2h6c1.109 0 2 0.891 2 2zM14.5 4c0 1.937-1.563 3.5-3.5 3.5s-3.5-1.563-3.5-3.5 1.563-3.5 3.5-3.5 3.5 1.563 3.5 3.5z"></path>
</svg>
