<!-- Generated by IcoMoon.io -->
<svg version="1.1" xmlns="http://www.w3.org/2000/svg" width="24" height="28" viewBox="0 0 24 28">
<title>subscript</title>
<path d="M14.016 21.391v2.609h-3.875l-2.484-3.938-0.375-0.656c-0.094-0.109-0.141-0.219-0.172-0.328h-0.047c-0.031 0.109-0.094 0.219-0.141 0.328-0.094 0.187-0.234 0.438-0.391 0.688l-2.422 3.906h-4.031v-2.609h2l3.078-4.547-2.891-4.25h-2.141v-2.625h4.312l2.172 3.563c0.141 0.219 0.25 0.453 0.359 0.656 0.094 0.109 0.141 0.219 0.172 0.328h0.047c0.031-0.109 0.094-0.219 0.172-0.328l0.391-0.656 2.188-3.563h4.016v2.625h-1.953l-2.875 4.172 3.187 4.625h1.703zM24 24.781v3.219h-8.031l-0.063-0.422c-0.016-0.234-0.047-0.516-0.047-0.719 0-4.266 5.469-4.625 5.469-6.891 0-0.812-0.734-1.359-1.563-1.359-0.609 0-1.125 0.281-1.516 0.609-0.203 0.172-0.391 0.391-0.562 0.594l-1.641-1.437c0.281-0.391 0.594-0.719 0.984-1.031 0.656-0.531 1.609-1.016 2.938-1.016 2.266 0 3.844 1.328 3.844 3.406 0 3.734-5.187 4.047-5.406 6.297h3.625v-1.25h1.969z"></path>
</svg>
