<!-- Generated by IcoMoon.io -->
<svg version="1.1" xmlns="http://www.w3.org/2000/svg" width="24" height="28" viewBox="0 0 24 28">
<title>subway</title>
<path d="M17 0c3.859 0 7 2.234 7 5v14c0 2.703-2.984 4.891-6.734 4.984l3.328 3.156c0.328 0.313 0.109 0.859-0.344 0.859h-16.5c-0.453 0-0.672-0.547-0.344-0.859l3.328-3.156c-3.75-0.094-6.734-2.281-6.734-4.984v-14c0-2.766 3.141-5 7-5h10zM4.5 20.5c1.375 0 2.5-1.125 2.5-2.5s-1.125-2.5-2.5-2.5-2.5 1.125-2.5 2.5 1.125 2.5 2.5 2.5zM11 12v-8h-8.5v8h8.5zM19.5 20.5c1.375 0 2.5-1.125 2.5-2.5s-1.125-2.5-2.5-2.5-2.5 1.125-2.5 2.5 1.125 2.5 2.5 2.5zM22 12v-8h-9v8h9z"></path>
</svg>
