<!-- Generated by IcoMoon.io -->
<svg version="1.1" xmlns="http://www.w3.org/2000/svg" width="28" height="28" viewBox="0 0 28 28">
<title>superpowers</title>
<path d="M23.016 14.516c0.281-5-3.547-9.141-8.5-9.438-4.922-0.297-9.281 3.453-9.562 8.406-0.281 5 3.547 9.141 8.516 9.438 4.922 0.297 9.281-3.437 9.547-8.406zM28 0l-5.453 5.437c2.484 2.422 3.828 5.797 3.609 9.266-0.344 5.812-4.813 10.453-10.547 11.234l-15.609 2.063 5.422-5.422c-2.484-2.422-3.813-5.797-3.609-9.266 0.359-5.828 4.813-10.469 10.563-11.25 5.203-0.688 10.422-1.375 15.625-2.063z"></path>
</svg>
