<!-- Generated by IcoMoon.io -->
<svg version="1.1" xmlns="http://www.w3.org/2000/svg" width="28" height="28" viewBox="0 0 28 28">
<title>tasks</title>
<path d="M16 22h10v-2h-10v2zM10 14h16v-2h-16v2zM20 6h6v-2h-6v2zM28 19v4c0 0.547-0.453 1-1 1h-26c-0.547 0-1-0.453-1-1v-4c0-0.547 0.453-1 1-1h26c0.547 0 1 0.453 1 1zM28 11v4c0 0.547-0.453 1-1 1h-26c-0.547 0-1-0.453-1-1v-4c0-0.547 0.453-1 1-1h26c0.547 0 1 0.453 1 1zM28 3v4c0 0.547-0.453 1-1 1h-26c-0.547 0-1-0.453-1-1v-4c0-0.547 0.453-1 1-1h26c0.547 0 1 0.453 1 1z"></path>
</svg>
