<!-- Generated by IcoMoon.io -->
<svg version="1.1" xmlns="http://www.w3.org/2000/svg" width="20" height="28" viewBox="0 0 20 28">
<title>tencent-weibo</title>
<path d="M13.156 8.937c0 1.656-1.359 3.016-3.016 3.016-0.641 0-1.234-0.203-1.734-0.547-0.562 0.609-1.188 1.375-1.797 2.281-2.547 3.828-3.625 8.344-3.156 13.422 0.031 0.453-0.297 0.844-0.734 0.891h-0.078c-0.406 0-0.766-0.313-0.812-0.734-0.609-6.844 1.563-11.688 3.484-14.547 0.703-1.047 1.406-1.891 2.063-2.578-0.172-0.375-0.25-0.781-0.25-1.203 0-1.672 1.344-3.016 3.016-3.016 1.656 0 3.016 1.344 3.016 3.016zM19.109 9.109c0 5.016-4.078 9.094-9.109 9.094-0.688 0-1.375-0.078-2.047-0.219-0.438-0.109-0.703-0.547-0.609-0.984 0.109-0.422 0.531-0.703 0.969-0.609 0.547 0.141 1.125 0.203 1.687 0.203 4.125 0 7.484-3.359 7.484-7.484s-3.359-7.484-7.484-7.484-7.484 3.359-7.484 7.484c0 1.203 0.281 2.344 0.812 3.406 0.203 0.406 0.047 0.891-0.344 1.094-0.406 0.203-0.891 0.047-1.094-0.359-0.656-1.266-1-2.703-1-4.141 0-5.031 4.094-9.109 9.109-9.109 5.031 0 9.109 4.078 9.109 9.109z"></path>
</svg>
