<!-- Generated by IcoMoon.io -->
<svg version="1.1" xmlns="http://www.w3.org/2000/svg" width="24" height="28" viewBox="0 0 24 28">
<title>text-width</title>
<path d="M1.266 2.016l0.844 0.422c0.109 0.047 2.969 0.078 3.297 0.078 1.375 0 2.75-0.063 4.125-0.063 4.141 0 8.328-0.094 12.469 0.047 0.344 0.016 0.672-0.203 0.875-0.484l0.656-0.016c0.141 0 0.297 0.016 0.438 0.016 0.031 1.75 0.031 3.5 0.031 5.25 0 0.562 0.016 1.156-0.078 1.703-0.344 0.125-0.703 0.234-1.062 0.281-0.359-0.625-0.609-1.313-0.844-2-0.109-0.313-0.5-2.422-0.516-2.453-0.109-0.141-0.25-0.234-0.422-0.297-0.125-0.047-0.875-0.031-1.031-0.031-1.922 0-4.141-0.109-6.031 0.109-0.078 0.688-0.141 1.422-0.125 2.125l0.016 2.375v-0.812c0.016 2.547 0.047 5.078 0.047 7.609 0 1.203-0.187 2.469 0.156 3.625 1.188 0.609 2.594 0.703 3.813 1.25 0.031 0.25 0.078 0.516 0.078 0.781 0 0.141-0.016 0.297-0.047 0.453l-0.531 0.016c-2.219 0.063-4.406-0.281-6.641-0.281-1.578 0-3.156 0.281-4.734 0.281-0.016-0.266-0.047-0.547-0.047-0.812v-0.141c0.594-0.953 2.734-0.969 3.719-1.547 0.391-0.875 0.281-8.266 0.281-9.641 0-0.219-0.078-0.453-0.078-0.688 0-0.641 0.109-4.312-0.125-4.578-0.219-0.234-2.266-0.187-2.531-0.187-0.656 0-4.328 0.344-4.703 0.594-0.734 0.484-0.75 3.625-1.687 3.703-0.281-0.172-0.672-0.422-0.875-0.688v-5.984zM20.469 22.047c0.547 0 2.625 1.859 3.047 2.188 0.234 0.187 0.406 0.453 0.406 0.766s-0.172 0.578-0.406 0.766c-0.422 0.328-2.5 2.188-3.047 2.188-0.719 0-0.469-1.672-0.469-1.953h-16c0 0.281 0.25 1.953-0.469 1.953-0.547 0-2.625-1.859-3.047-2.188-0.234-0.187-0.406-0.453-0.406-0.766s0.172-0.578 0.406-0.766c0.422-0.328 2.5-2.188 3.047-2.188 0.719 0 0.469 1.672 0.469 1.953h16c0-0.281-0.25-1.953 0.469-1.953z"></path>
</svg>
