<!-- Generated by IcoMoon.io -->
<svg version="1.1" xmlns="http://www.w3.org/2000/svg" width="28" height="28" viewBox="0 0 28 28">
<title>text-height</title>
<path d="M27.25 22c0.688 0 0.906 0.438 0.484 0.984l-1.969 2.531c-0.422 0.547-1.109 0.547-1.531 0l-1.969-2.531c-0.422-0.547-0.203-0.984 0.484-0.984h1.25v-16h-1.25c-0.688 0-0.906-0.438-0.484-0.984l1.969-2.531c0.422-0.547 1.109-0.547 1.531 0l1.969 2.531c0.422 0.547 0.203 0.984-0.484 0.984h-1.25v16h1.25zM1.266 2.016l0.844 0.422c0.109 0.047 2.969 0.078 3.297 0.078 1.375 0 2.75-0.063 4.125-0.063 1.125 0 2.234 0.016 3.359 0.016h4.578c0.625 0 0.984 0.141 1.406-0.453l0.656-0.016c0.141 0 0.297 0.016 0.438 0.016 0.031 1.75 0.031 3.5 0.031 5.25 0 0.547 0.016 1.156-0.078 1.703-0.344 0.125-0.703 0.234-1.062 0.281-0.359-0.625-0.609-1.313-0.844-2-0.109-0.313-0.484-2.422-0.516-2.453-0.328-0.406-0.688-0.328-1.172-0.328-1.422 0-2.906-0.063-4.312 0.109-0.078 0.688-0.141 1.422-0.125 2.125 0.016 4.391 0.063 8.781 0.063 13.172 0 1.203-0.187 2.469 0.156 3.625 1.188 0.609 2.594 0.703 3.813 1.25 0.031 0.25 0.078 0.516 0.078 0.781 0 0.141-0.016 0.297-0.047 0.453l-0.531 0.016c-2.219 0.063-4.406-0.281-6.641-0.281-1.578 0-3.156 0.281-4.734 0.281-0.016-0.266-0.047-0.547-0.047-0.812v-0.141c0.594-0.953 2.734-0.969 3.719-1.547 0.344-0.766 0.297-5 0.297-5.984 0-3.156-0.094-6.312-0.094-9.469v-1.828c0-0.281 0.063-1.406-0.125-1.625-0.219-0.234-2.266-0.187-2.531-0.187-0.578 0-2.25 0.266-2.703 0.594-0.75 0.516-0.75 3.641-1.687 3.703-0.281-0.172-0.672-0.422-0.875-0.688v-5.984z"></path>
</svg>
