<!-- Generated by IcoMoon.io -->
<svg version="1.1" xmlns="http://www.w3.org/2000/svg" width="28" height="28" viewBox="0 0 28 28">
<title>themeisle</title>
<path d="M13.312 4.828c0 0.562-0.359 1.188-0.969 1.188-0.625 0-0.969-0.625-0.969-1.188 0-0.547 0.344-1.188 0.969-1.188 0.609 0 0.969 0.641 0.969 1.188zM10.75 26.328v-1.781c0-0.609-0.484-1.141-1.109-1.141s-1.094 0.531-1.094 1.141v1.781c0 0.609 0.469 1.156 1.094 1.156s1.109-0.531 1.109-1.156zM13.438 26.328v-1.781c0-0.609-0.469-1.141-1.094-1.141s-1.109 0.531-1.109 1.141v1.781c0 0.609 0.484 1.156 1.109 1.156s1.094-0.547 1.094-1.156zM16.156 26.328v-1.781c0-0.609-0.484-1.141-1.109-1.141s-1.109 0.531-1.109 1.141v1.781c0 0.609 0.484 1.156 1.109 1.156s1.109-0.531 1.109-1.156zM18.875 26.328v-1.781c0-0.609-0.484-1.141-1.109-1.141s-1.109 0.531-1.109 1.141v1.781c0 0.609 0.484 1.156 1.109 1.156s1.109-0.547 1.109-1.156zM23.063 15.641c-1.687 3.234-4.937 5.609-8.672 5.609-5.281 0-8.781-4.625-8.781-9.656 0-0.922 0.109-1.828 0.328-2.719-1.094 1.844-1.625 3.969-1.625 6.094 0 3.297 1.359 6.656 3.906 8.797 0.281-0.531 0.812-0.891 1.422-0.891 0.547 0 1.062 0.313 1.344 0.781 0.297-0.469 0.797-0.781 1.359-0.781 0.547 0 1.062 0.313 1.344 0.781 0.297-0.469 0.812-0.781 1.359-0.781s1.062 0.313 1.359 0.781c0.281-0.469 0.797-0.781 1.344-0.781 0.594 0 1.141 0.359 1.406 0.875 2.375-1.984 3.75-5.031 3.906-8.109zM20.719 15.188c0-0.781-0.344-1.172-1.125-1.172-0.25 0-0.5 0.047-0.734 0.094-0.781 0.156-1.547 0.297-2.328 0.297-2.469 0-3.531-1.437-3.531-3.797 0-1.078 0.203-2.141 0.469-3.187-0.828 1.266-1.297 2.781-1.297 4.297 0 2.953 1.875 5.797 5.063 5.797 1.172 0 2.328-0.422 3.281-1.094 0.109-0.406 0.203-0.812 0.203-1.234zM13.813 4.891c0-0.984-0.688-2.016-1.766-2.016s-1.766 1.031-1.766 2.016c0 1 0.688 2.031 1.766 2.031s1.766-1.031 1.766-2.031zM23.641 10.187c0-2.938-1.891-5.781-5.063-5.781-1.656 0-3.203 0.828-4.312 2.016-0.391 1.297-0.75 2.812-0.75 4.188 0 2.078 0.828 3.281 3.016 3.281 0.75 0 1.484-0.141 2.219-0.297 0.281-0.047 0.547-0.094 0.828-0.094 1.078 0 1.625 0.625 1.625 1.687 0 0.234-0.016 0.484-0.063 0.719 1.578-1.422 2.5-3.594 2.5-5.719zM28 13.578c0 1.969-0.625 5.594-1.984 7.094-1.25 1.359-4.781 3.344-6.609 3.859l-0.063 0.016v1.781c0 0.891-0.688 1.672-1.594 1.672-0.547 0-1.062-0.313-1.344-0.781-0.297 0.469-0.812 0.781-1.359 0.781s-1.062-0.313-1.359-0.781c-0.281 0.469-0.797 0.781-1.344 0.781-0.562 0-1.062-0.313-1.359-0.781-0.281 0.469-0.797 0.781-1.344 0.781-1.031 0-1.609-0.859-1.609-1.797-0.891 0.672-1.953 1.062-3.094 1.062-1.203 0-2.375-0.453-3.297-1.25 0.562-0.016 1.125-0.125 1.656-0.313-1.141-0.313-2.156-1.031-2.844-1.984 0.359 0.078 0.734 0.109 1.109 0.109 0.906 0 1.797-0.25 2.562-0.719-1.203-1.203-3.094-3.219-3.75-4.781-0.313-0.734-0.375-1.719-0.375-2.5 0-2.719 1.109-8.75 4.719-8.75 0.578 0 1.031 0.266 1.266 0.812 0.203-0.297 0.422-0.578 0.656-0.844 0.109-0.141 0.313-0.297 0.391-0.453 0.438-0.688 0.641-1.156 1.188-1.859 1.766-2.25 4.469-3.797 7.375-3.797 0.328 0 0.656 0.016 0.969 0.063 0.594-0.641 1.422-1 2.281-1 0.797 0 1.625 0.328 2.188 0.891 0.047 0.047 0.078 0.125 0.078 0.187 0 0.203-0.562 0.734-0.703 0.891 0.234 0.078 0.859 0.375 0.859 0.656 0 0.156-0.156 0.281-0.25 0.391 1.719 1.516 2.703 3.672 3.078 5.906 0.234-0.281 0.562-0.469 0.938-0.469 0.578 0 1.141 0.391 1.563 0.766 1.141 1.016 1.406 2.906 1.406 4.359z"></path>
</svg>
