<!-- Generated by IcoMoon.io -->
<svg version="1.1" xmlns="http://www.w3.org/2000/svg" width="16" height="28" viewBox="0 0 16 28">
<title>tint</title>
<path d="M8 18c0-0.391-0.125-0.766-0.313-1.078-0.203-0.313-1.031-1.375-1.359-2.422-0.047-0.172-0.203-0.25-0.328-0.25s-0.281 0.078-0.328 0.25c-0.328 1.047-1.156 2.109-1.359 2.422-0.187 0.313-0.313 0.688-0.313 1.078 0 1.109 0.891 2 2 2s2-0.891 2-2zM16 16c0 4.422-3.578 8-8 8s-8-3.578-8-8c0-1.578 0.484-3.047 1.266-4.297 0.797-1.25 4.141-5.484 5.406-9.703 0.203-0.672 0.828-1 1.328-1s1.141 0.328 1.328 1c1.266 4.219 4.609 8.453 5.406 9.703s1.266 2.719 1.266 4.297z"></path>
</svg>
