<!-- Generated by IcoMoon.io -->
<svg version="1.1" xmlns="http://www.w3.org/2000/svg" width="31" height="28" viewBox="0 0 31 28">
<title>trademark</title>
<path d="M13.391 8.5v1.828c0 0.266-0.234 0.484-0.5 0.484h-4.656v12.688c0 0.281-0.219 0.5-0.484 0.5h-2.109c-0.281 0-0.5-0.219-0.5-0.5v-12.688h-4.641c-0.281 0-0.5-0.219-0.5-0.484v-1.828c0-0.281 0.219-0.5 0.5-0.5h12.391c0.266 0 0.5 0.219 0.5 0.5zM29.609 8.453l1.203 15.016c0.016 0.141-0.031 0.266-0.125 0.375-0.094 0.094-0.219 0.156-0.359 0.156h-2.094c-0.25 0-0.469-0.203-0.484-0.453l-0.719-9.188-2.953 6.641c-0.078 0.187-0.25 0.297-0.453 0.297h-1.875c-0.187 0-0.359-0.109-0.453-0.297l-2.938-6.672-0.703 9.219c-0.016 0.25-0.234 0.453-0.484 0.453h-2.109c-0.141 0-0.266-0.063-0.359-0.156-0.094-0.109-0.141-0.234-0.141-0.375l1.219-15.016c0.016-0.25 0.234-0.453 0.484-0.453h2.219c0.203 0 0.375 0.125 0.453 0.297l3.437 8.125c0.109 0.25 0.219 0.531 0.313 0.797 0.109-0.266 0.203-0.547 0.313-0.797l3.453-8.125c0.078-0.172 0.25-0.297 0.453-0.297h2.203c0.266 0 0.484 0.203 0.5 0.453z"></path>
</svg>
