<!-- Generated by IcoMoon.io -->
<svg version="1.1" xmlns="http://www.w3.org/2000/svg" width="26" height="28" viewBox="0 0 26 28">
<title>transgender-alt</title>
<path d="M20 0.5c0-0.281 0.219-0.5 0.5-0.5h4.5c0.547 0 1 0.453 1 1v4.5c0 0.281-0.219 0.5-0.5 0.5h-1c-0.281 0-0.5-0.219-0.5-0.5v-2.094l-3.969 3.984c1.219 1.531 1.969 3.484 1.969 5.609 0 4.625-3.5 8.437-8 8.937v2.063h1.5c0.281 0 0.5 0.219 0.5 0.5v1c0 0.281-0.219 0.5-0.5 0.5h-1.5v1.5c0 0.281-0.219 0.5-0.5 0.5h-1c-0.281 0-0.5-0.219-0.5-0.5v-1.5h-1.5c-0.281 0-0.5-0.219-0.5-0.5v-1c0-0.281 0.219-0.5 0.5-0.5h1.5v-2.063c-4.5-0.5-8-4.312-8-8.937 0-2.125 0.75-4.078 1.969-5.609l-0.812-0.828-1.578 1.734c-0.187 0.203-0.5 0.219-0.703 0.047l-0.75-0.688c-0.203-0.172-0.219-0.5-0.031-0.703l1.641-1.797-1.734-1.75v2.094c0 0.281-0.219 0.5-0.5 0.5h-1c-0.281 0-0.5-0.219-0.5-0.5v-4.5c0-0.547 0.453-1 1-1h4.5c0.281 0 0.5 0.219 0.5 0.5v1c0 0.281-0.219 0.5-0.5 0.5h-2.078l1.656 1.672 1.344-1.469c0.187-0.203 0.5-0.219 0.703-0.047l0.75 0.688c0.203 0.172 0.219 0.5 0.031 0.703l-1.406 1.547 0.891 0.875c1.531-1.219 3.484-1.969 5.609-1.969s4.078 0.75 5.609 1.969l3.984-3.969h-2.094c-0.281 0-0.5-0.219-0.5-0.5v-1zM13 20c3.859 0 7-3.141 7-7s-3.141-7-7-7-7 3.141-7 7 3.141 7 7 7z"></path>
</svg>
