<!-- Generated by IcoMoon.io -->
<svg version="1.1" xmlns="http://www.w3.org/2000/svg" width="24" height="28" viewBox="0 0 24 28">
<title>tree</title>
<path d="M23.5 23c0 0.547-0.453 1-1 1h-7.219c0.047 1 0.172 2.047 0.172 3.063 0 0.516-0.422 0.938-0.953 0.938h-5c-0.531 0-0.953-0.422-0.953-0.938 0-1.016 0.125-2.063 0.172-3.063h-7.219c-0.547 0-1-0.453-1-1 0-0.266 0.109-0.516 0.297-0.703l6.281-6.297h-3.578c-0.547 0-1-0.453-1-1 0-0.266 0.109-0.516 0.297-0.703l6.281-6.297h-3.078c-0.547 0-1-0.453-1-1 0-0.266 0.109-0.516 0.297-0.703l6-6c0.187-0.187 0.438-0.297 0.703-0.297s0.516 0.109 0.703 0.297l6 6c0.187 0.187 0.297 0.438 0.297 0.703 0 0.547-0.453 1-1 1h-3.078l6.281 6.297c0.187 0.187 0.297 0.438 0.297 0.703 0 0.547-0.453 1-1 1h-3.578l6.281 6.297c0.187 0.187 0.297 0.438 0.297 0.703z"></path>
</svg>
