<!-- Generated by IcoMoon.io -->
<svg version="1.1" xmlns="http://www.w3.org/2000/svg" width="18" height="28" viewBox="0 0 18 28">
<title>try</title>
<path d="M18 13c0 6.062-4.937 11-11 11h-2.5c-0.281 0-0.5-0.219-0.5-0.5v-9.547l-3.359 1.031c-0.047 0.016-0.094 0.016-0.141 0.016-0.109 0-0.203-0.031-0.297-0.094-0.125-0.094-0.203-0.25-0.203-0.406v-2c0-0.219 0.141-0.406 0.359-0.484l3.641-1.109v-1.453l-3.359 1.031c-0.047 0.016-0.094 0.016-0.141 0.016-0.109 0-0.203-0.031-0.297-0.094-0.125-0.094-0.203-0.25-0.203-0.406v-2c0-0.219 0.141-0.406 0.359-0.484l3.641-1.109v-3.906c0-0.281 0.219-0.5 0.5-0.5h2.5c0.281 0 0.5 0.219 0.5 0.5v2.828l5.859-1.813c0.141-0.047 0.313-0.016 0.438 0.078s0.203 0.25 0.203 0.406v2c0 0.219-0.141 0.406-0.359 0.484l-6.141 1.891v1.453l5.859-1.813c0.141-0.047 0.313-0.016 0.438 0.078s0.203 0.25 0.203 0.406v2c0 0.219-0.141 0.406-0.359 0.484l-6.141 1.891v7.609c3.906-0.266 7-3.516 7-7.484 0-0.281 0.219-0.5 0.5-0.5h2.5c0.281 0 0.5 0.219 0.5 0.5z"></path>
</svg>
