<!-- Generated by IcoMoon.io -->
<svg version="1.1" xmlns="http://www.w3.org/2000/svg" width="28" height="28" viewBox="0 0 28 28">
<title>universal-access</title>
<path d="M21.469 10.266c-0.125-0.531-0.656-0.859-1.203-0.734-2.234 0.531-4.266 0.969-6.266 0.969s-4.031-0.438-6.266-0.969c-0.547-0.125-1.078 0.203-1.203 0.734-0.125 0.547 0.203 1.078 0.734 1.203 1.656 0.391 3.203 0.734 4.734 0.906-0.063 5.281-0.641 6.75-1.297 8.437l-0.141 0.328c-0.203 0.516 0.063 1.094 0.578 1.297 0.109 0.047 0.234 0.063 0.359 0.063 0.406 0 0.781-0.234 0.938-0.641l0.125-0.313c0.438-1.125 0.844-2.172 1.109-4.047h0.656c0.266 1.875 0.672 2.922 1.109 4.047l0.125 0.313c0.156 0.406 0.531 0.641 0.938 0.641 0.125 0 0.25-0.016 0.359-0.063 0.516-0.203 0.781-0.781 0.578-1.297l-0.141-0.328c-0.656-1.687-1.234-3.156-1.297-8.437 1.531-0.172 3.078-0.516 4.734-0.906 0.531-0.125 0.859-0.656 0.734-1.203zM16 8c0-1.109-0.891-2-2-2s-2 0.891-2 2 0.891 2 2 2 2-0.891 2-2zM25 14c0 6.078-4.922 11-11 11s-11-4.922-11-11 4.922-11 11-11 11 4.922 11 11zM14 2c-6.609 0-12 5.391-12 12s5.391 12 12 12 12-5.391 12-12-5.391-12-12-12zM28 14c0 7.734-6.266 14-14 14s-14-6.266-14-14 6.266-14 14-14v0c7.734 0 14 6.266 14 14z"></path>
</svg>
