<!-- Generated by IcoMoon.io -->
<svg version="1.1" xmlns="http://www.w3.org/2000/svg" width="18" height="28" viewBox="0 0 18 28">
<title>venus</title>
<path d="M18 9c0 4.625-3.5 8.437-8 8.937v4.062h3.5c0.281 0 0.5 0.219 0.5 0.5v1c0 0.281-0.219 0.5-0.5 0.5h-3.5v3.5c0 0.281-0.219 0.5-0.5 0.5h-1c-0.281 0-0.5-0.219-0.5-0.5v-3.5h-3.5c-0.281 0-0.5-0.219-0.5-0.5v-1c0-0.281 0.219-0.5 0.5-0.5h3.5v-4.062c-4.734-0.516-8.359-4.719-7.969-9.672 0.344-4.25 3.719-7.734 7.938-8.203 5.437-0.609 10.031 3.625 10.031 8.937zM2 9c0 3.859 3.141 7 7 7s7-3.141 7-7-3.141-7-7-7-7 3.141-7 7z"></path>
</svg>
