<!-- Generated by IcoMoon.io -->
<svg version="1.1" xmlns="http://www.w3.org/2000/svg" width="31" height="28" viewBox="0 0 31 28">
<title>venus-mars</title>
<path d="M26 0.5c0-0.281 0.219-0.5 0.5-0.5h4.5c0.547 0 1 0.453 1 1v4.5c0 0.281-0.219 0.5-0.5 0.5h-1c-0.281 0-0.5-0.219-0.5-0.5v-2.094l-3.969 3.984c1.531 1.922 2.297 4.469 1.828 7.203-0.656 3.75-3.703 6.734-7.469 7.297-2.375 0.359-4.609-0.219-6.391-1.406-1.172 0.781-2.531 1.297-4 1.453v2.063h1.5c0.281 0 0.5 0.219 0.5 0.5v1c0 0.281-0.219 0.5-0.5 0.5h-1.5v1.5c0 0.281-0.219 0.5-0.5 0.5h-1c-0.281 0-0.5-0.219-0.5-0.5v-1.5h-1.5c-0.281 0-0.5-0.219-0.5-0.5v-1c0-0.281 0.219-0.5 0.5-0.5h1.5v-2.063c-4.906-0.547-8.641-5.047-7.906-10.219 0.531-3.891 3.625-7.016 7.5-7.609 2.391-0.359 4.625 0.219 6.406 1.406 1.437-0.953 3.156-1.516 5-1.516 2.125 0 4.078 0.75 5.609 1.969l3.984-3.969h-2.094c-0.281 0-0.5-0.219-0.5-0.5v-1zM14 17.891c1.234-1.266 2-2.984 2-4.891s-0.766-3.625-2-4.891c-1.234 1.266-2 2.984-2 4.891s0.766 3.625 2 4.891zM2 13c0 3.859 3.141 7 7 7 1.234 0 2.406-0.328 3.406-0.891-1.484-1.609-2.406-3.75-2.406-6.109s0.922-4.5 2.406-6.109c-1-0.562-2.172-0.891-3.406-0.891-3.859 0-7 3.141-7 7zM19 20c3.859 0 7-3.141 7-7s-3.141-7-7-7c-1.234 0-2.406 0.328-3.406 0.891 1.484 1.609 2.406 3.75 2.406 6.109s-0.922 4.5-2.406 6.109c1 0.562 2.172 0.891 3.406 0.891z"></path>
</svg>
