<!-- Generated by IcoMoon.io -->
<svg version="1.1" xmlns="http://www.w3.org/2000/svg" width="28" height="28" viewBox="0 0 28 28">
<title>venus-double</title>
<path d="M27.969 8.266c0.391 4.953-3.234 9.156-7.969 9.672v4.062h3.5c0.281 0 0.5 0.219 0.5 0.5v1c0 0.281-0.219 0.5-0.5 0.5h-3.5v3.5c0 0.281-0.219 0.5-0.5 0.5h-1c-0.281 0-0.5-0.219-0.5-0.5v-3.5h-8v3.5c0 0.281-0.219 0.5-0.5 0.5h-1c-0.281 0-0.5-0.219-0.5-0.5v-3.5h-3.5c-0.281 0-0.5-0.219-0.5-0.5v-1c0-0.281 0.219-0.5 0.5-0.5h3.5v-4.062c-4.734-0.516-8.359-4.719-7.969-9.672 0.344-4.297 3.797-7.812 8.078-8.219 2.188-0.219 4.234 0.359 5.891 1.469 1.656-1.109 3.703-1.687 5.891-1.469 4.281 0.406 7.734 3.922 8.078 8.219zM14 13.891c1.234-1.266 2-2.984 2-4.891s-0.766-3.625-2-4.891c-1.234 1.266-2 2.984-2 4.891s0.766 3.625 2 4.891zM9 16c1.234 0 2.391-0.328 3.406-0.891-1.5-1.609-2.406-3.75-2.406-6.109s0.922-4.5 2.406-6.109c-1.016-0.562-2.172-0.891-3.406-0.891-3.859 0-7 3.141-7 7s3.141 7 7 7zM18 22v-4.062c-1.469-0.156-2.828-0.688-4-1.469-1.172 0.781-2.531 1.313-4 1.469v4.062h8zM19 16c3.859 0 7-3.141 7-7s-3.141-7-7-7c-1.234 0-2.391 0.328-3.406 0.891 1.484 1.609 2.406 3.75 2.406 6.109s-0.906 4.5-2.406 6.109c1.016 0.562 2.172 0.891 3.406 0.891z"></path>
</svg>
