<!-- Generated by IcoMoon.io -->
<svg version="1.1" xmlns="http://www.w3.org/2000/svg" width="24" height="28" viewBox="0 0 24 28">
<title>viadeo-square</title>
<path d="M16.406 16.266c0-0.781-0.141-1.563-0.438-2.297-0.406 0.25-0.859 0.438-1.328 0.531 0.25 0.562 0.344 1.172 0.344 1.781 0 2.406-1.781 4.375-4.219 4.375-2.453 0-4.234-1.969-4.234-4.375 0-2.359 1.797-4.438 4.234-4.438 0.531 0 1.047 0.094 1.531 0.297 0.047-0.469 0.203-0.938 0.422-1.359-0.625-0.219-1.281-0.328-1.953-0.328-3.234 0-5.641 2.609-5.641 5.812s2.422 5.734 5.641 5.734 5.641-2.547 5.641-5.734zM13.625 10.719c0.031 0.375 0.031 0.75 0.031 1.109 0 2.891-0.562 7.594-3.672 8.781 0.219 0.031 0.438 0.047 0.656 0.047h0.156c2.312-1.469 3.422-3.719 3.422-6.422 0-1.203-0.203-2.391-0.594-3.516zM13.625 10.719c-0.078-1.516-0.938-3.859-2.219-4.719 0.875 1.484 1.656 3.078 2.219 4.719zM18.859 9.078c0-0.953-0.234-1.922-0.797-2.719-0.375 0.797-1.078 1.469-1.937 1.703-1.234 0.344-2.328 0.922-2.328 2.391 0 0.422 0.141 0.844 0.375 1.203 1.484-0.344 3.063-1.437 3.687-2.844-0.094 1.25-2.422 2.766-3.328 3.266 0.453 0.453 1.047 0.812 1.719 0.812 1.141 0 1.953-1.016 2.344-1.984 0.187-0.469 0.266-1.344 0.266-1.828zM24 6.5v15c0 2.484-2.016 4.5-4.5 4.5h-15c-2.484 0-4.5-2.016-4.5-4.5v-15c0-2.484 2.016-4.5 4.5-4.5h15c2.484 0 4.5 2.016 4.5 4.5z"></path>
</svg>
