<!-- Generated by IcoMoon.io -->
<svg version="1.1" xmlns="http://www.w3.org/2000/svg" width="24" height="28" viewBox="0 0 24 28">
<title>vimeo-square</title>
<path d="M20.188 9.969c0.109-2.266-0.734-3.406-2.516-3.469-2.406-0.078-4.031 1.281-4.875 4.078 0.438-0.187 0.859-0.297 1.281-0.297 0.875 0 1.266 0.5 1.156 1.5-0.047 0.594-0.438 1.469-1.156 2.609-0.734 1.156-1.281 1.719-1.641 1.719-0.469 0-0.875-0.875-1.281-2.641-0.125-0.531-0.359-1.844-0.703-3.984-0.313-1.969-1.141-2.891-2.5-2.766-0.562 0.063-1.437 0.562-2.562 1.563-0.844 0.734-1.672 1.5-2.531 2.25l0.812 1.047c0.781-0.531 1.234-0.812 1.359-0.812 0.594 0 1.156 0.938 1.672 2.797 0.469 1.719 0.938 3.422 1.406 5.141 0.703 1.859 1.547 2.797 2.562 2.797 1.625 0 3.625-1.531 5.984-4.594 2.281-2.938 3.469-5.25 3.531-6.937zM24 6.5v15c0 2.484-2.016 4.5-4.5 4.5h-15c-2.484 0-4.5-2.016-4.5-4.5v-15c0-2.484 2.016-4.5 4.5-4.5h15c2.484 0 4.5 2.016 4.5 4.5z"></path>
</svg>
