<!-- Generated by IcoMoon.io -->
<svg version="1.1" xmlns="http://www.w3.org/2000/svg" width="18" height="28" viewBox="0 0 18 28">
<title>volume-down</title>
<path d="M12 5.5v17c0 0.547-0.453 1-1 1-0.266 0-0.516-0.109-0.703-0.297l-5.203-5.203h-4.094c-0.547 0-1-0.453-1-1v-6c0-0.547 0.453-1 1-1h4.094l5.203-5.203c0.187-0.187 0.438-0.297 0.703-0.297 0.547 0 1 0.453 1 1zM18 14c0 1.563-0.953 3.078-2.422 3.672-0.125 0.063-0.266 0.078-0.391 0.078-0.547 0-1-0.438-1-1 0-1.188 1.813-0.859 1.813-2.75s-1.813-1.563-1.813-2.75c0-0.562 0.453-1 1-1 0.125 0 0.266 0.016 0.391 0.078 1.469 0.578 2.422 2.109 2.422 3.672z"></path>
</svg>
