<!-- Generated by IcoMoon.io -->
<svg version="1.1" xmlns="http://www.w3.org/2000/svg" width="28" height="28" viewBox="0 0 28 28">
<title>weibo</title>
<path d="M10.547 20.062c0.438-0.719 0.203-1.547-0.531-1.859-0.703-0.297-1.641 0.016-2.078 0.703-0.453 0.703-0.234 1.531 0.469 1.859 0.719 0.328 1.687 0.016 2.141-0.703zM12.016 18.172c0.156-0.281 0.063-0.594-0.219-0.703-0.281-0.094-0.625 0.031-0.781 0.297-0.156 0.281-0.078 0.578 0.203 0.703 0.281 0.109 0.641-0.016 0.797-0.297zM14.734 19.844c-0.938 2.125-3.656 3.281-5.969 2.531-2.234-0.719-3.172-2.922-2.203-4.906 0.969-1.937 3.453-3.031 5.656-2.469 2.297 0.594 3.453 2.75 2.516 4.844zM19.609 17.344c-0.297-3.047-4.297-5.141-8.937-4.688-4.641 0.469-8.141 3.297-7.844 6.344s4.297 5.141 8.937 4.688c4.641-0.469 8.141-3.297 7.844-6.344zM24.422 17.406c0 3.516-5.063 7.938-12.672 7.938-5.812 0-11.75-2.812-11.75-7.453 0-2.422 1.531-5.219 4.172-7.859 3.531-3.531 7.641-5.125 9.188-3.578 0.688 0.672 0.75 1.859 0.313 3.266-0.219 0.719 0.672 0.313 0.672 0.328 2.844-1.203 5.328-1.266 6.234 0.031 0.484 0.688 0.438 1.656 0 2.781-0.203 0.516 0.063 0.594 0.453 0.719 1.609 0.5 3.391 1.703 3.391 3.828zM23.266 7.656c0.891 0.984 1.141 2.344 0.75 3.531-0.156 0.484-0.672 0.75-1.156 0.594s-0.75-0.672-0.594-1.156v0c0.187-0.594 0.063-1.25-0.375-1.734s-1.078-0.672-1.672-0.547v0c-0.5 0.109-1-0.203-1.094-0.703-0.109-0.5 0.203-0.984 0.703-1.094 1.219-0.266 2.547 0.109 3.437 1.109zM26.094 5.109c1.844 2.031 2.328 4.812 1.547 7.25v0c-0.187 0.562-0.781 0.875-1.344 0.688s-0.875-0.781-0.703-1.344v0c0.562-1.734 0.219-3.719-1.094-5.156-1.313-1.453-3.234-2-5.016-1.625-0.578 0.125-1.156-0.25-1.281-0.828s0.25-1.141 0.828-1.266v0c2.516-0.531 5.219 0.234 7.063 2.281z"></path>
</svg>
