<!-- Generated by IcoMoon.io -->
<svg version="1.1" xmlns="http://www.w3.org/2000/svg" width="25" height="28" viewBox="0 0 25 28">
<title>wheelchair</title>
<path d="M15.984 18.547l1.594 3.187c-1.203 3.719-4.672 6.266-8.578 6.266-4.953 0-9-4.047-9-9 0-3.781 2.375-7.156 5.922-8.453l0.266 2.047c-2.547 1.125-4.188 3.625-4.188 6.406 0 3.859 3.141 7 7 7 4.016 0 7.266-3.437 6.984-7.453zM24.547 20.109l0.906 1.781-4 2c-0.141 0.078-0.297 0.109-0.453 0.109-0.375 0-0.734-0.219-0.891-0.547l-3.734-7.453h-7.375c-0.5 0-0.938-0.391-1-0.891l-1.5-12.172c-0.016-0.156 0.047-0.5 0.094-0.656 0.297-1.078 1.297-1.781 2.406-1.781 1.375 0 2.5 1.125 2.5 2.5 0 1.422-1.25 2.641-2.688 2.484l0.578 4.516h6.609v2h-6.359l0.25 2h7.109c0.375 0 0.734 0.219 0.891 0.547l3.563 7.109z"></path>
</svg>
