<!-- Generated by IcoMoon.io -->
<svg version="1.1" xmlns="http://www.w3.org/2000/svg" width="24" height="28" viewBox="0 0 24 28">
<title>wheelchair-alt</title>
<path d="M22.469 12.703c0.328 0.344 0.5 0.812 0.453 1.281l-0.688 8.609c-0.078 0.875-0.797 1.531-1.656 1.531-0.047 0-0.094 0-0.141-0.016-0.922-0.063-1.594-0.875-1.531-1.781l0.547-6.703-2.234 0.125c0.547 1.125 0.859 2.406 0.859 3.75 0 2.25-0.875 4.297-2.312 5.812l-2.141-2.141c0.875-0.969 1.422-2.266 1.422-3.672 0-3.031-2.453-5.484-5.469-5.484-1.422 0-2.703 0.547-3.687 1.437l-2.141-2.156c1.203-1.141 2.734-1.922 4.438-2.203l4.125-4.688-2.328-1.359-2.828 2.516c-0.688 0.625-1.734 0.562-2.344-0.125s-0.547-1.734 0.125-2.344l3.734-3.328c0.531-0.484 1.313-0.562 1.937-0.187 7.609 4.422 7.625 4.422 7.625 4.422 0.406 0.234 0.641 0.641 0.75 1.062 0.156 0.609 0.047 1.297-0.406 1.828l-3.203 3.625 5.797-0.313c0.484-0.031 0.953 0.141 1.297 0.5zM19.375 5.563c-1.531 0-2.781-1.234-2.781-2.781 0-1.531 1.25-2.781 2.781-2.781 1.547 0 2.797 1.25 2.797 2.781 0 1.547-1.25 2.781-2.797 2.781zM9.578 24.969c1.125 0 2.188-0.359 3.063-0.953l2.172 2.172c-1.437 1.141-3.266 1.813-5.234 1.813-4.703 0-8.516-3.813-8.516-8.5 0-1.984 0.672-3.797 1.813-5.25l2.172 2.172c-0.594 0.875-0.938 1.937-0.938 3.078 0 3.016 2.453 5.469 5.469 5.469z"></path>
</svg>
