<!-- Generated by IcoMoon.io -->
<svg version="1.1" xmlns="http://www.w3.org/2000/svg" width="36" height="28" viewBox="0 0 36 28">
<title>wikipedia-w</title>
<path d="M23.344 25.609l-4.609-10.859c-1.828 3.578-3.844 7.313-5.578 10.859-0.016 0.016-0.844 0-0.844-0.016-2.641-6.172-5.406-12.297-8.047-18.484-0.641-1.5-2.781-3.938-4.25-3.922 0-0.172-0.016-0.562-0.016-0.797h9.109v0.781c-1.078 0.063-2.969 0.75-2.438 1.922 1.234 2.797 5.828 13.516 7.063 16.234 0.844-1.672 3.25-6.141 4.234-8.031-0.781-1.594-3.297-7.531-4.094-9-0.547-1-2.031-1.094-3.141-1.109v-0.781l8.016 0.016v0.734c-1.094 0.031-2.141 0.438-1.656 1.469 1.062 2.25 1.719 3.828 2.703 5.891 0.313-0.609 1.953-3.906 2.703-5.672 0.5-1.156-0.219-1.609-2.172-1.656 0.016-0.203 0-0.578 0.016-0.766 2.5-0.016 6.25-0.016 6.922-0.031v0.766c-1.266 0.047-2.578 0.719-3.266 1.781l-3.328 6.906c0.359 0.906 3.563 8.031 3.891 8.813l6.891-15.891c-0.484-1.297-2.047-1.578-2.656-1.594v-0.781l7.187 0.063 0.016 0.031-0.016 0.688c-1.578 0.047-2.531 0.891-3.141 2.266-1.406 3.25-5.812 13.5-8.734 20.172h-0.766z"></path>
</svg>
