<!-- Generated by IcoMoon.io -->
<svg version="1.1" xmlns="http://www.w3.org/2000/svg" width="28" height="28" viewBox="0 0 28 28">
<title>wpbeginner</title>
<path d="M6 13h2.5v-3.5h-2.5v3.5zM19.078 18.188v-1.437c-1.344 0.469-2.453 0.578-3.797 0.594-3.016 0.016-5.688-1.234-7.5-2.641l0.016 1.5c1.703 1.547 4.312 2.766 7.562 2.75 1.359 0 2.641-0.281 3.719-0.766zM10 13h10v-3.5h-10v3.5zM28 12.5c0 1.984-0.562 3.859-1.547 5.5 0.875 1 1.391 2.234 1.391 3.578 0 3.266-3.094 5.922-6.922 5.922-2.594 0-4.844-1.219-6.031-3.016-0.297 0.016-0.594 0.016-0.891 0.016s-0.594 0-0.891-0.016c-1.188 1.797-3.437 3.016-6.031 3.016-3.828 0-6.922-2.656-6.922-5.922 0-1.344 0.516-2.578 1.391-3.578-0.984-1.641-1.547-3.516-1.547-5.5 0-6.625 6.266-12 14-12s14 5.375 14 12z"></path>
</svg>
