<!-- Generated by IcoMoon.io -->
<svg version="1.1" xmlns="http://www.w3.org/2000/svg" width="28" height="28" viewBox="0 0 28 28">
<title>wpexplorer</title>
<path d="M14.812 16.063l2.547 5.141h-0.797l-2.734-5.469-2.672 5.469h-0.766l2.797-5.844-1.219-0.516 0.328-0.766 3.75 1.594-0.328 0.781zM8.797 6.813l4.75 2.031-2.031 4.75-4.75-2.031zM14.172 9.703l3.75 1.609-1.609 3.734-3.734-1.594zM18.562 12.047l2.984 1.266-1.281 2.969-2.969-1.266zM26.25 14c0-6.75-5.5-12.25-12.25-12.25s-12.25 5.5-12.25 12.25 5.5 12.25 12.25 12.25 12.25-5.5 12.25-12.25zM28 14c0 7.719-6.281 14-14 14s-14-6.281-14-14 6.281-14 14-14 14 6.281 14 14z"></path>
</svg>
