<!-- Generated by IcoMoon.io -->
<svg version="1.1" xmlns="http://www.w3.org/2000/svg" width="24" height="28" viewBox="0 0 24 28">
<title>wpforms</title>
<path d="M8.047 14.234v2h-3.938v-2h3.938zM8.047 10.25v1.984h-3.938v-1.984h3.938zM19.891 18.234v2h-5.328v-2h5.328zM19.891 14.234v2h-10.5v-2h10.5zM19.891 10.25v1.984h-10.5v-1.984h10.5zM22 23.688v-19.375c0-0.172-0.141-0.313-0.313-0.313h-0.5l-5.906 4-3.281-2.672-3.281 2.672-5.906-4h-0.5c-0.172 0-0.313 0.141-0.313 0.313v19.375c0 0.172 0.141 0.313 0.313 0.313h19.375c0.172 0 0.313-0.141 0.313-0.313zM8.641 6.344l2.891-2.344h-6.344zM15.359 6.344l3.453-2.344h-6.344zM24 4.312v19.375c0 1.281-1.031 2.312-2.312 2.312h-19.375c-1.281 0-2.312-1.031-2.312-2.312v-19.375c0-1.281 1.031-2.312 2.312-2.312h19.375c1.281 0 2.312 1.031 2.312 2.312z"></path>
</svg>
