<!-- Generated by IcoMoon.io -->
<svg version="1.1" xmlns="http://www.w3.org/2000/svg" width="22" height="28" viewBox="0 0 22 28">
<title>xing</title>
<path d="M9.328 10.422c0 0-0.156 0.266-4.016 7.125-0.203 0.344-0.469 0.719-1.016 0.719h-3.734c-0.219 0-0.391-0.109-0.484-0.266s-0.109-0.359 0-0.562l3.953-7c0.016 0 0.016 0 0-0.016l-2.516-4.359c-0.109-0.203-0.125-0.422-0.016-0.578 0.094-0.156 0.281-0.234 0.5-0.234h3.734c0.562 0 0.844 0.375 1.031 0.703 2.547 4.453 2.562 4.469 2.562 4.469zM21.922 0.391c0.109 0.156 0.109 0.375 0 0.578l-8.25 14.594c-0.016 0-0.016 0.016 0 0.016l5.25 9.609c0.109 0.203 0.109 0.422 0.016 0.578-0.109 0.156-0.281 0.234-0.5 0.234h-3.734c-0.562 0-0.859-0.375-1.031-0.703-5.297-9.703-5.297-9.719-5.297-9.719s0.266-0.469 8.297-14.719c0.203-0.359 0.438-0.703 1-0.703h3.766c0.219 0 0.391 0.078 0.484 0.234z"></path>
</svg>
