<!-- Generated by IcoMoon.io -->
<svg version="1.1" xmlns="http://www.w3.org/2000/svg" width="24" height="28" viewBox="0 0 24 28">
<title>xing-square</title>
<path d="M10.703 11.953c0 0 0-0.016-1.969-3.469-0.156-0.25-0.375-0.531-0.812-0.531h-2.875c-0.187 0-0.328 0.063-0.406 0.172-0.078 0.125-0.063 0.297 0.016 0.453l1.953 3.375v0.016l-3.063 5.406c-0.094 0.156-0.078 0.313 0 0.438s0.203 0.203 0.375 0.203h2.891c0.422 0 0.641-0.297 0.781-0.562 3-5.297 3.109-5.5 3.109-5.5zM20.453 4.188c-0.078-0.125-0.203-0.187-0.375-0.187h-2.922c-0.422 0-0.609 0.266-0.766 0.547-6.219 11.031-6.422 11.391-6.422 11.391s0 0.016 4.094 7.516c0.141 0.25 0.359 0.547 0.812 0.547h2.875c0.172 0 0.313-0.063 0.391-0.187s0.078-0.281-0.016-0.438l-4.062-7.438v-0.016l6.391-11.297c0.078-0.156 0.078-0.313 0-0.438zM24 6.5v15c0 2.484-2.016 4.5-4.5 4.5h-15c-2.484 0-4.5-2.016-4.5-4.5v-15c0-2.484 2.016-4.5 4.5-4.5h15c2.484 0 4.5 2.016 4.5 4.5z"></path>
</svg>
