<!-- Generated by IcoMoon.io -->
<svg version="1.1" xmlns="http://www.w3.org/2000/svg" width="26" height="28" viewBox="0 0 26 28">
<title>yoast</title>
<path d="M5.297 3.406h10.797l-0.406 1.125h-10.391c-2.297 0-4.172 1.891-4.172 4.188v12.047c0 1.969 1.406 3.703 3.344 4.109 0.5 0.109 1.016 0.078 1.531 0.078v1.125h-0.703c-2.922 0-5.297-2.391-5.297-5.313v-12.047c0-2.922 2.375-5.313 5.297-5.313zM18.594 0h3.859l-7.531 20.219c-1.406 3.75-3.109 7.656-7.734 7.781v-3.047c1.734-0.281 2.844-1.234 3.437-2.844 0.203-0.531 0.313-1.078 0.313-1.641s-0.109-1.125-0.313-1.656l-4.453-11.453h3.563l2.922 9.141zM26 8.719v17.359h-12.422c0.25-0.375 0.516-0.734 0.703-1.141h10.594v-16.219c0-1.781-1.125-3.375-2.797-3.969l0.391-1.047c2.125 0.719 3.531 2.781 3.531 5.016z"></path>
</svg>
